<svg width="300" height="200" viewBox="0 0 300 200" fill="none" xmlns="http://www.w3.org/2000/svg">
<g style="mix-blend-mode:multiply">
<path opacity="0.03" d="M258.822 86.9876C207.069 57.1114 153.657 57.1114 101.885 86.9876C76.0082 101.935 63.0698 117.103 63.0698 132.29C63.0698 147.477 76.0082 162.646 101.885 177.593C153.638 207.469 207.05 207.469 258.822 177.593C284.699 162.646 297.637 147.477 297.637 132.29C297.637 117.103 284.699 101.935 258.822 86.9876Z" fill="#FCFCFC"/>
<path opacity="0.06" d="M256.85 86.9876C205.097 57.1114 151.685 57.1114 99.9128 86.9876C74.0361 101.935 61.0977 117.103 61.0977 132.29C61.0977 147.477 74.0361 162.646 99.9128 177.593C151.666 207.469 205.078 207.469 256.85 177.593C282.727 162.646 295.665 147.477 295.665 132.29C295.665 117.103 282.727 101.935 256.85 86.9876Z" fill="#F9F9F9"/>
<path opacity="0.09" d="M254.878 86.9876C203.124 57.1114 149.712 57.1114 97.9405 86.9876C72.0638 101.935 59.1255 117.103 59.1255 132.29C59.1255 147.477 72.0638 162.646 97.9405 177.593C149.694 207.469 203.106 207.469 254.878 177.593C280.754 162.646 293.693 147.477 293.693 132.29C293.693 117.103 280.754 101.935 254.878 86.9876Z" fill="#F5F5F5"/>
<path opacity="0.12" d="M252.906 86.9876C201.153 57.1114 147.741 57.1114 95.9688 86.9876C70.0921 101.935 57.1538 117.103 57.1538 132.29C57.1538 147.477 70.0921 162.646 95.9688 177.593C147.722 207.469 201.134 207.469 252.906 177.593C278.783 162.646 291.721 147.477 291.721 132.29C291.721 117.103 278.783 101.935 252.906 86.9876Z" fill="#F2F2F2"/>
<path opacity="0.15" d="M250.934 86.9876C199.181 57.1114 145.768 57.1114 93.9967 86.9876C68.12 101.935 55.1816 117.103 55.1816 132.29C55.1816 147.477 68.12 162.646 93.9967 177.593C145.75 207.469 199.162 207.469 250.934 177.593C276.811 162.646 289.749 147.477 289.749 132.29C289.749 117.103 276.811 101.935 250.934 86.9876Z" fill="#EFEFEF"/>
<path opacity="0.18" d="M248.962 86.9876C197.208 57.1114 143.796 57.1114 92.0245 86.9876C66.1478 101.935 53.2095 117.103 53.2095 132.29C53.2095 147.477 66.1478 162.646 92.0245 177.593C143.778 207.469 197.19 207.469 248.962 177.593C274.839 162.646 287.777 147.477 287.777 132.29C287.777 117.103 274.839 101.935 248.962 86.9876Z" fill="#ECECEC"/>
<path opacity="0.21" d="M246.99 86.9876C195.236 57.1114 141.824 57.1114 90.0523 86.9876C64.1756 101.935 51.2373 117.103 51.2373 132.29C51.2373 147.477 64.1756 162.646 90.0523 177.593C141.806 207.469 195.218 207.469 246.99 177.593C272.866 162.646 285.805 147.477 285.805 132.29C285.805 117.103 272.866 101.935 246.99 86.9876Z" fill="#E8E8E8"/>
<path opacity="0.24" d="M245.017 86.9876C193.264 57.1114 139.852 57.1114 88.0802 86.9876C62.2035 101.935 49.2651 117.103 49.2651 132.29C49.2651 147.477 62.2035 162.646 88.0802 177.593C139.834 207.469 193.246 207.469 245.017 177.593C270.894 162.646 283.833 147.477 283.833 132.29C283.833 117.103 270.894 101.935 245.017 86.9876Z" fill="#E5E5E5"/>
<path opacity="0.27" d="M243.045 86.9876C191.292 57.1114 137.88 57.1114 86.108 86.9876C60.2313 101.935 47.293 117.103 47.293 132.29C47.293 147.477 60.2313 162.646 86.108 177.593C137.861 207.469 191.274 207.469 243.045 177.593C268.922 162.646 281.86 147.477 281.86 132.29C281.86 117.103 268.922 101.935 243.045 86.9876Z" fill="#E2E2E2"/>
<path opacity="0.3" d="M241.073 86.9876C189.32 57.1114 135.908 57.1114 84.1358 86.9876C58.2591 101.935 45.3208 117.103 45.3208 132.29C45.3208 147.477 58.2591 162.646 84.1358 177.593C135.889 207.469 189.301 207.469 241.073 177.593C266.95 162.646 279.888 147.477 279.888 132.29C279.888 117.103 266.95 101.935 241.073 86.9876Z" fill="#DFDFDF"/>
<path opacity="0.33" d="M239.101 86.9876C187.348 57.1114 133.936 57.1114 82.1641 86.9876C56.2875 101.935 43.3491 117.103 43.3491 132.29C43.3491 147.477 56.2875 162.646 82.1641 177.593C133.918 207.469 187.33 207.469 239.101 177.593C264.978 162.646 277.916 147.477 277.916 132.29C277.916 117.103 264.978 101.935 239.101 86.9876Z" fill="#DBDBDB"/>
<path opacity="0.36" d="M237.129 86.9876C185.376 57.1114 131.964 57.1114 80.192 86.9876C54.3153 101.935 41.377 117.103 41.377 132.29C41.377 147.477 54.3153 162.646 80.192 177.593C131.945 207.469 185.357 207.469 237.129 177.593C263.006 162.646 275.944 147.477 275.944 132.29C275.944 117.103 263.006 101.935 237.129 86.9876Z" fill="#D8D8D8"/>
<path opacity="0.39" d="M235.157 86.9876C183.404 57.1114 129.992 57.1114 78.2198 86.9876C52.3431 101.935 39.4048 117.103 39.4048 132.29C39.4048 147.477 52.3431 162.646 78.2198 177.593C129.973 207.469 183.385 207.469 235.157 177.593C261.034 162.646 273.972 147.477 273.972 132.29C273.972 117.103 261.034 101.935 235.157 86.9876Z" fill="#D5D5D5"/>
<path opacity="0.42" d="M233.203 86.9876C181.45 57.1114 128.038 57.1114 76.2662 86.9876C50.3895 101.935 37.4512 117.103 37.4512 132.29C37.4512 147.477 50.3895 162.646 76.2662 177.593C128.02 207.469 181.432 207.469 233.203 177.593C259.08 162.646 272.018 147.477 272.018 132.29C272.018 117.103 259.08 101.935 233.203 86.9876Z" fill="#D2D2D2"/>
<path opacity="0.45" d="M231.231 86.9876C179.478 57.1114 126.066 57.1114 74.294 86.9876C48.4173 101.935 35.479 117.103 35.479 132.29C35.479 147.477 48.4173 162.646 74.294 177.593C126.047 207.469 179.46 207.469 231.231 177.593C257.108 162.646 270.046 147.477 270.046 132.29C270.046 117.103 257.108 101.935 231.231 86.9876Z" fill="#CECECE"/>
<path opacity="0.48" d="M229.259 86.9876C177.506 57.1114 124.094 57.1114 72.3219 86.9876C46.4452 101.935 33.5068 117.103 33.5068 132.29C33.5068 147.477 46.4452 162.646 72.3219 177.593C124.075 207.469 177.487 207.469 229.259 177.593C255.136 162.646 268.074 147.477 268.074 132.29C268.074 117.103 255.136 101.935 229.259 86.9876Z" fill="#CBCBCB"/>
<path opacity="0.52" d="M227.287 86.9876C175.534 57.1114 122.121 57.1114 70.3497 86.9876C44.473 101.935 31.5347 117.103 31.5347 132.29C31.5347 147.477 44.473 162.646 70.3497 177.593C122.103 207.469 175.515 207.469 227.287 177.593C253.164 162.646 266.102 147.477 266.102 132.29C266.102 117.103 253.164 101.935 227.287 86.9876Z" fill="#C8C8C8"/>
<path opacity="0.55" d="M225.315 86.9876C173.562 57.1114 120.15 57.1114 68.378 86.9876C42.5013 101.935 29.563 117.103 29.563 132.29C29.563 147.477 42.5013 162.646 68.378 177.593C120.131 207.469 173.544 207.469 225.315 177.593C251.192 162.646 264.13 147.477 264.13 132.29C264.13 117.103 251.192 101.935 225.315 86.9876Z" fill="#C5C5C5"/>
<path opacity="0.58" d="M223.343 86.9876C171.59 57.1114 118.178 57.1114 66.4058 86.9876C40.5292 101.935 27.5908 117.103 27.5908 132.29C27.5908 147.477 40.5292 162.646 66.4058 177.593C118.159 207.469 171.571 207.469 223.343 177.593C249.22 162.646 262.158 147.477 262.158 132.29C262.158 117.103 249.22 101.935 223.343 86.9876Z" fill="#C1C1C1"/>
<path opacity="0.61" d="M221.371 86.9876C169.618 57.1114 116.206 57.1114 64.4338 86.9876C38.5571 101.935 25.6187 117.103 25.6187 132.29C25.6187 147.477 38.5571 162.646 64.4338 177.593C116.187 207.469 169.599 207.469 221.371 177.593C247.248 162.646 260.186 147.477 260.186 132.29C260.186 117.103 247.248 101.935 221.371 86.9876Z" fill="#BEBEBE"/>
<path opacity="0.64" d="M219.399 86.9876C167.645 57.1114 114.233 57.1114 62.4615 86.9876C36.5848 101.935 23.6465 117.103 23.6465 132.29C23.6465 147.477 36.5848 162.646 62.4615 177.593C114.215 207.469 167.627 207.469 219.399 177.593C245.275 162.646 258.214 147.477 258.214 132.29C258.214 117.103 245.275 101.935 219.399 86.9876Z" fill="#BBBBBB"/>
<path opacity="0.67" d="M217.427 86.9876C165.673 57.1114 112.261 57.1114 60.4893 86.9876C34.6127 101.935 21.6743 117.103 21.6743 132.29C21.6743 147.477 34.6127 162.646 60.4893 177.593C112.243 207.469 165.655 207.469 217.427 177.593C243.303 162.646 256.242 147.477 256.242 132.29C256.242 117.103 243.303 101.935 217.427 86.9876Z" fill="#B8B8B8"/>
<path opacity="0.7" d="M215.455 86.9876C163.702 57.1114 110.289 57.1114 58.5177 86.9876C32.641 101.935 19.7026 117.103 19.7026 132.29C19.7026 147.477 32.641 162.646 58.5177 177.593C110.271 207.469 163.683 207.469 215.455 177.593C241.332 162.646 254.27 147.477 254.27 132.29C254.27 117.103 241.332 101.935 215.455 86.9876Z" fill="#B4B4B4"/>
<path opacity="0.73" d="M213.483 86.9876C161.729 57.1114 108.317 57.1114 56.5455 86.9876C30.6688 101.935 17.7305 117.103 17.7305 132.29C17.7305 147.477 30.6688 162.646 56.5455 177.593C108.299 207.469 161.711 207.469 213.483 177.593C239.359 162.646 252.298 147.477 252.298 132.29C252.298 117.103 239.359 101.935 213.483 86.9876Z" fill="#B1B1B1"/>
<path opacity="0.76" d="M211.511 86.9876C159.757 57.1114 106.345 57.1114 54.5733 86.9876C28.6966 101.935 15.7583 117.103 15.7583 132.29C15.7583 147.477 28.6966 162.646 54.5733 177.593C106.327 207.469 159.739 207.469 211.511 177.593C237.387 162.646 250.326 147.477 250.326 132.29C250.326 117.103 237.387 101.935 211.511 86.9876Z" fill="#AEAEAE"/>
<path opacity="0.79" d="M209.538 86.9876C157.785 57.1114 104.373 57.1114 52.6012 86.9876C26.7245 101.935 13.7861 117.103 13.7861 132.29C13.7861 147.477 26.7245 162.646 52.6012 177.593C104.355 207.469 157.767 207.469 209.538 177.593C235.415 162.646 248.354 147.477 248.354 132.29C248.354 117.103 235.415 101.935 209.538 86.9876Z" fill="#ABABAB"/>
<path opacity="0.82" d="M207.566 86.9876C155.813 57.1114 102.401 57.1114 50.629 86.9876C24.7523 101.935 11.814 117.103 11.814 132.29C11.814 147.477 24.7523 162.646 50.629 177.593C102.382 207.469 155.795 207.469 207.566 177.593C233.443 162.646 246.381 147.477 246.381 132.29C246.381 117.103 233.443 101.935 207.566 86.9876Z" fill="#A7A7A7"/>
<path opacity="0.85" d="M205.613 86.9876C153.859 57.1114 100.447 57.1114 48.6754 86.9876C22.7987 101.935 9.86035 117.103 9.86035 132.29C9.86035 147.477 22.7987 162.646 48.6754 177.593C100.429 207.469 153.841 207.469 205.613 177.593C231.489 162.646 244.428 147.477 244.428 132.29C244.428 117.103 231.489 101.935 205.613 86.9876Z" fill="#A4A4A4"/>
<path opacity="0.88" d="M203.641 86.9876C151.887 57.1114 98.475 57.1114 46.7032 86.9876C20.8265 101.935 7.88818 117.103 7.88818 132.29C7.88818 147.477 20.8265 162.646 46.7032 177.593C98.4566 207.469 151.869 207.469 203.641 177.593C229.517 162.646 242.456 147.477 242.456 132.29C242.456 117.103 229.517 101.935 203.641 86.9876Z" fill="#A1A1A1"/>
<path opacity="0.91" d="M201.669 86.9876C149.915 57.1114 96.5033 57.1114 44.7315 86.9876C18.8548 101.935 5.9165 117.103 5.9165 132.29C5.9165 147.477 18.8548 162.646 44.7315 177.593C96.4849 207.469 149.897 207.469 201.669 177.593C227.545 162.646 240.484 147.477 240.484 132.29C240.484 117.103 227.545 101.935 201.669 86.9876Z" fill="#9E9E9E"/>
<path opacity="0.94" d="M199.697 86.9876C147.943 57.1114 94.5312 57.1114 42.7594 86.9876C16.8827 101.935 3.94434 117.103 3.94434 132.29C3.94434 147.477 16.8827 162.646 42.7594 177.593C94.5127 207.469 147.925 207.469 199.697 177.593C225.573 162.646 238.512 147.477 238.512 132.29C238.512 117.103 225.573 101.935 199.697 86.9876Z" fill="#9A9A9A"/>
<path opacity="0.97" d="M197.724 86.9876C145.971 57.1114 92.559 57.1114 40.7872 86.9876C14.9105 101.935 1.97217 117.103 1.97217 132.29C1.97217 147.477 14.9105 162.646 40.7872 177.593C92.5406 207.469 145.953 207.469 197.724 177.593C223.601 162.646 236.539 147.477 236.539 132.29C236.539 117.103 223.601 101.935 197.724 86.9876Z" fill="#979797"/>
<path d="M195.752 86.9876C143.999 57.1115 90.5868 57.1115 38.815 86.9876C12.9383 101.935 0 117.103 0 132.29C0 147.477 12.9383 162.646 38.815 177.593C90.5684 207.469 143.981 207.469 195.752 177.593C221.629 162.646 234.567 147.477 234.567 132.29C234.567 117.103 221.629 101.935 195.752 86.9876Z" fill="#949494"/>
</g>
<path d="M195.752 154.978C143.999 184.855 90.5868 184.855 38.815 154.978C12.9383 140.031 0 124.863 0 109.676V132.29C0 147.477 12.9383 162.646 38.815 177.593C90.5684 207.469 143.981 207.469 195.752 177.593C221.629 162.646 234.567 147.477 234.567 132.29V109.676C234.567 124.863 221.629 140.031 195.752 154.978Z" fill="url(#paint0_linear_3026_15212)"/>
<path d="M195.752 64.3731C143.999 34.497 90.5868 34.497 38.815 64.3731C12.9383 79.3204 0 94.4889 0 109.676C0 124.863 12.9383 140.031 38.815 154.978C90.5684 184.855 143.981 184.855 195.752 154.978C221.629 140.031 234.567 124.863 234.567 109.676C234.567 94.4889 221.629 79.3204 195.752 64.3731Z" fill="#0059AD"/>
<mask id="mask0_3026_15212" style="mask-type:luminance" maskUnits="userSpaceOnUse" x="0" y="41" width="235" height="137">
<path d="M195.752 64.3731C143.999 34.497 90.5868 34.497 38.815 64.3731C12.9383 79.3204 0 94.4889 0 109.676C0 124.863 12.9383 140.031 38.815 154.978C90.5684 184.855 143.981 184.855 195.752 154.978C221.629 140.031 234.567 124.863 234.567 109.676C234.567 94.4889 221.629 79.3204 195.752 64.3731Z" fill="white"/>
</mask>
<g mask="url(#mask0_3026_15212)">
<g style="mix-blend-mode:multiply">
<path opacity="0.03" d="M281.529 29.06L307.535 14.039L253.92 24.4523V27.2906L266.342 29.6129L252.242 37.7592C243.469 24.9315 232.54 13.9653 220.652 7.09062C206.276 -1.20319 193.264 -1.99573 183.846 3.44132L164.402 14.6656C154.984 20.1027 149.16 31.7693 149.16 48.3753C149.16 61.3505 152.754 75.4132 158.817 88.7201L109.386 98.3225V101.714L136.129 106.745L135.152 107.317C134.12 107.906 133.494 109.178 133.494 110.984C133.494 114.597 136.037 118.983 139.152 120.79C140.718 121.693 142.138 121.785 143.151 121.177L153.638 115.113L163.775 133.12L174.557 114.615C182.353 124.494 191.44 132.88 201.189 138.52C215.565 146.814 228.578 147.606 237.996 142.169L257.44 130.945C266.858 125.508 272.682 113.841 272.682 97.2536C272.682 82.509 268.074 66.3637 260.444 51.5086L282.008 39.0494C282.358 38.8467 282.653 38.5333 282.911 38.1647L289.472 49.8129L307.516 18.8678V14.039L281.51 29.06H281.529Z" fill="#F9FAFC"/>
<path opacity="0.06" d="M278.58 29.06L304.585 14.039L250.97 24.4523V27.2906L263.393 29.6129L249.293 37.7592C240.52 24.9315 229.591 13.9653 217.703 7.09062C203.327 -1.20319 190.315 -1.99573 180.897 3.44132L161.453 14.6656C152.034 20.1027 146.21 31.7693 146.21 48.3753C146.21 61.3505 149.804 75.4132 155.868 88.7201L106.437 98.3225V101.714L133.18 106.745L132.203 107.317C131.171 107.906 130.544 109.178 130.544 110.984C130.544 114.597 133.088 118.983 136.202 120.79C137.769 121.693 139.188 121.785 140.202 121.177L150.689 115.113L160.826 133.12L171.608 114.615C179.404 124.494 188.49 132.88 198.24 138.52C212.616 146.814 225.628 147.606 235.046 142.169L254.491 130.945C263.909 125.508 269.733 113.841 269.733 97.2536C269.733 82.509 265.125 66.3637 257.495 51.5086L279.059 39.0494C279.409 38.8467 279.704 38.5333 279.962 38.1647L286.523 49.8129L304.567 18.8678V14.039L278.561 29.06H278.58Z" fill="#F3F6F9"/>
<path opacity="0.09" d="M275.612 29.06L301.618 14.039L248.003 24.4523V27.2906L260.425 29.6129L246.326 37.7592C237.553 24.9315 226.624 13.9653 214.736 7.09062C200.36 -1.20319 187.348 -1.99573 177.93 3.44132L158.485 14.6656C149.067 20.1027 143.243 31.7693 143.243 48.3753C143.243 61.3505 146.837 75.4132 152.901 88.7201L103.47 98.3225V101.714L130.213 106.745L129.236 107.317C128.204 107.906 127.577 109.178 127.577 110.984C127.577 114.597 130.12 118.983 133.235 120.79C134.802 121.693 136.221 121.785 137.235 121.177L147.722 115.113L157.859 133.12L168.641 114.615C176.437 124.494 185.523 132.88 195.273 138.52C209.649 146.814 222.661 147.606 232.079 142.169L251.523 130.945C260.941 125.508 266.766 113.841 266.766 97.2536C266.766 82.509 262.158 66.3637 254.528 51.5086L276.091 39.0494C276.442 38.8467 276.737 38.5333 276.995 38.1647L283.556 49.8129L301.6 18.8678V14.039L275.594 29.06H275.612Z" fill="#EDF1F5"/>
<path opacity="0.12" d="M272.664 29.06L298.669 14.039L245.055 24.4523V27.2906L257.477 29.6129L243.377 37.7592C234.604 24.9315 223.675 13.9653 211.787 7.09062C197.411 -1.20319 184.399 -1.99573 174.981 3.44132L155.537 14.6656C146.119 20.1027 140.294 31.7693 140.294 48.3753C140.294 61.3505 143.888 75.4132 149.952 88.7201L100.521 98.3225V101.714L127.264 106.745L126.287 107.317C125.255 107.906 124.628 109.178 124.628 110.984C124.628 114.597 127.172 118.983 130.287 120.79C131.853 121.693 133.272 121.785 134.286 121.177L144.773 115.113L154.91 133.12L165.692 114.615C173.488 124.494 182.574 132.88 192.324 138.52C206.7 146.814 219.712 147.606 229.13 142.169L248.575 130.945C257.993 125.508 263.817 113.841 263.817 97.2536C263.817 82.509 259.209 66.3637 251.579 51.5086L273.143 39.0494C273.493 38.8467 273.788 38.5333 274.046 38.1647L280.607 49.8129L298.651 18.8678V14.039L272.645 29.06H272.664Z" fill="#E7EDF2"/>
<path opacity="0.15" d="M269.715 29.06L295.721 14.039L242.106 24.4523V27.2906L254.528 29.6129L240.429 37.7592C231.656 24.9315 220.726 13.9653 208.838 7.09062C194.462 -1.20319 181.45 -1.99573 172.032 3.44132L152.588 14.6656C143.17 20.1027 137.346 31.7693 137.346 48.3753C137.346 61.3505 140.94 75.4132 147.003 88.7201L97.5723 98.3225V101.714L124.315 106.745L123.338 107.317C122.306 107.906 121.68 109.178 121.68 110.984C121.68 114.597 124.223 118.983 127.338 120.79C128.904 121.693 130.324 121.785 131.337 121.177L141.824 115.113L151.961 133.12L162.743 114.615C170.539 124.494 179.626 132.88 189.376 138.52C203.751 146.814 216.763 147.606 226.182 142.169L245.626 130.945C255.044 125.508 260.868 113.841 260.868 97.2536C260.868 82.509 256.26 66.3637 248.63 51.5086L270.194 39.0494C270.544 38.8467 270.839 38.5333 271.097 38.1647L277.658 49.8129L295.702 18.8678V14.039L269.696 29.06H269.715Z" fill="#E1E8EF"/>
<path opacity="0.18" d="M266.748 29.06L292.753 14.039L239.138 24.4523V27.2906L251.561 29.6129L237.461 37.7592C228.688 24.9315 217.759 13.9653 205.871 7.09062C191.495 -1.20319 178.483 -1.99573 169.065 3.44132L149.621 14.6656C140.202 20.1027 134.378 31.7693 134.378 48.3753C134.378 61.3505 137.972 75.4132 144.036 88.7201L94.605 98.3225V101.714L121.348 106.745L120.371 107.317C119.339 107.906 118.712 109.178 118.712 110.984C118.712 114.597 121.256 118.983 124.37 120.79C125.937 121.693 127.356 121.785 128.37 121.177L138.857 115.113L148.994 133.12L159.776 114.615C167.572 124.494 176.658 132.88 186.408 138.52C200.784 146.814 213.796 147.606 223.214 142.169L242.659 130.945C252.077 125.508 257.901 113.841 257.901 97.2536C257.901 82.509 253.293 66.3637 245.663 51.5086L267.227 39.0494C267.577 38.8467 267.872 38.5333 268.13 38.1647L274.691 49.8129L292.735 18.8678V14.039L266.729 29.06H266.748Z" fill="#DBE4EC"/>
<path opacity="0.21" d="M263.798 29.06L289.804 14.039L236.189 24.4523V27.2906L248.612 29.6129L234.512 37.7592C225.739 24.9315 214.81 13.9653 202.922 7.09062C188.546 -1.20319 175.534 -1.99573 166.116 3.44132L146.671 14.6656C137.253 20.1027 131.429 31.7693 131.429 48.3753C131.429 61.3505 135.023 75.4132 141.087 88.7201L91.6558 98.3225V101.714L118.399 106.745L117.422 107.317C116.39 107.906 115.763 109.178 115.763 110.984C115.763 114.597 118.307 118.983 121.421 120.79C122.988 121.693 124.407 121.785 125.421 121.177L135.908 115.113L146.045 133.12L156.827 114.615C164.623 124.494 173.709 132.88 183.459 138.52C197.835 146.814 210.847 147.606 220.265 142.169L239.709 130.945C249.128 125.508 254.952 113.841 254.952 97.2536C254.952 82.509 250.344 66.3637 242.714 51.5086L264.278 39.0494C264.628 38.8467 264.923 38.5333 265.181 38.1647L271.742 49.8129L289.786 18.8678V14.039L263.78 29.06H263.798Z" fill="#D5DFE8"/>
<path opacity="0.24" d="M260.831 29.06L286.837 14.039L233.222 24.4523V27.2906L245.644 29.6129L231.545 37.7592C222.772 24.9315 211.842 13.9653 199.955 7.09062C185.579 -1.20319 172.567 -1.99573 163.148 3.44132L143.704 14.6656C134.286 20.1027 128.462 31.7693 128.462 48.3753C128.462 61.3505 132.056 75.4132 138.12 88.7201L88.6885 98.3225V101.714L115.431 106.745L114.455 107.317C113.422 107.906 112.796 109.178 112.796 110.984C112.796 114.597 115.339 118.983 118.454 120.79C120.021 121.693 121.44 121.785 122.454 121.177L132.941 115.113L143.077 133.12L153.859 114.615C161.656 124.494 170.742 132.88 180.492 138.52C194.868 146.814 207.88 147.606 217.298 142.169L236.742 130.945C246.16 125.508 251.984 113.841 251.984 97.2536C251.984 82.509 247.377 66.3637 239.746 51.5086L261.31 39.0494C261.66 38.8467 261.955 38.5333 262.213 38.1647L268.775 49.8129L286.818 18.8678V14.039L260.813 29.06H260.831Z" fill="#CFDAE5"/>
<path opacity="0.27" d="M257.882 29.06L283.888 14.039L230.273 24.4523V27.2906L242.695 29.6129L228.596 37.7592C219.823 24.9315 208.894 13.9653 197.006 7.09062C182.63 -1.20319 169.618 -1.99573 160.2 3.44132L140.755 14.6656C131.337 20.1027 125.513 31.7693 125.513 48.3753C125.513 61.3505 129.107 75.4132 135.171 88.7201L85.7397 98.3225V101.714L112.483 106.745L111.506 107.317C110.474 107.906 109.847 109.178 109.847 110.984C109.847 114.597 112.39 118.983 115.505 120.79C117.072 121.693 118.491 121.785 119.505 121.177L129.992 115.113L140.129 133.12L150.911 114.615C158.707 124.494 167.793 132.88 177.543 138.52C191.919 146.814 204.931 147.606 214.349 142.169L233.793 130.945C243.211 125.508 249.036 113.841 249.036 97.2536C249.036 82.509 244.428 66.3637 236.798 51.5086L258.361 39.0494C258.712 38.8467 259.007 38.5333 259.265 38.1647L265.826 49.8129L283.87 18.8678V14.039L257.864 29.06H257.882Z" fill="#C9D6E2"/>
<path opacity="0.3" d="M254.933 29.06L280.939 14.039L227.324 24.4523V27.2906L239.746 29.6129L225.647 37.7592C216.874 24.9315 205.944 13.9653 194.057 7.09062C179.681 -1.20319 166.669 -1.99573 157.251 3.44132L137.806 14.6656C128.388 20.1027 122.564 31.7693 122.564 48.3753C122.564 61.3505 126.158 75.4132 132.222 88.7201L82.7905 98.3225V101.714L109.533 106.745L108.557 107.317C107.524 107.906 106.898 109.178 106.898 110.984C106.898 114.597 109.441 118.983 112.556 120.79C114.123 121.693 115.542 121.785 116.556 121.177L127.043 115.113L137.179 133.12L147.961 114.615C155.758 124.494 164.844 132.88 174.594 138.52C188.97 146.814 201.982 147.606 211.4 142.169L230.844 130.945C240.262 125.508 246.086 113.841 246.086 97.2536C246.086 82.509 241.479 66.3637 233.848 51.5086L255.412 39.0494C255.763 38.8467 256.057 38.5333 256.315 38.1647L262.877 49.8129L280.92 18.8678V14.039L254.915 29.06H254.933Z" fill="#C3D1DF"/>
<path opacity="0.33" d="M251.966 29.06L277.972 14.039L224.357 24.4523V27.2906L236.779 29.6129L222.68 37.7592C213.906 24.9315 202.977 13.9653 191.089 7.09062C176.713 -1.20319 163.701 -1.99573 154.283 3.44132L134.839 14.6656C125.421 20.1027 119.597 31.7693 119.597 48.3753C119.597 61.3505 123.191 75.4132 129.254 88.7201L79.8232 98.3225V101.714L106.566 106.745L105.589 107.317C104.557 107.906 103.931 109.178 103.931 110.984C103.931 114.597 106.474 118.983 109.589 120.79C111.155 121.693 112.575 121.785 113.588 121.177L124.075 115.113L134.212 133.12L144.994 114.615C152.79 124.494 161.877 132.88 171.626 138.52C186.002 146.814 199.014 147.606 208.432 142.169L227.877 130.945C237.295 125.508 243.119 113.841 243.119 97.2536C243.119 82.509 238.511 66.3637 230.881 51.5086L252.445 39.0494C252.795 38.8467 253.09 38.5333 253.348 38.1647L259.91 49.8129L277.953 18.8678V14.039L251.947 29.06H251.966Z" fill="#BDCDDB"/>
<path opacity="0.36" d="M249.017 29.06L275.023 14.039L221.408 24.4523V27.2906L233.83 29.6129L219.731 37.7592C210.958 24.9315 200.028 13.9653 188.141 7.09062C173.765 -1.20319 160.752 -1.99573 151.334 3.44132L131.89 14.6656C122.472 20.1027 116.648 31.7693 116.648 48.3753C116.648 61.3505 120.242 75.4132 126.306 88.7201L76.8745 98.3225V101.714L103.617 106.745L102.641 107.317C101.608 107.906 100.982 109.178 100.982 110.984C100.982 114.597 103.525 118.983 106.64 120.79C108.207 121.693 109.626 121.785 110.639 121.177L121.126 115.113L131.263 133.12L142.045 114.615C149.842 124.494 158.928 132.88 168.678 138.52C183.054 146.814 196.066 147.606 205.484 142.169L224.928 130.945C234.346 125.508 240.17 113.841 240.17 97.2536C240.17 82.509 235.563 66.3637 227.932 51.5086L249.496 39.0494C249.846 38.8467 250.141 38.5333 250.399 38.1647L256.961 49.8129L275.004 18.8678V14.039L248.999 29.06H249.017Z" fill="#B7C8D8"/>
<path opacity="0.39" d="M246.05 29.06L272.056 14.039L218.441 24.4523V27.2906L230.863 29.6129L216.763 37.7592C207.99 24.9315 197.061 13.9653 185.173 7.09062C170.797 -1.20319 157.785 -1.99573 148.367 3.44132L128.923 14.6656C119.505 20.1027 113.681 31.7693 113.681 48.3753C113.681 61.3505 117.275 75.4132 123.338 88.7201L73.9072 98.3225V101.714L100.65 106.745L99.6734 107.317C98.6413 107.906 98.0146 109.178 98.0146 110.984C98.0146 114.597 100.558 118.983 103.673 120.79C105.239 121.693 106.659 121.785 107.672 121.177L118.159 115.113L128.296 133.12L139.078 114.615C146.874 124.494 155.961 132.88 165.71 138.52C180.086 146.814 193.099 147.606 202.517 142.169L221.961 130.945C231.379 125.508 237.203 113.841 237.203 97.2536C237.203 82.509 232.595 66.3637 224.965 51.5086L246.529 39.0494C246.879 38.8467 247.174 38.5333 247.432 38.1647L253.993 49.8129L272.037 18.8678V14.039L246.031 29.06H246.05Z" fill="#B1C4D5"/>
<path opacity="0.42" d="M243.101 29.06L269.106 14.039L215.491 24.4523V27.2906L227.914 29.6129L213.814 37.7592C205.041 24.9315 194.112 13.9653 182.224 7.09062C167.848 -1.20319 154.836 -1.99573 145.418 3.44132L125.974 14.6656C116.555 20.1027 110.731 31.7693 110.731 48.3753C110.731 61.3505 114.325 75.4132 120.389 88.7201L70.958 98.3225V101.714L97.7009 106.745L96.7241 107.317C95.692 107.906 95.0654 109.178 95.0654 110.984C95.0654 114.597 97.6087 118.983 100.723 120.79C102.29 121.693 103.709 121.785 104.723 121.177L115.21 115.113L125.347 133.12L136.129 114.615C143.925 124.494 153.011 132.88 162.761 138.52C177.137 146.814 190.149 147.606 199.567 142.169L219.012 130.945C228.43 125.508 234.254 113.841 234.254 97.2536C234.254 82.509 229.646 66.3637 222.016 51.5086L243.58 39.0494C243.93 38.8467 244.225 38.5333 244.483 38.1647L251.044 49.8129L269.088 18.8678V14.039L243.082 29.06H243.101Z" fill="#ABBFD2"/>
<path opacity="0.45" d="M240.152 29.06L266.158 14.039L212.543 24.4523V27.2906L224.965 29.6129L210.866 37.7592C202.093 24.9315 191.163 13.9653 179.275 7.09062C164.899 -1.20319 151.887 -1.99573 142.469 3.44132L123.025 14.6656C113.607 20.1027 107.783 31.7693 107.783 48.3753C107.783 61.3505 111.377 75.4132 117.44 88.7201L68.0093 98.3225V101.714L94.7522 106.745L93.7755 107.317C92.7433 107.906 92.1166 109.178 92.1166 110.984C92.1166 114.597 94.6601 118.983 97.7749 120.79C99.3415 121.693 100.761 121.785 101.774 121.177L112.261 115.113L122.398 133.12L133.18 114.615C140.976 124.494 150.063 132.88 159.813 138.52C174.189 146.814 187.201 147.606 196.619 142.169L216.063 130.945C225.481 125.508 231.305 113.841 231.305 97.2536C231.305 82.509 226.698 66.3637 219.067 51.5086L240.631 39.0494C240.981 38.8467 241.276 38.5333 241.534 38.1647L248.096 49.8129L266.139 18.8678V14.039L240.133 29.06H240.152Z" fill="#A5BACE"/>
<path opacity="0.48" d="M237.185 29.06L263.19 14.039L209.576 24.4523V27.2906L221.998 29.6129L207.898 37.7592C199.125 24.9315 188.196 13.9653 176.308 7.09062C161.932 -1.20319 148.92 -1.99573 139.502 3.44132L120.058 14.6656C110.64 20.1027 104.815 31.7693 104.815 48.3753C104.815 61.3505 108.409 75.4132 114.473 88.7201L65.042 98.3225V101.714L91.7849 106.745L90.8082 107.317C89.776 107.906 89.1494 109.178 89.1494 110.984C89.1494 114.597 91.6928 118.983 94.8076 120.79C96.3742 121.693 97.7933 121.785 98.807 121.177L109.294 115.113L119.431 133.12L130.213 114.615C138.009 124.494 147.095 132.88 156.845 138.52C171.221 146.814 184.233 147.606 193.651 142.169L213.096 130.945C222.514 125.508 228.338 113.841 228.338 97.2536C228.338 82.509 223.73 66.3637 216.1 51.5086L237.664 39.0494C238.014 38.8467 238.309 38.5333 238.567 38.1647L245.128 49.8129L263.172 18.8678V14.039L237.166 29.06H237.185Z" fill="#9FB6CB"/>
<path opacity="0.52" d="M234.235 29.06L260.241 14.039L206.626 24.4523V27.2906L219.048 29.6129L204.949 37.7592C196.176 24.9315 185.247 13.9653 173.359 7.09062C158.983 -1.20319 145.971 -1.99573 136.553 3.44132L117.108 14.6656C107.69 20.1027 101.866 31.7693 101.866 48.3753C101.866 61.3505 105.46 75.4132 111.524 88.7201L62.0928 98.3225V101.714L88.8357 106.745L87.8588 107.317C86.8267 107.906 86.2001 109.178 86.2001 110.984C86.2001 114.597 88.7435 118.983 91.8583 120.79C93.4249 121.693 94.8441 121.785 95.8578 121.177L106.345 115.113L116.482 133.12L127.264 114.615C135.06 124.494 144.146 132.88 153.896 138.52C168.272 146.814 181.284 147.606 190.702 142.169L210.146 130.945C219.565 125.508 225.389 113.841 225.389 97.2536C225.389 82.509 220.781 66.3637 213.151 51.5086L234.715 39.0494C235.065 38.8467 235.36 38.5333 235.618 38.1647L242.179 49.8129L260.223 18.8678V14.039L234.217 29.06H234.235Z" fill="#9AB1C8"/>
<path opacity="0.55" d="M231.268 29.06L257.274 14.039L203.659 24.4523V27.2906L216.081 29.6129L201.982 37.7592C193.209 24.9315 182.279 13.9653 170.392 7.09062C156.016 -1.20319 143.003 -1.99573 133.585 3.44132L114.141 14.6656C104.723 20.1027 98.8988 31.7693 98.8988 48.3753C98.8988 61.3505 102.493 75.4132 108.556 88.7201L59.1255 98.3225V101.714L85.8683 106.745L84.8916 107.317C83.8594 107.906 83.2327 109.178 83.2327 110.984C83.2327 114.597 85.7762 118.983 88.891 120.79C90.4576 121.693 91.8767 121.785 92.8904 121.177L103.377 115.113L113.514 133.12L124.296 114.615C132.093 124.494 141.179 132.88 150.929 138.52C165.305 146.814 178.317 147.606 187.735 142.169L207.179 130.945C216.597 125.508 222.421 113.841 222.421 97.2536C222.421 82.509 217.814 66.3637 210.183 51.5086L231.747 39.0494C232.097 38.8467 232.392 38.5333 232.65 38.1647L239.212 49.8129L257.255 18.8678V14.039L231.25 29.06H231.268Z" fill="#94ADC5"/>
<path opacity="0.58" d="M228.319 29.06L254.325 14.039L200.71 24.4523V27.2906L213.133 29.6129L199.033 37.7592C190.26 24.9315 179.331 13.9653 167.443 7.09062C153.067 -1.20319 140.055 -1.99573 130.637 3.44132L111.192 14.6656C101.774 20.1027 95.9502 31.7693 95.9502 48.3753C95.9502 61.3505 99.5442 75.4132 105.608 88.7201L56.1768 98.3225V101.714L82.9197 106.745L81.9429 107.317C80.9108 107.906 80.2841 109.178 80.2841 110.984C80.2841 114.597 82.8276 118.983 85.9424 120.79C87.509 121.693 88.9281 121.785 89.9418 121.177L100.429 115.113L110.566 133.12L121.348 114.615C129.144 124.494 138.23 132.88 147.98 138.52C162.356 146.814 175.368 147.606 184.786 142.169L204.23 130.945C213.649 125.508 219.473 113.841 219.473 97.2536C219.473 82.509 214.865 66.3637 207.235 51.5086L228.799 39.0494C229.149 38.8467 229.444 38.5333 229.702 38.1647L236.263 49.8129L254.307 18.8678V14.039L228.301 29.06H228.319Z" fill="#8EA8C1"/>
<path opacity="0.61" d="M225.371 29.06L251.376 14.039L197.761 24.4523V27.2906L210.184 29.6129L196.084 37.7592C187.311 24.9315 176.382 13.9653 164.494 7.09062C150.118 -1.20319 137.106 -1.99573 127.688 3.44132L108.244 14.6656C98.8255 20.1027 93.0015 31.7693 93.0015 48.3753C93.0015 61.3505 96.5954 75.4132 102.659 88.7201L53.228 98.3225V101.714L79.971 106.745L78.9941 107.317C77.962 107.906 77.3354 109.178 77.3354 110.984C77.3354 114.597 79.8787 118.983 82.9935 120.79C84.5601 121.693 85.9794 121.785 86.9931 121.177L97.4801 115.113L107.617 133.12L118.399 114.615C126.195 124.494 135.281 132.88 145.031 138.52C159.407 146.814 172.419 147.606 181.837 142.169L201.282 130.945C210.7 125.508 216.524 113.841 216.524 97.2536C216.524 82.509 211.916 66.3637 204.286 51.5086L225.85 39.0494C226.2 38.8467 226.495 38.5333 226.753 38.1647L233.314 49.8129L251.358 18.8678V14.039L225.352 29.06H225.371Z" fill="#88A3BE"/>
<path opacity="0.64" d="M222.403 29.06L248.409 14.039L194.794 24.4523V27.2906L207.216 29.6129L193.117 37.7592C184.344 24.9315 173.415 13.9653 161.527 7.09062C147.151 -1.20319 134.139 -1.99573 124.721 3.44132L105.276 14.6656C95.8582 20.1027 90.0341 31.7693 90.0341 48.3753C90.0341 61.3505 93.628 75.4132 99.6917 88.7201L50.2607 98.3225V101.714L77.0036 106.745L76.0268 107.317C74.9947 107.906 74.368 109.178 74.368 110.984C74.368 114.597 76.9114 118.983 80.0262 120.79C81.5928 121.693 83.012 121.785 84.0257 121.177L94.5127 115.113L104.65 133.12L115.432 114.615C123.228 124.494 132.314 132.88 142.064 138.52C156.44 146.814 169.452 147.606 178.87 142.169L198.314 130.945C207.732 125.508 213.557 113.841 213.557 97.2536C213.557 82.509 208.949 66.3637 201.319 51.5086L222.882 39.0494C223.233 38.8467 223.528 38.5333 223.786 38.1647L230.347 49.8129L248.391 18.8678V14.039L222.385 29.06H222.403Z" fill="#829FBB"/>
<path opacity="0.67" d="M219.454 29.06L245.46 14.039L191.845 24.4523V27.2906L204.267 29.6129L190.168 37.7592C181.395 24.9315 170.465 13.9653 158.578 7.09062C144.202 -1.20319 131.19 -1.99573 121.772 3.44132L102.327 14.6656C92.9091 20.1027 87.085 31.7693 87.085 48.3753C87.085 61.3505 90.6789 75.4132 96.7426 88.7201L47.3115 98.3225V101.714L74.0545 106.745L73.0776 107.317C72.0455 107.906 71.4189 109.178 71.4189 110.984C71.4189 114.597 73.9623 118.983 77.0771 120.79C78.6437 121.693 80.0629 121.785 81.0766 121.177L91.5636 115.113L101.7 133.12L112.482 114.615C120.279 124.494 129.365 132.88 139.115 138.52C153.491 146.814 166.503 147.606 175.921 142.169L195.365 130.945C204.783 125.508 210.607 113.841 210.607 97.2536C210.607 82.509 206 66.3637 198.369 51.5086L219.933 39.0494C220.284 38.8467 220.578 38.5333 220.836 38.1647L227.398 49.8129L245.441 18.8678V14.039L219.436 29.06H219.454Z" fill="#7C9AB8"/>
<path opacity="0.7" d="M216.487 29.06L242.493 14.039L188.878 24.4523V27.2906L201.3 29.6129L187.201 37.7592C178.427 24.9315 167.498 13.9653 155.61 7.09062C141.234 -1.20319 128.222 -1.99573 118.804 3.44132L99.3598 14.6656C89.9417 20.1027 84.1177 31.7693 84.1177 48.3753C84.1177 61.3505 87.7117 75.4132 93.7753 88.7201L44.3442 98.3225V101.714L71.0872 106.745L70.1103 107.317C69.0782 107.906 68.4516 109.178 68.4516 110.984C68.4516 114.597 70.9951 118.983 74.1098 120.79C75.6764 121.693 77.0956 121.785 78.1093 121.177L88.5963 115.113L98.7332 133.12L109.515 114.615C117.311 124.494 126.398 132.88 136.147 138.52C150.523 146.814 163.535 147.606 172.953 142.169L192.398 130.945C201.816 125.508 207.64 113.841 207.64 97.2536C207.64 82.509 203.032 66.3637 195.402 51.5086L216.966 39.0494C217.316 38.8467 217.611 38.5333 217.869 38.1647L224.43 49.8129L242.474 18.8678V14.039L216.468 29.06H216.487Z" fill="#7696B4"/>
<path opacity="0.73" d="M213.538 29.06L239.544 14.039L185.929 24.4523V27.2906L198.351 29.6129L184.252 37.7592C175.479 24.9315 164.549 13.9653 152.662 7.09062C138.286 -1.20319 125.273 -1.99573 115.855 3.44132L96.4111 14.6656C86.993 20.1027 81.1688 31.7693 81.1688 48.3753C81.1688 61.3505 84.7628 75.4132 90.8265 88.7201L41.3955 98.3225V101.714L68.1383 106.745L67.1616 107.317C66.1295 107.906 65.5028 109.178 65.5028 110.984C65.5028 114.597 68.0462 118.983 71.161 120.79C72.7276 121.693 74.1467 121.785 75.1604 121.177L85.6475 115.113L95.7844 133.12L106.566 114.615C114.363 124.494 123.449 132.88 133.199 138.52C147.575 146.814 160.587 147.606 170.005 142.169L189.449 130.945C198.867 125.508 204.691 113.841 204.691 97.2536C204.691 82.509 200.084 66.3637 192.453 51.5086L214.017 39.0494C214.367 38.8467 214.662 38.5333 214.92 38.1647L221.482 49.8129L239.525 18.8678V14.039L213.52 29.06H213.538Z" fill="#7091B1"/>
<path opacity="0.76" d="M210.589 29.06L236.595 14.039L182.98 24.4523V27.2906L195.402 29.6129L181.303 37.7592C172.53 24.9315 161.6 13.9653 149.712 7.09062C135.336 -1.20319 122.324 -1.99573 112.906 3.44132L93.462 14.6656C84.0439 20.1027 78.2197 31.7693 78.2197 48.3753C78.2197 61.3505 81.8137 75.4132 87.8774 88.7201L38.4463 98.3225V101.714L65.1892 106.745L64.2124 107.317C63.1802 107.906 62.5537 109.178 62.5537 110.984C62.5537 114.597 65.0971 118.983 68.2119 120.79C69.7785 121.693 71.1976 121.785 72.2113 121.177L82.6984 115.113L92.8353 133.12L103.617 114.615C111.413 124.494 120.5 132.88 130.25 138.52C144.625 146.814 157.638 147.606 167.056 142.169L186.5 130.945C195.918 125.508 201.742 113.841 201.742 97.2536C201.742 82.509 197.135 66.3637 189.504 51.5086L211.068 39.0494C211.418 38.8467 211.713 38.5333 211.971 38.1647L218.533 49.8129L236.576 18.8678V14.039L210.57 29.06H210.589Z" fill="#6A8DAE"/>
<path opacity="0.79" d="M207.622 29.06L233.627 14.039L180.012 24.4523V27.2906L192.435 29.6129L178.335 37.7592C169.562 24.9315 158.633 13.9653 146.745 7.09062C132.369 -1.20319 119.357 -1.99573 109.939 3.44132L90.4946 14.6656C81.0765 20.1027 75.2525 31.7693 75.2525 48.3753C75.2525 61.3505 78.8464 75.4132 84.9101 88.7201L35.479 98.3225V101.714L62.2219 106.745L61.2451 107.317C60.2129 107.906 59.5864 109.178 59.5864 110.984C59.5864 114.597 62.1297 118.983 65.2445 120.79C66.8111 121.693 68.2303 121.785 69.244 121.177L79.7311 115.113L89.868 133.12L100.65 114.615C108.446 124.494 117.532 132.88 127.282 138.52C141.658 146.814 154.67 147.606 164.088 142.169L183.533 130.945C192.951 125.508 198.775 113.841 198.775 97.2536C198.775 82.509 194.167 66.3637 186.537 51.5086L208.101 39.0494C208.451 38.8467 208.746 38.5333 209.004 38.1647L215.565 49.8129L233.609 18.8678V14.039L207.603 29.06H207.622Z" fill="#6488AB"/>
<path opacity="0.82" d="M204.673 29.06L230.679 14.039L177.064 24.4523V27.2906L189.486 29.6129L175.387 37.7592C166.614 24.9315 155.684 13.9653 143.796 7.09062C129.42 -1.20319 116.408 -1.99573 106.99 3.44132L87.5459 14.6656C78.1279 20.1027 72.3037 31.7693 72.3037 48.3753C72.3037 61.3505 75.8977 75.4132 81.9614 88.7201L32.5303 98.3225V101.714L59.2732 106.745L58.2964 107.317C57.2643 107.906 56.6376 109.178 56.6376 110.984C56.6376 114.597 59.1811 118.983 62.2959 120.79C63.8625 121.693 65.2816 121.785 66.2953 121.177L76.7824 115.113L86.9192 133.12L97.7013 114.615C105.497 124.494 114.584 132.88 124.334 138.52C138.71 146.814 151.722 147.606 161.14 142.169L180.584 130.945C190.002 125.508 195.826 113.841 195.826 97.2536C195.826 82.509 191.219 66.3637 183.588 51.5086L205.152 39.0494C205.502 38.8467 205.797 38.5333 206.055 38.1647L212.617 49.8129L230.66 18.8678V14.039L204.654 29.06H204.673Z" fill="#5E83A7"/>
<path opacity="0.85" d="M201.706 29.06L227.711 14.039L174.096 24.4523V27.2906L186.519 29.6129L172.419 37.7592C163.646 24.9315 152.717 13.9653 140.829 7.09062C126.453 -1.20319 113.441 -1.99573 104.023 3.44132L84.5787 14.6656C75.1606 20.1027 69.3364 31.7693 69.3364 48.3753C69.3364 61.3505 72.9304 75.4132 78.9941 88.7201L29.563 98.3225V101.714L56.3059 106.745L55.3292 107.317C54.297 107.906 53.6704 109.178 53.6704 110.984C53.6704 114.597 56.2138 118.983 59.3286 120.79C60.8952 121.693 62.3143 121.785 63.328 121.177L73.8151 115.113L83.952 133.12L94.7339 114.615C102.53 124.494 111.616 132.88 121.366 138.52C135.742 146.814 148.754 147.606 158.172 142.169L177.617 130.945C187.035 125.508 192.859 113.841 192.859 97.2536C192.859 82.509 188.251 66.3637 180.621 51.5086L202.185 39.0494C202.535 38.8467 202.83 38.5333 203.088 38.1647L209.649 49.8129L227.693 18.8678V14.039L201.687 29.06H201.706Z" fill="#587FA4"/>
<path opacity="0.88" d="M198.756 29.06L224.762 14.039L171.147 24.4523V27.2906L183.569 29.6129L169.47 37.7592C160.697 24.9315 149.768 13.9653 137.88 7.09062C123.504 -1.20319 110.492 -1.99573 101.074 3.44132L81.6293 14.6656C72.2112 20.1027 66.3872 31.7693 66.3872 48.3753C66.3872 61.3505 69.9812 75.4132 76.0449 88.7201L26.6138 98.3225V101.714L53.3567 106.745L52.3798 107.317C51.3477 107.906 50.7211 109.178 50.7211 110.984C50.7211 114.597 53.2645 118.983 56.3793 120.79C57.9459 121.693 59.3651 121.785 60.3788 121.177L70.8659 115.113L81.0027 133.12L91.7846 114.615C99.5808 124.494 108.667 132.88 118.417 138.52C132.793 146.814 145.805 147.606 155.223 142.169L174.667 130.945C184.086 125.508 189.91 113.841 189.91 97.2536C189.91 82.509 185.302 66.3637 177.672 51.5086L199.236 39.0494C199.586 38.8467 199.881 38.5333 200.139 38.1647L206.7 49.8129L224.744 18.8678V14.039L198.738 29.06H198.756Z" fill="#527AA1"/>
<path opacity="0.91" d="M195.808 29.06L221.813 14.039L168.199 24.4523V27.2906L180.621 29.6129L166.521 37.7592C157.748 24.9315 146.819 13.9653 134.931 7.09062C120.555 -1.20319 107.543 -1.99573 98.1251 3.44132L78.6807 14.6656C69.2626 20.1027 63.4385 31.7693 63.4385 48.3753C63.4385 61.3505 67.0325 75.4132 73.0961 88.7201L23.665 98.3225V101.714L50.408 106.745L49.4312 107.317C48.3991 107.906 47.7724 109.178 47.7724 110.984C47.7724 114.597 50.3159 118.983 53.4306 120.79C54.9972 121.693 56.4164 121.785 57.4301 121.177L67.9171 115.113L78.054 133.12L88.836 114.615C96.6322 124.494 105.718 132.88 115.468 138.52C129.844 146.814 142.856 147.606 152.274 142.169L171.719 130.945C181.137 125.508 186.961 113.841 186.961 97.2536C186.961 82.509 182.353 66.3637 174.723 51.5086L196.287 39.0494C196.637 38.8467 196.932 38.5333 197.19 38.1647L203.751 49.8129L221.795 18.8678V14.039L195.789 29.06H195.808Z" fill="#4C769E"/>
<path opacity="0.94" d="M192.84 29.06L218.846 14.039L165.231 24.4523V27.2906L177.654 29.6129L163.554 37.7592C154.781 24.9315 143.852 13.9653 131.964 7.09062C117.588 -1.20319 104.576 -1.99573 95.1578 3.44132L75.7134 14.6656C66.2953 20.1027 60.4712 31.7693 60.4712 48.3753C60.4712 61.3505 64.0652 75.4132 70.1289 88.7201L20.6978 98.3225V101.714L47.4407 106.745L46.4639 107.317C45.4318 107.906 44.8051 109.178 44.8051 110.984C44.8051 114.597 47.3486 118.983 50.4634 120.79C52.03 121.693 53.4491 121.785 54.4628 121.177L64.9498 115.113L75.0867 133.12L85.8686 114.615C93.6648 124.494 102.751 132.88 112.501 138.52C126.877 146.814 139.889 147.606 149.307 142.169L168.751 130.945C178.17 125.508 183.994 113.841 183.994 97.2536C183.994 82.509 179.386 66.3637 171.756 51.5086L193.32 39.0494C193.67 38.8467 193.965 38.5333 194.223 38.1647L200.784 49.8129L218.828 18.8678V14.039L192.822 29.06H192.84Z" fill="#46719A"/>
<path opacity="0.97" d="M189.892 29.06L215.897 14.039L162.282 24.4523V27.2906L174.705 29.6129L160.605 37.7592C151.832 24.9315 140.903 13.9653 129.015 7.09062C114.639 -1.20319 101.627 -1.99573 92.2089 3.44132L72.7646 14.6656C63.3465 20.1027 57.5225 31.7693 57.5225 48.3753C57.5225 61.3505 61.1164 75.4132 67.1801 88.7201L17.749 98.3225V101.714L44.492 106.745L43.5151 107.317C42.483 107.906 41.8564 109.178 41.8564 110.984C41.8564 114.597 44.3997 118.983 47.5145 120.79C49.0811 121.693 50.5004 121.785 51.5141 121.177L62.0011 115.113L72.138 133.12L82.9199 114.615C90.7161 124.494 99.8024 132.88 109.552 138.52C123.928 146.814 136.94 147.606 146.358 142.169L165.803 130.945C175.221 125.508 181.045 113.841 181.045 97.2536C181.045 82.509 176.437 66.3637 168.807 51.5086L190.371 39.0494C190.721 38.8467 191.016 38.5333 191.274 38.1647L197.835 49.8129L215.879 18.8678V14.039L189.873 29.06H189.892Z" fill="#406D97"/>
<path d="M186.942 29.06L212.948 14.039L159.333 24.4524V27.2906L171.756 29.6129L157.656 37.7593C148.883 24.9315 137.954 13.9653 126.066 7.09063C111.69 -1.20318 98.6779 -1.99572 89.2598 3.44134L69.8155 14.6656C60.3974 20.1027 54.5733 31.7693 54.5733 48.3754C54.5733 61.3506 58.1672 75.4132 64.2309 88.7202L14.7998 98.3225V101.714L41.5427 106.745L40.566 107.317C39.5339 107.906 38.9072 109.178 38.9072 110.984C38.9072 114.597 41.4506 118.983 44.5654 120.79C46.132 121.693 47.5511 121.785 48.5648 121.177L59.0519 115.113L69.1888 133.12L79.9708 114.615C87.767 124.494 96.8532 132.88 106.603 138.52C120.979 146.814 133.991 147.606 143.409 142.169L162.854 130.945C172.272 125.508 178.096 113.841 178.096 97.2536C178.096 82.509 173.488 66.3637 165.858 51.5086L187.422 39.0494C187.772 38.8467 188.067 38.5334 188.325 38.1647L194.886 49.8129L212.93 18.8678V14.039L186.924 29.06H186.942Z" fill="#3A6894"/>
</g>
</g>
<path d="M159.333 27.3093V24.471L186.168 29.5026V32.3409L159.333 27.3093Z" fill="#63C100"/>
<path d="M186.168 29.5024L212.929 14.0391L159.333 24.4708L186.168 29.5024Z" fill="#B1D400"/>
<path d="M212.948 18.8864V14.0391L194.904 45.0027V49.8315L212.948 18.8864Z" fill="#6FAB00"/>
<path d="M194.904 49.8315V45.0027L186.168 29.5025V34.3313L194.904 49.8315Z" fill="#63C100"/>
<path d="M186.168 29.5024L212.948 14.0391L194.904 45.0026L186.168 29.5024Z" fill="#B1D400"/>
<path d="M127.171 71.1557C127.171 67.5433 124.628 63.1568 121.513 61.3506C119.946 60.4475 118.527 60.3553 117.514 60.9451L179.441 25.1896C180.473 24.5998 181.874 24.692 183.44 25.5951C186.573 27.4013 189.098 31.7877 189.098 35.4002C189.098 37.2064 188.472 38.4781 187.44 39.0679L125.513 74.8234C126.545 74.2336 127.171 72.9619 127.171 71.1557Z" fill="url(#paint1_linear_3026_15212)"/>
<path d="M121.513 74.4365C118.38 72.6302 115.855 68.2437 115.855 64.6313C115.855 62.8251 116.482 61.5534 117.514 60.9636C118.546 60.3738 119.947 60.466 121.513 61.3691C124.646 63.1753 127.171 67.5618 127.171 71.1742C127.171 72.9804 126.545 74.2521 125.513 74.8419C124.481 75.4317 123.08 75.3395 121.513 74.4548V74.4365Z" fill="#FFC361"/>
<path d="M143.409 142.188C152.827 136.75 158.651 125.084 158.651 108.496C158.651 75.3026 135.355 34.9394 106.603 18.3333C92.227 10.0395 79.215 9.24699 69.7969 14.684C60.3788 20.1211 54.5547 31.7877 54.5547 48.3938C54.5547 81.5875 77.8511 121.951 106.603 138.538C120.979 146.832 133.991 147.625 143.409 142.188ZM145.4 100.848C145.4 113.215 141.05 121.895 134.046 125.95C128.683 129.046 121.753 129.433 113.994 126.687C111.598 125.84 109.146 124.697 106.621 123.241C85.2049 110.874 67.8248 80.7949 67.8248 56.061C67.8248 52.6513 68.1566 49.5181 68.7832 46.6797C70.4236 39.2522 74.1096 33.8889 79.1965 30.9584C86.2186 26.9036 95.9131 27.4934 106.621 33.6677C128.038 46.0347 145.418 76.1135 145.418 100.848H145.4Z" fill="#F5F2F2"/>
<path d="M134.046 125.95C141.068 121.895 145.399 113.214 145.399 100.847C145.399 76.1134 128.038 46.0346 106.603 33.6676C95.8945 27.4749 86.2001 26.9035 79.178 30.9583C74.0911 33.8887 70.4233 39.2521 68.7646 46.6796C68.1379 49.518 67.8062 52.6512 67.8062 56.0608C67.8062 80.7948 85.1678 110.874 106.603 123.241C109.128 124.697 111.597 125.839 113.975 126.687C121.734 129.433 128.664 129.046 134.028 125.95H134.046ZM134.802 94.7284C134.802 99.3914 133.954 103.354 132.406 106.469C130.987 109.362 128.996 111.556 126.545 112.975C121.439 115.924 114.399 115.5 106.621 111.003C91.0472 102.009 78.4407 80.1497 78.4407 62.1798C78.4407 53.1856 81.5923 46.8823 86.6976 43.9334C89.3516 42.4037 92.5585 41.7771 96.1157 42.1825C99.3595 42.5512 102.917 43.7676 106.64 45.9055C122.214 54.8997 134.82 76.74 134.82 94.7284H134.802Z" fill="#FC6432"/>
<path d="M134.802 94.7284C134.802 76.7401 122.177 54.8997 106.621 45.9055C102.898 43.7491 99.3412 42.5512 96.0974 42.1826C92.5403 41.7771 89.3517 42.4037 86.6793 43.9334C81.574 46.8823 78.4224 53.1856 78.4224 62.1798C78.4224 80.1497 91.0473 102.009 106.603 111.003C114.381 115.5 121.44 115.924 126.526 112.975C128.978 111.556 130.968 109.362 132.387 106.487C133.917 103.354 134.783 99.4098 134.783 94.7469L134.802 94.7284ZM93.1485 55.1209C96.595 53.1304 101.35 53.4253 106.603 56.4479C117.108 62.5116 125.642 77.2746 125.642 89.4204C125.642 95.4841 123.504 99.76 120.057 101.75C116.611 103.741 111.856 103.446 106.603 100.423C96.0789 94.3598 87.564 79.5968 87.564 67.451C87.564 61.3689 89.7019 57.1114 93.1485 55.1209Z" fill="white"/>
<path d="M120.076 101.769C123.522 99.7785 125.66 95.521 125.66 89.4389C125.66 77.293 117.145 62.5301 106.621 56.4664C101.369 53.4253 96.6135 53.1489 93.167 55.1394C89.7204 57.1299 87.5825 61.3874 87.5825 67.4695C87.5825 79.6153 96.0974 94.3783 106.621 100.442C111.874 103.483 116.629 103.76 120.076 101.769ZM115.855 83.7806C115.855 86.7295 114.823 88.7938 113.146 89.7522C111.469 90.7106 109.165 90.5816 106.621 89.1071C101.516 86.1582 97.3875 78.9887 97.3875 73.1093C97.3875 70.1604 98.4197 68.0962 100.097 67.1193C101.774 66.1609 104.078 66.29 106.621 67.7644C111.727 70.7133 115.855 77.8644 115.855 83.7622V83.7806Z" fill="#FC6432"/>
<path d="M106.603 89.1254C101.498 86.1765 97.3691 79.007 97.3691 73.1276C97.3691 70.1787 98.4012 68.1144 100.078 67.1376C101.756 66.1792 104.059 66.3082 106.603 67.7827C111.708 70.7316 115.837 77.8827 115.837 83.7805C115.837 86.7294 114.805 88.7937 113.127 89.7521C111.45 90.7105 109.146 90.5815 106.603 89.107V89.1254Z" fill="white"/>
<path d="M157.583 108.496C157.583 75.3026 134.287 34.9394 105.535 18.3334C91.1591 10.0396 78.1471 9.24704 68.729 14.6841L88.1734 3.45982C97.5914 -1.97724 110.604 -1.1847 124.979 7.10911C153.731 23.7152 177.028 64.0783 177.028 97.272C177.028 113.86 171.204 125.526 161.786 130.963L142.341 142.188C151.759 136.751 157.583 125.084 157.583 108.496Z" fill="url(#paint2_linear_3026_15212)"/>
<path d="M46.8137 107.759L46.7954 104.368L78.7542 85.9186V89.3098L46.8137 107.759Z" fill="#D2D2D2"/>
<path d="M14.7812 101.751V98.3593L46.7953 104.368L46.8137 107.759L14.7812 101.751Z" fill="white"/>
<path d="M46.7953 104.368L78.7541 85.9186L14.7812 98.3593L46.7953 104.368Z" fill="#EDEDED"/>
<path d="M50.2236 117.546C50.2236 113.933 47.6801 109.547 44.5653 107.741C42.9987 106.837 41.5796 106.745 40.5659 107.335L102.493 71.5796C103.525 70.9898 104.926 71.082 106.492 71.9851C109.626 73.7913 112.151 78.1778 112.151 81.7902C112.151 83.5964 111.524 84.8681 110.492 85.4579L48.5648 121.213C49.5969 120.624 50.2236 119.352 50.2236 117.546Z" fill="url(#paint3_linear_3026_15212)"/>
<path d="M44.5469 120.826C41.4137 119.02 38.8887 114.634 38.8887 111.021C38.8887 109.215 39.5154 107.943 40.5475 107.354C41.5796 106.764 42.9803 106.856 44.5469 107.759C47.6801 109.565 50.2051 113.952 50.2051 117.564C50.2051 119.37 49.5785 120.642 48.5463 121.232C47.5142 121.822 46.1135 121.73 44.5469 120.826Z" fill="#FFC361"/>
<path d="M90.734 96.2214L90.7155 92.8301L69.1885 129.765V133.156L90.734 96.2214Z" fill="#D2D2D2"/>
<path d="M69.1887 133.156V129.765L58.7754 111.279V114.67L69.1887 133.156Z" fill="white"/>
<path d="M58.7754 111.279L90.7157 92.8301L69.1887 129.765L58.7754 111.279Z" fill="#EDEDED"/>
<defs>
<linearGradient id="paint0_linear_3026_15212" x1="0" y1="154.831" x2="234.567" y2="154.831" gradientUnits="userSpaceOnUse">
<stop stop-color="#006BBF"/>
<stop offset="0.07" stop-color="#006DC2"/>
<stop offset="0.3" stop-color="#0070C5"/>
<stop offset="0.55" stop-color="#005FB4"/>
<stop offset="0.74" stop-color="#005AAF"/>
<stop offset="1" stop-color="#003387"/>
</linearGradient>
<linearGradient id="paint1_linear_3026_15212" x1="150.611" y1="41.8928" x2="158.619" y2="55.7632" gradientUnits="userSpaceOnUse">
<stop stop-color="#FFAF38"/>
<stop offset="1" stop-color="#F57F25"/>
</linearGradient>
<linearGradient id="paint2_linear_3026_15212" x1="96.9942" y1="-1.57373" x2="170.606" y2="125.926" gradientUnits="userSpaceOnUse">
<stop stop-color="#EDEBEB"/>
<stop offset="0.29" stop-color="#E8E6E6"/>
<stop offset="0.59" stop-color="#DBDADA"/>
<stop offset="0.91" stop-color="#C6C5C5"/>
<stop offset="1" stop-color="#BFBFBF"/>
</linearGradient>
<linearGradient id="paint3_linear_3026_15212" x1="73.6378" y1="88.27" x2="81.6552" y2="102.156" gradientUnits="userSpaceOnUse">
<stop stop-color="#FFAF38"/>
<stop offset="1" stop-color="#F57F25"/>
</linearGradient>
</defs>
</svg>
