<svg width="288" height="182" viewBox="0 0 288 182" fill="none" xmlns="http://www.w3.org/2000/svg">
<g clip-path="url(#clip0_3918:54653)">
<g filter="url(#filter0_d_3918:54653)">
<rect x="17" y="13" width="114.77" height="155.437" rx="7.22962" fill="white"/>
</g>
<mask id="mask0_3918:54653" style="mask-type:alpha" maskUnits="userSpaceOnUse" x="22" y="40" width="48" height="48">
<circle cx="45.9614" cy="63.6488" r="23.5394" fill="#C4C4C4"/>
</mask>
<g mask="url(#mask0_3918:54653)">
<circle cx="45.9614" cy="63.6488" r="23.0876" fill="white" stroke="#17E885" stroke-width="0.903703"/>
<path d="M53.6243 66.9299C53.0128 66.3184 51.7668 65.7595 51.7668 65.148V60.8672H41.9831V65.148C41.9831 65.7595 39.9386 66.3825 39.9386 66.9299L38.2963 68.0248C37.6848 68.0248 37.8129 68.0248 37.2014 68.0248C38.4244 72.3051 42.5946 75.5428 46.875 75.5428C51.1553 75.5428 55.6218 73.9474 57.4563 69.6671C56.8448 69.0556 55.3306 68.6363 54.7191 68.0248L53.6243 66.9299Z" fill="#F4A66E" stroke="#014793" stroke-width="0.547428" stroke-miterlimit="10" stroke-linecap="round" stroke-linejoin="round"/>
<path d="M53.6001 54.0772C53.6008 54.1216 53.5945 54.1657 53.5823 54.2084L53.2652 55.3229C53.2148 55.5001 53.4331 55.6283 53.5633 55.4981C53.6019 55.4595 53.6202 55.4051 53.6241 55.3506C53.6306 55.2574 53.6621 55.1085 53.787 55.0053C53.9892 54.838 54.2795 54.9917 54.4369 55.2017C54.5502 55.3528 54.6747 55.5454 54.755 55.7487C54.8138 55.8975 54.8238 56.0594 54.8235 56.2193C54.821 57.3621 54.7835 58.5048 54.2121 59.6475C53.7973 60.4772 53.5321 61.3811 53.0639 62.1819C52.285 63.5142 50.5351 65.457 46.8744 65.7623C44.1302 65.7623 42.4546 64.408 41.5122 63.2188C40.6672 62.1526 40.1451 60.8643 39.5367 59.6475C38.9252 58.4246 38.9252 57.2018 38.9252 55.9788V55.8392C38.9252 55.5787 39.1364 55.3675 39.3969 55.3675H39.4086C39.4922 55.3675 39.574 55.3917 39.6441 55.4373C39.9622 55.644 40.3733 55.3698 40.3047 54.9967L40.1609 54.2135C40.1524 54.1673 40.148 54.1202 40.1485 54.0732C40.1734 51.7541 41.419 49.6867 43.2634 48.4929C45.3975 47.1115 48.2888 47.4081 50.3853 48.8459C52.2821 50.1466 53.5715 52.1082 53.6001 54.0772Z" fill="#F4A66E" stroke="#014793" stroke-width="0.547428" stroke-miterlimit="10" stroke-linecap="round" stroke-linejoin="round"/>
<path d="M51.7675 56.5889C53.6019 57.2004 54.2134 52.3087 54.2134 49.8628C54.2134 46.8054 48.7101 45.582 46.8756 45.582C45.0412 45.582 40.1494 46.194 39.5379 49.8628C38.9264 52.3087 39.5378 55.9775 41.3723 56.5889C43.2067 57.2004 40.1494 48.6397 42.5953 50.4742C45.0412 51.6971 49.933 49.2512 51.156 50.4742C52.9904 52.3086 50.5445 56.5889 51.7675 56.5889Z" fill="#C9C9C9" stroke="#014793" stroke-width="0.547428" stroke-miterlimit="10" stroke-linecap="round" stroke-linejoin="round"/>
<path d="M67.0737 76.8933C66.467 75.5794 65.2538 74.2658 64.0406 72.9519C64.0406 72.9519 54.3348 67.6965 53.7282 67.0396C53.1216 67.0396 51.3018 74.2655 47.0555 74.2655C43.4158 74.2655 40.9894 66.3828 40.3828 66.3828C39.7762 66.3828 30.0704 72.2952 30.0704 72.2952C28.8572 72.9521 27.644 74.2658 27.0374 76.2365C25.8241 78.8642 25.2176 85.4333 24.611 89.3748H69.5001C68.8934 86.0902 68.2869 79.5209 67.0737 76.8933Z" fill="#046BFF" stroke="#014793" stroke-width="0.547428" stroke-miterlimit="10" stroke-linecap="round" stroke-linejoin="round"/>
</g>
<mask id="mask1_3918:54653" style="mask-type:alpha" maskUnits="userSpaceOnUse" x="78" y="40" width="48" height="48">
<circle cx="101.8" cy="63.6488" r="23.5394" fill="#C4C4C4"/>
</mask>
<g mask="url(#mask1_3918:54653)">
<circle cx="101.8" cy="63.6488" r="23.0876" fill="white" stroke="#17E885" stroke-width="0.903703"/>
<path d="M114.818 63.7255C114.521 62.5379 113.334 61.9441 113.334 60.7564C113.334 59.5688 113.928 58.6778 113.928 57.4901C113.928 56.3025 113.037 55.7087 112.443 54.521C111.849 53.6303 112.146 52.4427 111.552 51.5519C110.959 50.6612 110.068 50.0674 108.88 50.0674C108.286 50.0674 107.693 50.0674 107.099 50.0674C106.505 50.0674 105.911 49.4738 105.317 49.1769C104.13 48.583 103.239 47.9891 102.051 48.286C101.161 48.5829 100.27 48.8799 99.3791 49.4737C98.1915 49.4737 97.0038 49.7707 96.1131 50.6614C95.5193 51.2552 95.2224 51.849 94.9255 52.4428C94.0347 52.7397 93.4409 53.3334 93.144 54.521C92.8471 55.7087 93.4409 57.1934 93.4409 58.381V58.6778C93.144 58.6778 93.144 58.9747 93.144 58.9747C92.8471 59.2716 92.8471 59.5686 92.8471 59.8655V60.1624C92.5502 60.7562 92.2533 61.3499 91.9564 61.9438C91.6595 61.9438 91.3625 62.2409 91.3625 62.5378C91.0656 62.8347 91.0656 63.1317 91.0656 63.7255C91.0656 64.3193 91.3625 64.6162 91.3625 65.2101C91.3625 65.8039 91.0657 65.5068 90.4718 65.8037C90.1749 65.8037 89.878 66.1005 89.581 66.3974C88.9872 66.9912 89.2842 67.8821 88.9873 68.7728C88.6904 69.6636 88.0965 69.9603 88.6904 70.8511C88.9873 71.7418 89.8779 72.0388 90.7687 72.0388C91.3625 72.0388 91.6595 71.742 91.9564 71.4451L92.2532 71.1483C92.5501 71.4452 92.8471 71.4451 93.4409 71.4451C94.0347 71.4451 94.3317 71.1483 94.9255 71.1483C95.5193 71.1483 96.113 71.4451 96.7069 71.4451C97.8945 71.4451 98.7853 71.1481 99.3791 70.2574C99.676 70.2574 99.676 70.2573 99.9729 70.5542C101.161 70.8511 102.348 70.8512 103.536 70.2574C104.13 69.9605 104.723 69.6636 105.317 69.9605C105.911 69.9605 106.505 70.5542 107.099 70.5542C108.286 70.8511 109.771 71.1483 110.959 71.1483C113.631 70.8513 113.631 68.773 114.521 66.6946C115.115 65.507 115.115 64.6162 114.818 63.7255Z" fill="#666666" stroke="#014793" stroke-width="0.547428" stroke-miterlimit="10" stroke-linecap="round" stroke-linejoin="round"/>
<path d="M107.988 68.4773C107.395 68.1804 106.801 67.5866 106.801 66.6959L106.504 62.8359H97.8935L97.5965 66.6959C97.5965 67.2897 97.0027 67.8835 96.4089 68.4773L94.9244 69.3678C94.3305 69.6647 94.0336 69.9618 93.4398 69.9618C94.9244 73.5248 98.1904 79.166 102.347 79.166C106.504 79.166 109.77 73.8216 111.254 70.2587C110.661 69.9618 110.067 69.6647 109.473 69.3678L107.988 68.4773Z" fill="#C98A5C" stroke="#014793" stroke-width="0.547428" stroke-miterlimit="10" stroke-linecap="round" stroke-linejoin="round"/>
<path d="M108.284 57.1934V58.678L108.581 58.3811H108.878L109.175 58.678C109.175 59.8656 109.175 60.7563 108.581 61.9439C108.581 62.2408 108.284 62.5379 107.987 62.8348C107.987 63.1317 107.69 63.1316 107.393 63.1316C107.393 63.4285 107.393 63.7257 107.393 63.7257C107.393 64.9133 106.799 66.1009 105.909 66.6948L104.127 68.1793C103.533 68.7731 102.643 68.773 102.049 68.773C101.158 68.773 100.564 68.4762 99.9705 68.1793L98.189 66.6948C97.2983 65.804 96.7045 64.9133 96.7045 63.7257C96.7045 63.4288 96.7045 63.1316 96.7045 63.1316C96.4076 63.1316 96.4076 63.1317 96.1107 62.8348C95.8138 62.5379 95.8138 62.2408 95.5169 61.9439C95.22 61.0532 94.9231 59.8656 94.9231 58.678C94.9231 58.3811 94.923 58.3811 95.2199 58.3811H95.5169L95.8138 58.678V57.1934C95.8138 53.9274 98.486 54.2243 101.752 54.2243C105.612 54.2243 103.533 49.1769 108.284 57.1934Z" fill="#C98A5C" stroke="#014793" stroke-width="0.547428" stroke-miterlimit="10" stroke-linecap="round" stroke-linejoin="round"/>
<path d="M117.488 73.5238C116.894 72.6331 116.004 72.0394 114.816 71.4456C114.816 71.4456 108.878 68.7734 108.284 68.4765C107.987 68.4765 105.909 77.087 102.346 77.087C98.7828 77.087 96.7045 68.1797 96.4076 68.1797C95.8137 68.1797 89.8755 71.4456 89.8755 71.4456C88.6879 72.0394 87.7972 72.6331 87.2033 73.5238C86.3126 75.0084 85.4218 85.1035 84.828 87.4788H119.863C119.566 85.1035 118.676 75.0084 117.488 73.5238Z" fill="#8046F2" stroke="#014793" stroke-width="0.547428" stroke-miterlimit="10" stroke-linecap="round" stroke-linejoin="round"/>
<path d="M99.0803 64.0218C100.565 64.6156 102.346 63.4277 102.346 63.4277C100.862 62.2401 99.0803 64.0218 99.0803 64.0218Z" fill="#666666" stroke="#014793" stroke-width="0.547428" stroke-miterlimit="10" stroke-linecap="round" stroke-linejoin="round"/>
<path d="M102.346 63.4277C102.346 63.4277 104.128 64.9125 105.612 64.0218C105.612 64.0218 103.831 62.2401 102.346 63.4277Z" fill="#666666" stroke="#014793" stroke-width="0.547428" stroke-miterlimit="10" stroke-linecap="round" stroke-linejoin="round"/>
</g>
<mask id="mask2_3918:54653" style="mask-type:alpha" maskUnits="userSpaceOnUse" x="22" y="93" width="48" height="48">
<circle cx="45.9614" cy="116.887" r="23.5394" fill="#C4C4C4"/>
</mask>
<g mask="url(#mask2_3918:54653)">
<circle cx="45.9614" cy="116.887" r="23.0876" fill="white" stroke="#17E885" stroke-width="0.903703"/>
<path d="M52.1509 104.382C49.3997 100.806 47.1987 102.731 45.548 102.731C43.8973 102.731 41.4212 100.531 38.9451 104.382C37.0193 107.409 32.6174 121.164 39.2202 120.339H52.426C56.5528 121.99 55.4523 108.509 52.1509 104.382Z" fill="#C9C9C9" stroke="#014793" stroke-width="0.547428" stroke-miterlimit="10" stroke-linecap="round" stroke-linejoin="round"/>
<path d="M45.8237 133.545C51.6012 133.545 51.3261 123.365 51.3261 123.365C50.2256 123.09 49.6754 122.265 49.6754 121.164V117.588V113.461H45.8237H41.972V117.588V121.164C41.972 122.265 41.4218 123.09 40.3213 123.365C40.3213 123.365 40.0462 133.545 45.8237 133.545Z" fill="#C98A5C" stroke="#014793" stroke-width="0.547428" stroke-miterlimit="10" stroke-linecap="round" stroke-linejoin="round"/>
<path d="M61.5059 129.694C59.3049 125.292 49.9508 122.266 49.9508 122.266C51.6015 124.467 49.1255 129.419 45.824 129.419C42.5226 129.419 40.0465 124.467 41.6972 122.266C41.6972 122.266 32.068 125.292 30.1422 129.694C28.7666 132.72 25.4239 140.973 27.3497 140.973L45.824 143.163L64.8073 139.323C66.1829 139.598 62.8815 132.72 61.5059 129.694Z" fill="#BFB0FF" stroke="#014793" stroke-width="0.547428" stroke-miterlimit="10" stroke-linecap="round" stroke-linejoin="round"/>
<path d="M47.7493 105.484C50.2253 105.484 52.1512 110.987 52.1512 110.987L52.4263 110.712C52.4263 110.712 52.7014 110.437 52.9765 110.712C53.2516 110.712 53.2517 110.987 53.2517 110.987C53.2517 112.087 53.2517 113.188 52.7014 114.288C52.4263 114.564 52.4263 115.114 52.1512 115.389C52.1512 115.664 51.876 115.664 51.6009 115.664C51.6009 115.939 51.3258 117.59 50.5005 119.24C49.4 121.166 47.7492 121.717 46.0985 121.717C44.4478 121.717 42.7971 121.441 41.6966 119.24C40.5961 117.039 40.5961 115.664 40.321 115.664C40.0459 115.664 39.7708 115.664 39.7708 115.389C39.4957 115.114 39.2205 114.839 39.2205 114.288C38.9454 113.188 38.6703 112.087 38.6703 110.987C38.6703 110.712 38.6703 110.712 38.9454 110.712C39.2205 110.712 39.2205 110.712 39.4957 110.712L39.7708 110.987L40.0459 109.887C39.7708 106.86 47.7493 105.484 47.7493 105.484Z" fill="#C98A5C" stroke="#014793" stroke-width="0.547428" stroke-miterlimit="10" stroke-linecap="round" stroke-linejoin="round"/>
<path d="M42.7971 132.994C39.4956 131.618 38.6703 123.365 38.6703 123.365L41.6966 121.164C41.9717 122.54 42.522 129.418 45.5483 129.418L42.7971 132.994Z" fill="#8046F2" stroke="#014793" stroke-width="0.547428" stroke-miterlimit="10" stroke-linecap="round" stroke-linejoin="round"/>
<path d="M48.5748 132.994C51.8762 131.618 52.7016 123.365 52.7016 123.365L49.6753 121.164C49.4001 122.54 48.8499 129.418 45.8236 129.418L48.5748 132.994Z" fill="#8046F2" stroke="#014793" stroke-width="0.547428" stroke-miterlimit="10" stroke-linecap="round" stroke-linejoin="round"/>
</g>
<mask id="mask3_3918:54653" style="mask-type:alpha" maskUnits="userSpaceOnUse" x="78" y="93" width="48" height="48">
<circle cx="101.8" cy="116.887" r="23.5394" fill="#C4C4C4"/>
</mask>
<g mask="url(#mask3_3918:54653)">
<circle cx="101.8" cy="116.887" r="23.0876" fill="white" stroke="#17E885" stroke-width="0.903703"/>
<path d="M110.295 107.869C107.96 103.783 111.754 98.8203 102.122 98.8203C92.4889 98.8203 96.2836 103.783 93.9484 107.869C92.197 111.08 93.0727 121.589 92.7808 123.632H111.754C111.171 121.589 112.046 111.08 110.295 107.869Z" fill="#FFA302" stroke="#014793" stroke-width="0.583803" stroke-miterlimit="10" stroke-linecap="round" stroke-linejoin="round"/>
<path d="M102.122 132.098C107.96 132.098 107.669 121.297 107.669 121.297C106.793 121.006 105.917 120.13 105.917 118.962V115.168V110.789H102.122H98.3277V115.168V118.962C98.3277 120.13 97.7439 121.006 96.5763 121.297C96.5763 121.297 96.2844 132.098 102.122 132.098Z" fill="#F4A66E" stroke="#014793" stroke-width="0.583803" stroke-miterlimit="10" stroke-linecap="round" stroke-linejoin="round"/>
<path d="M102.123 128.886C98.6203 128.886 96.285 122.464 98.0364 120.129L93.366 122.464L89.2794 124.507C86.9442 125.675 84.609 132.389 83.7333 138.518L102.123 142.067L120.805 138.518C119.929 132.389 117.594 125.675 115.259 124.507L111.172 122.464L106.502 120.129C107.961 122.464 105.626 128.886 102.123 128.886Z" fill="#0099FF" stroke="#014793" stroke-width="0.583803" stroke-miterlimit="10" stroke-linecap="round" stroke-linejoin="round"/>
<path d="M102.706 102.906C105.041 102.906 108.544 108.16 108.544 108.16L108.836 107.868C108.836 107.868 109.128 107.577 109.128 107.868C109.42 107.868 109.42 108.16 109.42 108.16C109.42 109.328 109.42 110.496 108.836 111.663C108.836 111.955 108.544 112.539 108.252 112.831C108.252 113.123 107.96 113.123 107.668 113.123C107.668 113.415 107.668 113.415 107.668 113.706C107.668 113.998 107.668 114.29 107.668 114.582C107.376 115.458 107.084 116.333 106.209 116.917L105.917 117.209L104.457 118.669C103.873 119.253 102.998 119.544 102.414 119.544C102.414 119.544 102.414 119.544 102.122 119.544C101.246 119.544 100.371 119.253 99.7869 118.669L98.3274 117.209L98.0355 116.917C97.4517 116.333 96.8679 115.458 96.576 114.582C96.576 114.29 96.576 113.998 96.576 113.706C96.576 113.415 96.576 113.415 96.576 113.123C96.2841 113.123 96.2841 113.123 95.9922 112.831C95.7003 112.539 95.7003 112.247 95.4084 111.663C95.1165 110.496 94.8246 109.328 94.8246 108.16C94.8246 107.868 94.8246 107.868 95.1165 107.868C95.4084 107.868 95.4084 107.868 95.4084 107.868L95.7003 108.16L95.9922 106.993C95.9922 103.782 102.706 102.906 102.706 102.906Z" fill="#F4A66E" stroke="#014793" stroke-width="0.583803" stroke-miterlimit="10" stroke-linecap="round" stroke-linejoin="round"/>
</g>
<g filter="url(#filter1_d_3918:54653)">
<rect x="146.23" y="13" width="114.77" height="155.437" rx="7.22962" fill="white"/>
</g>
<mask id="mask4_3918:54653" style="mask-type:alpha" maskUnits="userSpaceOnUse" x="208" y="40" width="48" height="48">
<circle cx="231.933" cy="63.6488" r="23.5394" fill="#C4C4C4"/>
</mask>
<g mask="url(#mask4_3918:54653)">
<circle cx="231.933" cy="63.6488" r="23.0876" fill="white" stroke="#17E885" stroke-width="0.903703"/>
<path d="M240.359 58.2343C240.651 57.6505 240.651 57.3586 240.359 56.7748C240.943 56.191 240.943 55.0232 240.359 54.4394C240.067 54.1475 240.067 54.1476 239.776 54.1476V53.8558C240.359 52.9801 240.359 52.1042 239.484 51.5204H239.192C238.9 50.9366 238.608 50.645 238.024 50.3531C238.024 50.3531 238.024 50.3531 237.732 50.3531H237.44C237.148 49.7693 236.273 49.7693 235.981 50.3531C235.981 49.7693 235.397 49.4772 234.813 49.7691C234.813 49.7691 234.521 49.769 234.521 50.0609C234.521 49.769 234.521 49.7692 234.521 49.4773C234.229 48.8935 233.354 48.6016 233.062 49.1854L232.77 49.4773C232.478 49.1854 232.478 49.1854 232.186 49.1854C231.894 49.1854 231.31 49.1854 231.31 49.4773C231.019 49.1854 230.727 49.1854 230.435 49.1854C230.143 49.1854 229.851 49.4772 229.559 49.7691C229.559 49.7691 229.267 49.7692 229.267 49.4773C228.683 49.1854 228.391 49.769 228.1 50.0609C228.1 50.3528 228.1 50.353 228.1 50.6449C227.808 50.353 227.224 50.353 226.932 50.6449C226.64 50.9368 226.348 51.2288 226.348 51.8126H226.056C225.472 51.8126 224.889 52.1043 224.889 52.6881C224.889 53.2719 225.181 53.8559 225.181 54.7316C224.597 54.7316 224.305 55.3151 224.597 55.899C224.597 56.1909 224.889 56.4829 224.889 56.7748C224.013 56.7748 223.429 57.3587 223.429 57.9425C223.429 58.5263 223.721 59.11 224.305 59.6938C224.013 59.9857 223.721 60.2777 223.721 60.8615C223.721 61.4453 224.013 62.0291 224.597 62.321C224.305 62.6129 224.013 62.9049 224.013 63.4887C224.013 64.6563 224.889 64.9481 226.056 65.24C226.056 65.5319 226.056 65.8237 226.348 65.8237C226.932 66.6994 228.1 66.6996 228.975 66.4077C229.267 66.4077 229.267 66.4074 229.267 66.1155C229.559 66.1155 229.559 66.1158 229.851 66.4077C231.31 66.9915 232.77 67.867 234.521 66.9913C235.105 66.6994 235.689 66.4075 236.273 65.8237C237.148 66.4075 238.316 66.4074 238.9 66.1155C239.484 65.8236 239.484 65.5319 239.484 65.24C240.067 65.24 240.359 64.6561 240.067 64.0723C240.359 64.0723 240.651 63.7806 240.651 63.4887C240.943 62.9049 240.651 62.613 240.359 62.0292C240.651 61.7373 240.943 61.1535 240.651 60.5697C240.651 59.1102 240.651 58.5262 240.359 58.2343Z" fill="#8C6441" stroke="#014793" stroke-width="0.583803" stroke-miterlimit="10" stroke-linecap="round" stroke-linejoin="round"/>
<path d="M232.184 78.9596C237.438 78.9596 237.146 69.0349 237.146 69.0349C236.271 68.743 235.687 67.8674 235.687 66.9917V63.489V59.4023H232.184H228.681V63.489V66.9917C228.681 67.8674 228.097 68.743 227.222 69.0349C227.222 69.0349 226.93 78.9596 232.184 78.9596Z" fill="#C98A5C" stroke="#014793" stroke-width="0.583803" stroke-miterlimit="10" stroke-linecap="round" stroke-linejoin="round"/>
<path d="M232.184 73.4142C228.973 73.4142 226.929 70.2035 228.389 68.1602L224.01 70.2033L220.216 72.2468C218.172 73.4145 215.837 79.2522 214.961 85.0902L232.184 89.3781L249.114 85.0902C248.238 79.5441 246.195 73.4145 243.86 72.2468L240.065 70.2033L235.686 68.1602C237.438 70.2035 235.394 73.4142 232.184 73.4142Z" fill="#0099FF" stroke="#014793" stroke-width="0.583803" stroke-miterlimit="10" stroke-linecap="round" stroke-linejoin="round"/>
<path d="M233.059 56.1904C235.103 57.0661 235.395 55.0226 236.27 55.6064C237.438 56.1902 238.314 56.7741 238.314 56.7741L238.606 56.4822C238.606 56.4822 238.897 56.1903 238.897 56.4822C239.189 56.4822 239.189 56.7741 239.189 56.7741C239.189 57.9417 239.189 59.1091 238.606 60.2767C238.606 60.5686 238.314 61.1525 238.022 61.4444C238.022 61.7363 237.73 61.7363 237.438 61.7363C237.438 62.0282 237.438 62.0284 237.438 62.3203C237.438 62.6122 237.438 62.9039 237.438 63.1958C237.146 64.0715 236.854 64.9473 235.978 65.5311L235.686 65.8229L234.227 67.2825C233.643 67.8663 232.767 68.1583 232.184 68.1583C232.184 68.1583 232.184 68.1583 231.892 68.1583C231.016 68.1583 230.14 67.8663 229.557 67.2825L228.097 65.8229L227.805 65.5311C227.221 64.9473 226.638 64.0715 226.346 63.1958C226.346 62.9039 226.346 62.6122 226.346 62.3203C226.346 62.0284 226.346 62.0282 226.346 61.7363C226.054 61.7363 226.054 61.7363 225.762 61.4444C225.47 61.1525 225.47 60.8606 225.178 60.2767C224.886 59.1091 224.594 57.9417 224.594 56.7741C224.594 56.4822 224.594 56.4822 224.886 56.4822C225.178 56.4822 225.178 56.4822 225.178 56.4822L225.47 56.7741L225.762 55.6064C226.054 54.1469 231.016 55.3147 233.059 56.1904Z" fill="#C98A5C" stroke="#014793" stroke-width="0.583803" stroke-miterlimit="10" stroke-linecap="round" stroke-linejoin="round"/>
<path d="M232.183 73.9968C238.021 73.9968 237.437 68.4506 237.437 68.4506L235.686 66.6992C235.394 67.8668 235.102 69.9101 232.183 69.9101C229.264 69.9101 228.68 68.1587 228.68 66.6992L226.929 68.4506C226.929 68.4506 226.637 73.9968 232.183 73.9968Z" fill="#0099FF" stroke="#014793" stroke-width="0.583803" stroke-miterlimit="10" stroke-linecap="round" stroke-linejoin="round"/>
</g>
<mask id="mask5_3918:54653" style="mask-type:alpha" maskUnits="userSpaceOnUse" x="208" y="93" width="48" height="48">
<circle cx="232.216" cy="116.887" r="23.5394" fill="#C4C4C4"/>
</mask>
<g mask="url(#mask5_3918:54653)">
<circle cx="232.216" cy="116.887" r="23.0876" fill="white" stroke="#17E885" stroke-width="0.903703"/>
<path d="M237.957 121.769C237.373 121.477 236.789 120.893 236.789 120.018L236.497 116.223H228.032L227.74 120.018C227.74 120.601 227.156 121.185 226.572 121.769L225.113 122.644C224.529 122.936 224.237 123.228 223.653 123.228C225.113 126.731 228.324 129.358 232.41 129.358C236.497 129.358 239.708 127.023 241.168 123.52C240.584 123.228 240 122.936 239.416 122.644L237.957 121.769Z" fill="#C98A5C" stroke="#014793" stroke-width="0.547428" stroke-miterlimit="10" stroke-linecap="round" stroke-linejoin="round"/>
<path d="M238.249 110.678V112.137L238.541 111.845H238.833L239.125 112.137C239.125 113.305 238.833 114.18 238.541 115.348C238.249 116.516 237.373 116.808 237.373 117.1C237.373 117.1 237.081 121.186 232.119 121.186C227.449 121.186 226.865 117.1 226.865 117.1C226.865 116.808 226.281 116.516 225.697 115.348C225.405 114.472 225.113 113.305 225.113 112.137C225.113 111.845 225.113 111.845 225.405 111.845H225.697L225.989 112.137V110.678C225.989 107.467 228.616 103.672 231.827 103.672C235.622 103.672 238.249 107.467 238.249 110.678Z" fill="#C98A5C" stroke="#014793" stroke-width="0.547428" stroke-miterlimit="10" stroke-linecap="round" stroke-linejoin="round"/>
<path d="M214.606 140.454C214.898 136.951 216.065 130.237 216.941 127.902C217.525 126.734 218.401 125.567 219.568 124.691C219.568 124.691 225.99 121.188 226.574 120.896C226.866 120.604 226.866 127.318 232.412 127.318C237.958 127.318 237.958 120.604 238.25 120.896C238.834 121.188 245.256 124.691 245.256 124.691C246.423 125.567 247.299 126.442 247.883 127.902C248.758 130.237 249.926 136.951 250.218 140.454H214.606Z" fill="#006BFF" stroke="#014793" stroke-width="0.547428" stroke-miterlimit="10" stroke-linecap="round" stroke-linejoin="round"/>
<path d="M229.201 140.45H214.606C214.898 136.947 216.066 130.233 216.941 127.898C217.525 126.73 218.401 125.563 219.568 124.687C219.568 124.687 226.574 120.601 227.158 120.309C227.45 120.017 225.698 123.812 227.742 130.233C229.201 136.071 229.201 140.45 229.201 140.45Z" fill="#BFB0FF" stroke="#014793" stroke-width="0.547428" stroke-miterlimit="10" stroke-linecap="round" stroke-linejoin="round"/>
<path d="M226.572 125.857C227.156 124.689 227.156 123.522 227.448 121.478C227.448 121.186 228.031 119.143 227.739 119.435C226.28 120.31 223.945 123.521 224.529 125.273C224.529 125.565 226.28 126.149 226.572 125.857Z" fill="#BFB0FF" stroke="#014793" stroke-width="0.547428" stroke-miterlimit="10" stroke-linecap="round" stroke-linejoin="round"/>
<path d="M235.621 140.45H250.216C249.924 136.947 248.757 130.233 247.881 127.898C247.297 126.73 246.422 125.563 245.254 124.687C245.254 124.687 238.248 120.601 237.665 120.309C237.373 120.017 239.124 123.812 237.081 130.233C235.329 136.071 235.621 140.45 235.621 140.45Z" fill="#BFB0FF" stroke="#014793" stroke-width="0.547428" stroke-miterlimit="10" stroke-linecap="round" stroke-linejoin="round"/>
<path d="M237.956 125.857C237.373 124.689 237.373 123.522 237.081 121.478C237.081 121.186 236.497 119.143 236.789 119.435C238.248 120.31 240.583 123.521 240 125.273C240 125.565 238.248 126.149 237.956 125.857Z" fill="#BFB0FF" stroke="#014793" stroke-width="0.547428" stroke-miterlimit="10" stroke-linecap="round" stroke-linejoin="round"/>
<path d="M243.506 134.613H237.668V140.451H243.506V134.613Z" stroke="#014793" stroke-width="0.547428" stroke-miterlimit="10" stroke-linecap="round" stroke-linejoin="round"/>
<path d="M227.45 135.781C227.773 135.781 228.034 135.519 228.034 135.197C228.034 134.875 227.773 134.613 227.45 134.613C227.128 134.613 226.867 134.875 226.867 135.197C226.867 135.519 227.128 135.781 227.45 135.781Z" stroke="#014793" stroke-width="0.547428" stroke-miterlimit="10" stroke-linecap="round" stroke-linejoin="round"/>
<path d="M225.993 129.652C226.315 129.652 226.576 129.391 226.576 129.068C226.576 128.746 226.315 128.484 225.993 128.484C225.67 128.484 225.409 128.746 225.409 129.068C225.409 129.391 225.67 129.652 225.993 129.652Z" stroke="#014793" stroke-width="0.547428" stroke-miterlimit="10" stroke-linecap="round" stroke-linejoin="round"/>
</g>
<mask id="mask6_3918:54653" style="mask-type:alpha" maskUnits="userSpaceOnUse" x="152" y="40" width="48" height="48">
<circle cx="176.095" cy="63.6488" r="23.5394" fill="#C4C4C4"/>
</mask>
<g mask="url(#mask6_3918:54653)">
<circle cx="176.095" cy="63.6488" r="23.0876" fill="white" stroke="#17E885" stroke-width="0.903703"/>
<path d="M181.14 66.7103C180.557 66.4184 179.973 65.8346 179.973 64.9589L179.681 61.1641H171.216L170.924 64.9589C170.924 65.5427 170.34 66.1265 169.756 66.7103C169.756 66.7103 171.508 74.2996 175.594 74.2996C179.681 74.2996 181.14 66.7103 181.14 66.7103Z" fill="#F4A66E" stroke="#014793" stroke-width="0.547428" stroke-miterlimit="10" stroke-linecap="round" stroke-linejoin="round"/>
<path d="M181.432 55.6193V57.0788L181.724 56.787H182.016L182.308 57.0788C182.308 58.2464 182.016 59.122 181.724 60.2896C181.432 61.4572 180.556 61.7494 180.556 62.0413C180.556 62.0413 180.264 67.0035 175.302 67.0035C170.632 67.0035 170.048 62.0413 170.048 62.0413C170.048 61.7494 169.464 61.4572 168.88 60.2896C168.588 59.4139 168.296 58.2464 168.296 57.0788C168.296 56.7869 168.296 56.787 168.588 56.787H168.88L169.172 57.0788V55.6193C169.172 52.4084 171.799 49.7812 175.01 49.7812C178.221 49.7812 181.432 52.4084 181.432 55.6193Z" fill="#F4A66E" stroke="#014793" stroke-width="0.547428" stroke-miterlimit="10" stroke-linecap="round" stroke-linejoin="round"/>
<path d="M182.891 67.5859C182.891 67.5859 183.183 67.5859 182.891 67.5859C182.891 67.5859 182.599 67.5859 182.891 67.5859Z" fill="#046BFF" stroke="#014793" stroke-width="0.547428" stroke-miterlimit="10" stroke-linecap="round" stroke-linejoin="round"/>
<path d="M168.296 67.5859C168.592 67.5859 168.296 67.5859 168.296 67.5859V67.5859Z" fill="#046BFF" stroke="#014793" stroke-width="0.547428" stroke-miterlimit="10" stroke-linecap="round" stroke-linejoin="round"/>
<path d="M175.594 74.0073L181.432 66.418L186.687 70.2125C188.73 71.672 189.897 73.7153 190.189 76.0505C190.773 80.1371 191.065 84.224 191.357 88.3106H160.124C160.124 84.224 160.415 80.1371 161.291 76.0505C161.583 73.7153 163.043 71.672 164.794 70.2125L170.048 66.418L175.594 74.0073Z" fill="#8247F5" stroke="#014793" stroke-width="0.547428" stroke-miterlimit="10" stroke-linecap="round" stroke-linejoin="round"/>
<path d="M183.476 67.5863C183.476 67.5863 180.265 64.9593 180.557 65.835C180.849 67.2945 176.763 71.3812 176.763 71.3812L179.39 73.7165L183.476 67.5863Z" fill="#8247F5" stroke="#014793" stroke-width="0.547428" stroke-miterlimit="10" stroke-linecap="round" stroke-linejoin="round"/>
<path d="M177.055 71.3828L175.595 74.01L177.931 71.9665L177.055 71.3828Z" fill="#8247F5" stroke="#014793" stroke-width="0.547428" stroke-miterlimit="10" stroke-linecap="round" stroke-linejoin="round"/>
<path d="M167.42 67.5863C167.42 67.5863 170.631 64.9593 170.339 65.835C170.048 67.2945 174.134 71.3812 174.134 71.3812L171.507 73.7165L167.42 67.5863Z" fill="#8247F5" stroke="#014793" stroke-width="0.547428" stroke-miterlimit="10" stroke-linecap="round" stroke-linejoin="round"/>
<path d="M173.843 71.3828L175.595 74.01L173.259 71.9665L173.843 71.3828Z" fill="#8247F5" stroke="#014793" stroke-width="0.547428" stroke-miterlimit="10" stroke-linecap="round" stroke-linejoin="round"/>
<path d="M175.593 77.2185C175.916 77.2185 176.177 76.9572 176.177 76.6348C176.177 76.3124 175.916 76.0508 175.593 76.0508C175.271 76.0508 175.009 76.3124 175.009 76.6348C175.009 76.9572 175.271 77.2185 175.593 77.2185Z" fill="#8247F5" stroke="#014793" stroke-width="0.547428" stroke-miterlimit="10" stroke-linecap="round" stroke-linejoin="round"/>
<path d="M175.593 84.5192C175.916 84.5192 176.177 84.258 176.177 83.9356C176.177 83.6132 175.916 83.3516 175.593 83.3516C175.271 83.3516 175.009 83.6132 175.009 83.9356C175.009 84.258 175.271 84.5192 175.593 84.5192Z" fill="#8247F5" stroke="#014793" stroke-width="0.547428" stroke-miterlimit="10" stroke-linecap="round" stroke-linejoin="round"/>
<path d="M175.593 68.1706C175.593 68.1706 180.263 68.4623 181.431 60.2891C181.431 60.2891 179.096 65.2515 177.636 64.0839C176.177 62.9163 175.593 62.9162 175.593 62.9162C175.593 62.9162 175.301 62.6244 173.55 64.0839C172.09 65.2515 169.755 60.2891 169.755 60.2891C170.631 68.7542 175.593 68.1706 175.593 68.1706Z" fill="#8C6441" stroke="#014793" stroke-width="0.547428" stroke-miterlimit="10" stroke-linecap="round" stroke-linejoin="round"/>
</g>
<mask id="mask7_3918:54653" style="mask-type:alpha" maskUnits="userSpaceOnUse" x="152" y="93" width="48" height="48">
<circle cx="176.378" cy="116.887" r="23.5394" fill="#C4C4C4"/>
</mask>
<g mask="url(#mask7_3918:54653)">
<circle cx="176.378" cy="116.887" r="23.0876" fill="white" stroke="#17E885" stroke-width="0.903703"/>
<path d="M189.837 123.131C189.546 121.38 189.546 119.337 188.962 117.585C188.67 117.001 188.67 116.709 188.086 116.126C187.794 115.834 186.918 115.542 186.918 114.958C186.627 114.374 187.21 113.499 187.21 112.915C187.21 112.039 187.21 111.455 187.21 110.579C186.918 109.12 186.335 108.244 185.167 107.369C183.707 106.493 183.999 104.158 182.832 102.99C181.08 100.947 178.453 100.363 176.118 101.822C172.323 100.947 168.529 103.574 167.945 107.077C167.361 107.077 166.777 107.368 166.193 107.952C165.318 109.12 165.318 110.58 165.026 111.747C165.026 113.207 163.858 114.083 163.566 115.542C163.274 117.002 163.566 119.045 163.274 120.504C162.982 123.131 162.691 126.05 164.734 128.094C167.069 130.137 170.864 130.429 173.783 130.721C178.453 131.596 188.378 134.516 190.129 127.51C190.129 126.05 189.837 124.591 189.837 123.131Z" fill="#8C6441" stroke="#014793" stroke-width="0.547428" stroke-miterlimit="10" stroke-linecap="round" stroke-linejoin="round"/>
<path d="M176.411 134.516C182.249 134.516 181.957 123.715 181.957 123.715C181.082 123.424 180.206 122.548 180.206 121.38V117.586V113.207H176.411H172.616V117.586V121.38C172.616 122.548 172.033 123.424 170.865 123.715C170.865 123.715 170.865 134.516 176.411 134.516Z" fill="#F4A66E" stroke="#014793" stroke-width="0.547428" stroke-miterlimit="10" stroke-linecap="round" stroke-linejoin="round"/>
<path d="M192.464 130.721C190.42 126.051 180.788 122.84 180.788 122.84C182.247 125.175 180.204 130.429 176.701 130.429C173.198 130.429 170.863 125.175 172.614 122.84C172.614 122.84 162.982 126.051 160.938 130.721C159.479 133.932 156.268 140.938 158.019 140.938H176.701H195.383C197.134 140.938 193.923 133.64 192.464 130.721Z" fill="white" stroke="#014793" stroke-width="0.547428" stroke-miterlimit="10" stroke-linecap="round" stroke-linejoin="round"/>
<path d="M178.453 105.907C180.788 105.907 182.832 110.87 182.832 110.87L183.124 110.578C183.124 110.578 183.416 110.286 183.416 110.578C183.708 110.578 183.707 110.87 183.707 110.87C183.707 112.037 183.708 113.205 183.124 114.373C183.124 114.665 182.832 115.248 182.54 115.54C182.54 115.832 182.248 115.832 181.956 115.832C181.956 116.124 181.372 117.875 180.497 119.627C179.621 121.67 177.869 121.67 176.41 121.67C174.95 121.67 173.491 121.962 172.323 119.627C171.156 117.291 170.864 115.832 170.864 115.832C170.572 115.832 170.572 115.832 170.28 115.54C169.988 115.248 169.988 114.956 169.696 114.373C169.404 113.205 169.112 112.037 169.112 110.87C169.112 110.578 169.112 110.578 169.404 110.578C169.696 110.578 169.696 110.578 169.696 110.578L169.988 110.87L170.28 109.702C170.572 100.653 178.453 105.907 178.453 105.907Z" fill="#F4A66E" stroke="#014793" stroke-width="0.547428" stroke-miterlimit="10" stroke-linecap="round" stroke-linejoin="round"/>
<path d="M172.323 122.547C169.404 123.423 162.69 125.466 160.647 130.428C159.187 133.639 155.977 140.645 157.728 140.645H173.491C173.199 137.434 169.696 133.639 168.236 130.428C167.069 127.509 171.447 124.006 172.323 122.547Z" fill="#046BFF" stroke="#014793" stroke-width="0.547428" stroke-miterlimit="10" stroke-linecap="round" stroke-linejoin="round"/>
<path d="M180.789 122.547C183.708 123.423 190.422 125.466 192.465 130.428C193.925 133.639 197.136 140.645 195.384 140.645H179.622C179.914 137.434 183.417 133.639 184.876 130.428C186.044 127.509 181.373 124.006 180.789 122.547Z" fill="#046BFF" stroke="#014793" stroke-width="0.547428" stroke-miterlimit="10" stroke-linecap="round" stroke-linejoin="round"/>
</g>
</g>
<defs>
<filter id="filter0_d_3918:54653" x="3.44446" y="1.25186" width="141.881" height="182.549" filterUnits="userSpaceOnUse" color-interpolation-filters="sRGB">
<feFlood flood-opacity="0" result="BackgroundImageFix"/>
<feColorMatrix in="SourceAlpha" type="matrix" values="0 0 0 0 0 0 0 0 0 0 0 0 0 0 0 0 0 0 127 0" result="hardAlpha"/>
<feOffset dy="1.80741"/>
<feGaussianBlur stdDeviation="6.77777"/>
<feColorMatrix type="matrix" values="0 0 0 0 0 0 0 0 0 0 0 0 0 0 0 0 0 0 0.1 0"/>
<feBlend mode="normal" in2="BackgroundImageFix" result="effect1_dropShadow_3918:54653"/>
<feBlend mode="normal" in="SourceGraphic" in2="effect1_dropShadow_3918:54653" result="shape"/>
</filter>
<filter id="filter1_d_3918:54653" x="132.674" y="1.25186" width="141.881" height="182.549" filterUnits="userSpaceOnUse" color-interpolation-filters="sRGB">
<feFlood flood-opacity="0" result="BackgroundImageFix"/>
<feColorMatrix in="SourceAlpha" type="matrix" values="0 0 0 0 0 0 0 0 0 0 0 0 0 0 0 0 0 0 127 0" result="hardAlpha"/>
<feOffset dy="1.80741"/>
<feGaussianBlur stdDeviation="6.77777"/>
<feColorMatrix type="matrix" values="0 0 0 0 0 0 0 0 0 0 0 0 0 0 0 0 0 0 0.1 0"/>
<feBlend mode="normal" in2="BackgroundImageFix" result="effect1_dropShadow_3918:54653"/>
<feBlend mode="normal" in="SourceGraphic" in2="effect1_dropShadow_3918:54653" result="shape"/>
</filter>
<clipPath id="clip0_3918:54653">
<rect width="288" height="182" fill="white"/>
</clipPath>
</defs>
</svg>
