<svg width="297" height="200" viewBox="0 0 297 200" fill="none" xmlns="http://www.w3.org/2000/svg">
<g style="mix-blend-mode:multiply">
<path opacity="0.03" d="M256.039 88.185C204.842 58.6302 152.004 58.6302 100.789 88.185C75.191 102.972 62.3918 117.977 62.3918 133C62.3918 148.024 75.191 163.029 100.789 177.816C151.986 207.37 204.824 207.37 256.039 177.816C281.637 163.029 294.436 148.024 294.436 133C294.436 117.977 281.637 102.972 256.039 88.185Z" fill="#FCFCFC"/>
<path opacity="0.06" d="M254.087 88.185C202.891 58.6302 150.053 58.6302 98.838 88.185C73.2396 102.972 60.4404 117.977 60.4404 133C60.4404 148.024 73.2396 163.029 98.838 177.816C150.035 207.37 202.872 207.37 254.087 177.816C279.686 163.029 292.485 148.024 292.485 133C292.485 117.977 279.686 102.972 254.087 88.185Z" fill="#F9F9F9"/>
<path opacity="0.09" d="M252.137 88.185C200.94 58.6302 148.102 58.6302 96.8874 88.185C71.2891 102.972 58.4899 117.977 58.4899 133C58.4899 148.024 71.2891 163.029 96.8874 177.816C148.084 207.37 200.922 207.37 252.137 177.816C277.735 163.029 290.534 148.024 290.534 133C290.534 117.977 277.735 102.972 252.137 88.185Z" fill="#F5F5F5"/>
<path opacity="0.12" d="M250.185 88.185C198.988 58.6302 146.151 58.6302 94.9359 88.185C69.3375 102.972 56.5383 117.977 56.5383 133C56.5383 148.024 69.3375 163.029 94.9359 177.816C146.133 207.37 198.97 207.37 250.185 177.816C275.784 163.029 288.583 148.024 288.583 133C288.583 117.977 275.784 102.972 250.185 88.185Z" fill="#F2F2F2"/>
<path opacity="0.15" d="M248.235 88.185C197.038 58.6302 144.2 58.6302 92.9854 88.185C67.3871 102.972 54.5879 117.977 54.5879 133C54.5879 148.024 67.3871 163.029 92.9854 177.816C144.182 207.37 197.02 207.37 248.235 177.816C273.833 163.029 286.632 148.024 286.632 133C286.632 117.977 273.833 102.972 248.235 88.185Z" fill="#EFEFEF"/>
<path opacity="0.18" d="M246.284 88.185C195.087 58.6302 142.25 58.6302 91.0349 88.185C65.4365 102.972 52.6373 117.977 52.6373 133C52.6373 148.024 65.4365 163.029 91.0349 177.816C142.232 207.37 195.069 207.37 246.284 177.816C271.883 163.029 284.682 148.024 284.682 133C284.682 117.977 271.883 102.972 246.284 88.185Z" fill="#ECECEC"/>
<path opacity="0.21" d="M244.333 88.185C193.136 58.6302 140.298 58.6302 89.0833 88.185C63.485 102.972 50.6858 117.977 50.6858 133C50.6858 148.024 63.485 163.029 89.0833 177.816C140.28 207.37 193.118 207.37 244.333 177.816C269.931 163.029 282.73 148.024 282.73 133C282.73 117.977 269.931 102.972 244.333 88.185Z" fill="#E8E8E8"/>
<path opacity="0.24" d="M242.382 88.185C191.185 58.6302 138.348 58.6302 87.1329 88.185C61.5345 102.972 48.7354 117.977 48.7354 133C48.7354 148.024 61.5345 163.029 87.1329 177.816C138.33 207.37 191.167 207.37 242.382 177.816C267.981 163.029 280.78 148.024 280.78 133C280.78 117.977 267.981 102.972 242.382 88.185Z" fill="#E5E5E5"/>
<path opacity="0.27" d="M240.432 88.185C189.235 58.6302 136.397 58.6302 85.1823 88.185C59.584 102.972 46.7848 117.977 46.7848 133C46.7848 148.024 59.584 163.029 85.1823 177.816C136.379 207.37 189.217 207.37 240.432 177.816C266.03 163.029 278.829 148.024 278.829 133C278.829 117.977 266.03 102.972 240.432 88.185Z" fill="#E2E2E2"/>
<path opacity="0.3" d="M238.48 88.185C187.283 58.6302 134.446 58.6302 83.2308 88.185C57.6324 102.972 44.8333 117.977 44.8333 133C44.8333 148.024 57.6324 163.029 83.2308 177.816C134.427 207.37 187.265 207.37 238.48 177.816C264.078 163.029 276.878 148.024 276.878 133C276.878 117.977 264.078 102.972 238.48 88.185Z" fill="#DFDFDF"/>
<path opacity="0.33" d="M236.529 88.185C185.333 58.6302 132.495 58.6302 81.2802 88.185C55.6819 102.972 42.8827 117.977 42.8827 133C42.8827 148.024 55.6819 163.029 81.2802 177.816C132.477 207.37 185.315 207.37 236.529 177.816C262.128 163.029 274.927 148.024 274.927 133C274.927 117.977 262.128 102.972 236.529 88.185Z" fill="#DBDBDB"/>
<path opacity="0.36" d="M234.579 88.185C183.382 58.6302 130.545 58.6302 79.3298 88.185C53.7314 102.972 40.9323 117.977 40.9323 133C40.9323 148.024 53.7314 163.029 79.3298 177.816C130.526 207.37 183.364 207.37 234.579 177.816C260.177 163.029 272.977 148.024 272.977 133C272.977 117.977 260.177 102.972 234.579 88.185Z" fill="#D8D8D8"/>
<path opacity="0.39" d="M232.628 88.185C181.431 58.6302 128.593 58.6302 77.3782 88.185C51.7799 102.972 38.9807 117.977 38.9807 133C38.9807 148.024 51.7799 163.029 77.3782 177.816C128.575 207.37 181.413 207.37 232.628 177.816C258.226 163.029 271.025 148.024 271.025 133C271.025 117.977 258.226 102.972 232.628 88.185Z" fill="#D5D5D5"/>
<path opacity="0.42" d="M230.695 88.185C179.498 58.6302 126.66 58.6302 75.4455 88.185C49.8471 102.972 37.048 117.977 37.048 133C37.048 148.024 49.8471 163.029 75.4455 177.816C126.642 207.37 179.48 207.37 230.695 177.816C256.293 163.029 269.092 148.024 269.092 133C269.092 117.977 256.293 102.972 230.695 88.185Z" fill="#D2D2D2"/>
<path opacity="0.45" d="M228.744 88.185C177.548 58.6302 124.71 58.6302 73.4949 88.185C47.8966 102.972 35.0974 117.977 35.0974 133C35.0974 148.024 47.8966 163.029 73.4949 177.816C124.692 207.37 177.529 207.37 228.744 177.816C254.343 163.029 267.142 148.024 267.142 133C267.142 117.977 254.343 102.972 228.744 88.185Z" fill="#CECECE"/>
<path opacity="0.48" d="M226.794 88.185C175.597 58.6302 122.759 58.6302 71.5444 88.185C45.946 102.972 33.1469 117.977 33.1469 133C33.1469 148.024 45.946 163.029 71.5444 177.816C122.741 207.37 175.579 207.37 226.794 177.816C252.392 163.029 265.191 148.024 265.191 133C265.191 117.977 252.392 102.972 226.794 88.185Z" fill="#CBCBCB"/>
<path opacity="0.52" d="M224.842 88.185C173.646 58.6302 120.808 58.6302 69.593 88.185C43.9946 102.972 31.1954 117.977 31.1954 133C31.1954 148.024 43.9946 163.029 69.593 177.816C120.79 207.37 173.627 207.37 224.842 177.816C250.441 163.029 263.24 148.024 263.24 133C263.24 117.977 250.441 102.972 224.842 88.185Z" fill="#C8C8C8"/>
<path opacity="0.55" d="M222.892 88.185C171.695 58.6302 118.857 58.6302 67.6424 88.185C42.044 102.972 29.2449 117.977 29.2449 133C29.2449 148.024 42.044 163.029 67.6424 177.816C118.839 207.37 171.677 207.37 222.892 177.816C248.49 163.029 261.289 148.024 261.289 133C261.289 117.977 248.49 102.972 222.892 88.185Z" fill="#C5C5C5"/>
<path opacity="0.58" d="M220.941 88.185C169.744 58.6302 116.907 58.6302 65.6918 88.185C40.0935 102.972 27.2943 117.977 27.2943 133C27.2943 148.024 40.0935 163.029 65.6918 177.816C116.889 207.37 169.726 207.37 220.941 177.816C246.539 163.029 259.339 148.024 259.339 133C259.339 117.977 246.539 102.972 220.941 88.185Z" fill="#C1C1C1"/>
<path opacity="0.61" d="M218.99 88.185C167.793 58.6302 114.955 58.6302 63.7404 88.185C38.1421 102.972 25.3429 117.977 25.3429 133C25.3429 148.024 38.1421 163.029 63.7404 177.816C114.937 207.37 167.775 207.37 218.99 177.816C244.588 163.029 257.387 148.024 257.387 133C257.387 117.977 244.588 102.972 218.99 88.185Z" fill="#BEBEBE"/>
<path opacity="0.64" d="M217.039 88.185C165.842 58.6302 113.005 58.6302 61.7899 88.185C36.1915 102.972 23.3923 117.977 23.3923 133C23.3923 148.024 36.1915 163.029 61.7899 177.816C112.987 207.37 165.824 207.37 217.039 177.816C242.637 163.029 255.437 148.024 255.437 133C255.437 117.977 242.637 102.972 217.039 88.185Z" fill="#BBBBBB"/>
<path opacity="0.67" d="M215.088 88.185C163.891 58.6302 111.053 58.6302 59.8385 88.185C34.2401 102.972 21.4409 117.977 21.4409 133C21.4409 148.024 34.2401 163.029 59.8385 177.816C111.035 207.37 163.873 207.37 215.088 177.816C240.686 163.029 253.485 148.024 253.485 133C253.485 117.977 240.686 102.972 215.088 88.185Z" fill="#B8B8B8"/>
<path opacity="0.7" d="M213.137 88.185C161.94 58.6302 109.103 58.6302 57.8879 88.185C32.2895 102.972 19.4904 117.977 19.4904 133C19.4904 148.024 32.2895 163.029 57.8879 177.816C109.085 207.37 161.922 207.37 213.137 177.816C238.736 163.029 251.535 148.024 251.535 133C251.535 117.977 238.736 102.972 213.137 88.185Z" fill="#B4B4B4"/>
<path opacity="0.73" d="M211.187 88.185C159.99 58.6302 107.152 58.6302 55.9373 88.185C30.339 102.972 17.5398 117.977 17.5398 133C17.5398 148.024 30.339 163.029 55.9373 177.816C107.134 207.37 159.972 207.37 211.187 177.816C236.785 163.029 249.584 148.024 249.584 133C249.584 117.977 236.785 102.972 211.187 88.185Z" fill="#B1B1B1"/>
<path opacity="0.76" d="M209.235 88.185C158.038 58.6302 105.201 58.6302 53.9859 88.185C28.3876 102.972 15.5884 117.977 15.5884 133C15.5884 148.024 28.3876 163.029 53.9859 177.816C105.183 207.37 158.02 207.37 209.235 177.816C234.834 163.029 247.633 148.024 247.633 133C247.633 117.977 234.834 102.972 209.235 88.185Z" fill="#AEAEAE"/>
<path opacity="0.79" d="M207.285 88.185C156.088 58.6302 103.25 58.6302 52.0354 88.185C26.437 102.972 13.6378 117.977 13.6378 133C13.6378 148.024 26.437 163.029 52.0354 177.816C103.232 207.37 156.07 207.37 207.285 177.816C232.883 163.029 245.682 148.024 245.682 133C245.682 117.977 232.883 102.972 207.285 88.185Z" fill="#ABABAB"/>
<path opacity="0.82" d="M205.334 88.185C154.137 58.6302 101.3 58.6302 50.0848 88.185C24.4864 102.972 11.6873 117.977 11.6873 133C11.6873 148.024 24.4864 163.029 50.0848 177.816C101.282 207.37 154.119 207.37 205.334 177.816C230.932 163.029 243.732 148.024 243.732 133C243.732 117.977 230.932 102.972 205.334 88.185Z" fill="#A7A7A7"/>
<path opacity="0.85" d="M203.383 88.185C152.186 58.6302 99.3483 58.6302 48.1334 88.185C22.535 102.972 9.73584 117.977 9.73584 133C9.73584 148.024 22.535 163.029 48.1334 177.816C99.3301 207.37 152.168 207.37 203.383 177.816C228.981 163.029 241.78 148.024 241.78 133C241.78 117.977 228.981 102.972 203.383 88.185Z" fill="#A4A4A4"/>
<path opacity="0.88" d="M201.45 88.185C150.253 58.6302 97.4156 58.6302 46.2006 88.185C20.6023 102.972 7.8031 117.977 7.8031 133C7.8031 148.024 20.6023 163.029 46.2006 177.816C97.3973 207.37 150.235 207.37 201.45 177.816C227.048 163.029 239.847 148.024 239.847 133C239.847 117.977 227.048 102.972 201.45 88.185Z" fill="#A1A1A1"/>
<path opacity="0.91" d="M199.499 88.185C148.303 58.6302 95.465 58.6302 44.2501 88.185C18.6517 102.972 5.85254 117.977 5.85254 133C5.85254 148.024 18.6517 163.029 44.2501 177.816C95.4468 207.37 148.284 207.37 199.499 177.816C225.098 163.029 237.897 148.024 237.897 133C237.897 117.977 225.098 102.972 199.499 88.185Z" fill="#9E9E9E"/>
<path opacity="0.94" d="M197.549 88.185C146.352 58.6302 93.5144 58.6302 42.2995 88.185C16.7011 102.972 3.90198 117.977 3.90198 133C3.90198 148.024 16.7011 163.029 42.2995 177.816C93.4962 207.37 146.334 207.37 197.549 177.816C223.147 163.029 235.946 148.024 235.946 133C235.946 117.977 223.147 102.972 197.549 88.185Z" fill="#9A9A9A"/>
<path opacity="0.97" d="M195.597 88.185C144.401 58.6302 91.563 58.6302 40.3481 88.185C14.7497 102.972 1.95056 117.977 1.95056 133C1.95056 148.024 14.7497 163.029 40.3481 177.816C91.5448 207.37 144.382 207.37 195.597 177.816C221.196 163.029 233.995 148.024 233.995 133C233.995 117.977 221.196 102.972 195.597 88.185Z" fill="#979797"/>
<path d="M193.647 88.185C142.45 58.6303 89.6125 58.6303 38.3975 88.185C12.7992 102.972 0 117.977 0 133C0 148.024 12.7992 163.029 38.3975 177.816C89.5942 207.37 142.432 207.37 193.647 177.816C219.245 163.029 232.044 148.024 232.044 133C232.044 117.977 219.245 102.972 193.647 88.185Z" fill="#949494"/>
</g>
<path d="M193.647 155.463C142.45 185.018 89.6125 185.018 38.3975 155.463C12.7992 140.676 0 125.671 0 110.647V133.019C0 148.042 12.7992 163.047 38.3975 177.834C89.5942 207.389 142.432 207.389 193.647 177.834C219.245 163.047 232.044 148.042 232.044 133.019V110.647C232.044 125.671 219.245 140.676 193.647 155.463Z" fill="url(#paint0_linear_3026_15535)"/>
<path d="M193.647 65.832C142.45 36.2773 89.6125 36.2773 38.3975 65.832C12.7992 80.6186 0 95.6239 0 110.647C0 125.671 12.7992 140.676 38.3975 155.463C89.5942 185.018 142.432 185.018 193.647 155.463C219.245 140.676 232.044 125.671 232.044 110.647C232.044 95.6239 219.245 80.6186 193.647 65.832Z" fill="#EF5619"/>
<path d="M179.261 74.1278C137.546 50.0427 94.4988 50.0427 52.783 74.1278C31.925 86.1612 21.4961 98.3952 21.4961 110.629C21.4961 122.863 31.925 135.097 52.783 147.131C94.4988 171.216 137.546 171.216 179.243 147.131C200.101 135.097 210.53 122.863 210.53 110.629C210.53 98.3952 200.101 86.1612 179.243 74.1278H179.261Z" fill="#EF6719"/>
<mask id="mask0_3026_15535" style="mask-type:luminance" maskUnits="userSpaceOnUse" x="0" y="43" width="233" height="135">
<path d="M193.647 65.832C142.45 36.2773 89.6125 36.2773 38.3975 65.832C12.7992 80.6186 0 95.6239 0 110.647C0 125.671 12.7992 140.676 38.3975 155.463C89.5942 185.018 142.432 185.018 193.647 155.463C219.245 140.676 232.044 125.671 232.044 110.647C232.044 95.6239 219.245 80.6186 193.647 65.832Z" fill="white"/>
</mask>
<g mask="url(#mask0_3026_15535)">
<g style="mix-blend-mode:multiply">
<path opacity="0.03" d="M245.755 44.7006L171.731 1.96374C167.739 -0.333547 164.129 -0.552407 161.503 0.979118L153.408 5.66487C150.782 7.17816 149.16 10.4235 149.16 15.0181V76.6985C149.16 85.9059 155.669 97.1918 163.636 101.786L237.66 144.523C241.635 146.821 245.263 147.039 247.888 145.508C248.545 145.125 249.146 144.651 249.657 144.049C249.128 144.633 248.545 145.125 247.888 145.508L256.002 140.822C258.627 139.309 260.25 136.063 260.25 131.469V69.7884C260.25 60.581 253.723 49.3134 245.773 44.7006H245.755Z" fill="#FEFBFA"/>
<path opacity="0.06" d="M242.839 44.7006L168.815 1.96374C164.822 -0.333547 161.212 -0.552407 158.587 0.979118L150.491 5.66487C147.866 7.17816 146.243 10.4235 146.243 15.0181V76.6985C146.243 85.9059 152.752 97.1918 160.72 101.786L234.743 144.523C238.718 146.821 242.346 147.039 244.972 145.508C245.628 145.125 246.23 144.651 246.74 144.049C246.212 144.633 245.628 145.125 244.972 145.508L253.067 140.822C255.693 139.309 257.315 136.063 257.315 131.469V69.7884C257.315 60.581 250.788 49.3134 242.839 44.7006Z" fill="#FDF6F5"/>
<path opacity="0.09" d="M239.921 44.7006L165.897 1.96374C161.905 -0.333547 158.295 -0.552407 155.669 0.979118L147.574 5.66487C144.948 7.17816 143.326 10.4235 143.326 15.0181V76.6985C143.326 85.9059 149.835 97.1918 157.802 101.786L231.826 144.523C235.801 146.821 239.429 147.039 242.054 145.508C242.711 145.125 243.312 144.651 243.823 144.049C243.294 144.633 242.711 145.125 242.054 145.508L250.168 140.822C252.793 139.309 254.416 136.063 254.416 131.469V69.7884C254.416 60.581 247.889 49.3134 239.939 44.7006H239.921Z" fill="#FCF2F0"/>
<path opacity="0.12" d="M236.985 44.7006L162.961 1.96374C158.969 -0.333547 155.358 -0.552407 152.733 0.979118L144.638 5.66487C142.012 7.17816 140.39 10.4235 140.39 15.0181V76.6985C140.39 85.9059 146.899 97.1918 154.866 101.786L228.89 144.523C232.865 146.821 236.493 147.039 239.118 145.508C239.775 145.125 240.376 144.651 240.887 144.049C240.358 144.633 239.775 145.125 239.118 145.508L247.214 140.822C249.839 139.309 251.462 136.063 251.462 131.469V69.7884C251.462 60.581 244.934 49.3134 236.985 44.7006Z" fill="#FBEEEB"/>
<path opacity="0.15" d="M234.069 44.7006L160.045 1.96374C156.052 -0.333547 152.442 -0.552407 149.817 0.979118L141.721 5.66487C139.096 7.17816 137.473 10.4235 137.473 15.0181V76.6985C137.473 85.9059 143.982 97.1918 151.95 101.786L225.973 144.523C229.948 146.821 233.576 147.039 236.202 145.508C236.858 145.125 237.46 144.651 237.97 144.049C237.442 144.633 236.858 145.125 236.202 145.508L244.297 140.822C246.923 139.309 248.545 136.063 248.545 131.469V69.7884C248.545 60.581 242.018 49.3134 234.069 44.7006Z" fill="#FAE9E6"/>
<path opacity="0.18" d="M231.133 44.7006L157.109 1.96374C153.116 -0.333547 149.506 -0.552407 146.88 0.979118L138.785 5.66487C136.16 7.17816 134.537 10.4235 134.537 15.0181V76.6985C134.537 85.9059 141.046 97.1918 149.014 101.786L223.037 144.523C227.012 146.821 230.64 147.039 233.266 145.508C233.922 145.125 234.524 144.651 235.034 144.049C234.506 144.633 233.922 145.125 233.266 145.508L241.361 140.822C243.986 139.309 245.609 136.063 245.609 131.469V69.7884C245.609 60.581 239.082 49.3134 231.133 44.7006Z" fill="#F8E5E1"/>
<path opacity="0.21" d="M228.216 44.7006L154.192 1.96374C150.199 -0.333547 146.589 -0.552407 143.964 0.979118L135.869 5.66487C133.243 7.17816 131.621 10.4235 131.621 15.0181V76.6985C131.621 85.9059 138.13 97.1918 146.097 101.786L220.121 144.523C224.096 146.821 227.724 147.039 230.349 145.508C231.006 145.125 231.607 144.651 232.118 144.049C231.589 144.633 231.006 145.125 230.349 145.508L238.463 140.822C241.088 139.309 242.711 136.063 242.711 131.469V69.7884C242.711 60.581 236.184 49.3134 228.234 44.7006H228.216Z" fill="#F7E1DC"/>
<path opacity="0.24" d="M225.299 44.7006L151.275 1.96374C147.282 -0.333547 143.672 -0.552407 141.047 0.979118L132.952 5.66487C130.326 7.17816 128.703 10.4235 128.703 15.0181V76.6985C128.703 85.9059 135.212 97.1918 143.18 101.786L217.204 144.523C221.178 146.821 224.807 147.039 227.432 145.508C228.088 145.125 228.69 144.651 229.201 144.049C228.672 144.633 228.088 145.125 227.432 145.508L235.546 140.822C238.171 139.309 239.794 136.063 239.794 131.469V69.7884C239.794 60.581 233.266 49.3134 225.317 44.7006H225.299Z" fill="#F6DDD7"/>
<path opacity="0.27" d="M222.364 44.7006L148.34 1.96374C144.347 -0.333547 140.737 -0.552407 138.112 0.979118L130.016 5.66487C127.391 7.17816 125.768 10.4235 125.768 15.0181V76.6985C125.768 85.9059 132.277 97.1918 140.245 101.786L214.268 144.523C218.243 146.821 221.871 147.039 224.497 145.508C225.153 145.125 225.755 144.651 226.265 144.049C225.737 144.633 225.153 145.125 224.497 145.508L232.61 140.822C235.236 139.309 236.858 136.063 236.858 131.469V69.7884C236.858 60.581 230.331 49.3134 222.382 44.7006H222.364Z" fill="#F5D8D3"/>
<path opacity="0.3" d="M219.446 44.7006L145.423 1.96374C141.43 -0.333547 137.82 -0.552407 135.194 0.979118L127.099 5.66487C124.473 7.17816 122.851 10.4235 122.851 15.0181V76.6985C122.851 85.9059 129.36 97.1918 137.327 101.786L211.351 144.523C215.326 146.821 218.954 147.039 221.58 145.508C222.236 145.125 222.838 144.651 223.348 144.049C222.819 144.633 222.236 145.125 221.58 145.508L229.675 140.822C232.3 139.309 233.923 136.063 233.923 131.469V69.7884C233.923 60.581 227.396 49.3134 219.446 44.7006Z" fill="#F4D4CE"/>
<path opacity="0.33" d="M216.529 44.7006L142.505 1.96374C138.512 -0.333547 134.902 -0.552407 132.277 0.979118L124.182 5.66487C121.556 7.17816 119.933 10.4235 119.933 15.0181V76.6985C119.933 85.9059 126.442 97.1918 134.41 101.786L208.434 144.523C212.408 146.821 216.037 147.039 218.662 145.508C219.318 145.125 219.92 144.651 220.431 144.049C219.902 144.633 219.318 145.125 218.662 145.508L226.775 140.822C229.401 139.309 231.024 136.063 231.024 131.469V69.7884C231.024 60.581 224.496 49.3134 216.547 44.7006H216.529Z" fill="#F3D0C9"/>
<path opacity="0.36" d="M213.594 44.7006L139.57 1.96374C135.577 -0.333547 131.967 -0.552407 129.342 0.979118L121.246 5.66487C118.621 7.17816 116.998 10.4235 116.998 15.0181V76.6985C116.998 85.9059 123.507 97.1918 131.475 101.786L205.499 144.523C209.473 146.821 213.102 147.039 215.727 145.508C216.383 145.125 216.985 144.651 217.496 144.049C216.967 144.633 216.383 145.125 215.727 145.508L223.84 140.822C226.466 139.309 228.089 136.063 228.089 131.469V69.7884C228.089 60.581 221.561 49.3134 213.612 44.7006H213.594Z" fill="#F2CBC4"/>
<path opacity="0.39" d="M210.676 44.7006L136.653 1.96374C132.66 -0.333547 129.05 -0.552407 126.424 0.979118L118.329 5.66487C115.704 7.17816 114.081 10.4235 114.081 15.0181V76.6985C114.081 85.9059 120.59 97.1918 128.557 101.786L202.581 144.523C206.556 146.821 210.184 147.039 212.81 145.508C213.466 145.125 214.068 144.651 214.578 144.049C214.049 144.633 213.466 145.125 212.81 145.508L220.905 140.822C223.53 139.309 225.153 136.063 225.153 131.469V69.7884C225.153 60.581 218.626 49.3134 210.676 44.7006Z" fill="#F1C7BF"/>
<path opacity="0.42" d="M207.741 44.7006L133.717 1.96374C129.725 -0.333547 126.114 -0.552407 123.489 0.979118L115.394 5.66487C112.768 7.17816 111.146 10.4235 111.146 15.0181V76.6985C111.146 85.9059 117.655 97.1918 125.622 101.786L199.646 144.523C203.621 146.821 207.249 147.039 209.874 145.508C210.531 145.125 211.132 144.651 211.643 144.049C211.114 144.633 210.531 145.125 209.874 145.508L217.97 140.822C220.595 139.309 222.218 136.063 222.218 131.469V69.7884C222.218 60.581 215.69 49.3134 207.741 44.7006Z" fill="#F0C3BA"/>
<path opacity="0.45" d="M204.824 44.7006L130.8 1.96374C126.807 -0.333547 123.197 -0.552407 120.572 0.979118L112.476 5.66487C109.851 7.17816 108.228 10.4235 108.228 15.0181V76.6985C108.228 85.9059 114.737 97.1918 122.705 101.786L196.729 144.523C200.703 146.821 204.331 147.039 206.957 145.508C207.613 145.125 208.215 144.651 208.725 144.049C208.197 144.633 207.613 145.125 206.957 145.508L215.052 140.822C217.678 139.309 219.3 136.063 219.3 131.469V69.7884C219.3 60.581 212.773 49.3134 204.824 44.7006Z" fill="#EFBEB5"/>
<path opacity="0.48" d="M201.906 44.7006L127.883 1.96374C123.89 -0.333547 120.28 -0.552407 117.654 0.979118L109.559 5.66487C106.934 7.17816 105.311 10.4235 105.311 15.0181V76.6985C105.311 85.9059 111.82 97.1918 119.787 101.786L193.811 144.523C197.786 146.821 201.414 147.039 204.04 145.508C204.696 145.125 205.298 144.651 205.808 144.049C205.279 144.633 204.696 145.125 204.04 145.508L212.153 140.822C214.779 139.309 216.401 136.063 216.401 131.469V69.7884C216.401 60.581 209.874 49.3134 201.925 44.7006H201.906Z" fill="#EEBAB0"/>
<path opacity="0.52" d="M198.971 44.7006L124.948 1.96374C120.955 -0.333547 117.345 -0.552407 114.719 0.979118L106.624 5.66487C103.998 7.17816 102.376 10.4235 102.376 15.0181V76.6985C102.376 85.9059 108.885 97.1918 116.852 101.786L190.876 144.523C194.851 146.821 198.479 147.039 201.104 145.508C201.761 145.125 202.362 144.651 202.873 144.049C202.344 144.633 201.761 145.125 201.104 145.508L209.2 140.822C211.825 139.309 213.448 136.063 213.448 131.469V69.7884C213.448 60.581 206.921 49.3134 198.971 44.7006Z" fill="#ECB6AB"/>
<path opacity="0.55" d="M196.054 44.7006L122.03 1.96374C118.037 -0.333547 114.427 -0.552407 111.802 0.979118L103.707 5.66487C101.081 7.17816 99.4584 10.4235 99.4584 15.0181V76.6985C99.4584 85.9059 105.967 97.1918 113.935 101.786L187.959 144.523C191.933 146.821 195.562 147.039 198.187 145.508C198.843 145.125 199.445 144.651 199.956 144.049C199.427 144.633 198.843 145.125 198.187 145.508L206.282 140.822C208.908 139.309 210.53 136.063 210.53 131.469V69.7884C210.53 60.581 204.003 49.3134 196.054 44.7006Z" fill="#EBB2A6"/>
<path opacity="0.58" d="M193.119 44.7006L119.095 1.96374C115.102 -0.333547 111.492 -0.552407 108.867 0.979118L100.771 5.66487C98.1459 7.17816 96.5232 10.4235 96.5232 15.0181V76.6985C96.5232 85.9059 103.032 97.1918 111 101.786L185.023 144.523C188.998 146.821 192.626 147.039 195.252 145.508C195.908 145.125 196.51 144.651 197.02 144.049C196.492 144.633 195.908 145.125 195.252 145.508L203.347 140.822C205.973 139.309 207.595 136.063 207.595 131.469V69.7884C207.595 60.581 201.068 49.3134 193.119 44.7006Z" fill="#EAADA1"/>
<path opacity="0.61" d="M190.201 44.7006L116.178 1.96374C112.185 -0.333547 108.575 -0.552407 105.949 0.979118L97.854 5.66487C95.2285 7.17816 93.6058 10.4235 93.6058 15.0181V76.6985C93.6058 85.9059 100.115 97.1918 108.082 101.786L182.106 144.523C186.081 146.821 189.709 147.039 192.335 145.508C192.991 145.125 193.593 144.651 194.103 144.049C193.574 144.633 192.991 145.125 192.335 145.508L200.448 140.822C203.073 139.309 204.696 136.063 204.696 131.469V69.7884C204.696 60.581 198.169 49.3134 190.22 44.7006H190.201Z" fill="#E9A99C"/>
<path opacity="0.64" d="M187.284 44.7006L113.26 1.96374C109.267 -0.333547 105.657 -0.552407 103.032 0.979118L94.9366 5.66487C92.3112 7.17816 90.6885 10.4235 90.6885 15.0181V76.6985C90.6885 85.9059 97.1975 97.1918 105.165 101.786L179.189 144.523C183.163 146.821 186.792 147.039 189.417 145.508C190.074 145.125 190.675 144.651 191.186 144.049C190.657 144.633 190.074 145.125 189.417 145.508L197.512 140.822C200.138 139.309 201.761 136.063 201.761 131.469V69.7884C201.761 60.581 195.233 49.3134 187.284 44.7006Z" fill="#E8A597"/>
<path opacity="0.67" d="M184.349 44.7006L110.325 1.96374C106.332 -0.333547 102.722 -0.552407 100.097 0.979118L92.0014 5.66487C89.376 7.17816 87.7533 10.4235 87.7533 15.0181V76.6985C87.7533 85.9059 94.2623 97.1918 102.23 101.786L176.254 144.523C180.228 146.821 183.856 147.039 186.482 145.508C187.138 145.125 187.74 144.651 188.251 144.049C187.722 144.633 187.138 145.125 186.482 145.508L194.577 140.822C197.203 139.309 198.825 136.063 198.825 131.469V69.7884C198.825 60.581 192.298 49.3134 184.349 44.7006Z" fill="#E7A092"/>
<path opacity="0.7" d="M181.431 44.7006L107.408 1.96374C103.415 -0.333547 99.8048 -0.552407 97.1793 0.979118L89.0841 5.66487C86.4586 7.17816 84.8359 10.4235 84.8359 15.0181V76.6985C84.8359 85.9059 91.3449 97.1918 99.3125 101.786L173.336 144.523C177.311 146.821 180.939 147.039 183.565 145.508C184.221 145.125 184.823 144.651 185.333 144.049C184.804 144.633 184.221 145.125 183.565 145.508L191.678 140.822C194.304 139.309 195.926 136.063 195.926 131.469V69.7884C195.926 60.581 189.399 49.3134 181.45 44.7006H181.431Z" fill="#E69C8D"/>
<path opacity="0.73" d="M178.496 44.7006L104.473 1.96374C100.48 -0.333547 96.8696 -0.552407 94.2441 0.979118L86.1489 5.66487C83.5234 7.17816 81.9008 10.4235 81.9008 15.0181V76.6985C81.9008 85.9059 88.4097 97.1918 96.3773 101.786L170.401 144.523C174.376 146.821 178.004 147.039 180.629 145.508C181.286 145.125 181.887 144.651 182.398 144.049C181.869 144.633 181.286 145.125 180.629 145.508L188.743 140.822C191.368 139.309 192.991 136.063 192.991 131.469V69.7884C192.991 60.581 186.464 49.3134 178.514 44.7006H178.496Z" fill="#E59888"/>
<path opacity="0.76" d="M175.579 44.7006L101.555 1.96374C97.5623 -0.333547 93.9522 -0.552407 91.3268 0.979118L83.2315 5.66487C80.6061 7.17816 78.9834 10.4235 78.9834 15.0181V76.6985C78.9834 85.9059 85.4924 97.1918 93.46 101.786L167.484 144.523C171.458 146.821 175.087 147.039 177.712 145.508C178.368 145.125 178.97 144.651 179.481 144.049C178.952 144.633 178.368 145.125 177.712 145.508L185.826 140.822C188.451 139.309 190.074 136.063 190.074 131.469V69.7884C190.074 60.581 183.546 49.3134 175.597 44.7006H175.579Z" fill="#E49384"/>
<path opacity="0.79" d="M172.662 44.7006L98.6378 1.96374C94.6449 -0.333547 91.0349 -0.552407 88.4094 0.979118L80.3142 5.66487C77.6887 7.17816 76.066 10.4235 76.066 15.0181V76.6985C76.066 85.9059 82.575 97.1918 90.5426 101.786L164.566 144.523C168.541 146.821 172.169 147.039 174.795 145.508C175.451 145.125 176.053 144.651 176.563 144.049C176.035 144.633 175.451 145.125 174.795 145.508L182.89 140.822C185.515 139.309 187.138 136.063 187.138 131.469V69.7884C187.138 60.581 180.611 49.3134 172.662 44.7006Z" fill="#E38F7F"/>
<path opacity="0.82" d="M169.726 44.7006L95.7026 1.96374C91.7097 -0.333547 88.0997 -0.552407 85.4742 0.979118L77.379 5.66487C74.7535 7.17816 73.1309 10.4235 73.1309 15.0181V76.6985C73.1309 85.9059 79.6398 97.1918 87.6074 101.786L161.631 144.523C165.606 146.821 169.234 147.039 171.86 145.508C172.516 145.125 173.118 144.651 173.628 144.049C173.099 144.633 172.516 145.125 171.86 145.508L179.955 140.822C182.58 139.309 184.203 136.063 184.203 131.469V69.7884C184.203 60.581 177.676 49.3134 169.726 44.7006Z" fill="#E28B7A"/>
<path opacity="0.85" d="M166.809 44.7006L92.7853 1.96374C88.7924 -0.333547 85.1823 -0.552407 82.5569 0.979118L74.4617 5.66487C71.8362 7.17816 70.2135 10.4235 70.2135 15.0181V76.6985C70.2135 85.9059 76.7225 97.1918 84.6901 101.786L158.714 144.523C162.688 146.821 166.317 147.039 168.942 145.508C169.599 145.125 170.2 144.651 170.711 144.049C170.182 144.633 169.599 145.125 168.942 145.508L177.056 140.822C179.681 139.309 181.304 136.063 181.304 131.469V69.7884C181.304 60.581 174.777 49.3134 166.827 44.7006H166.809Z" fill="#E08775"/>
<path opacity="0.88" d="M163.874 44.7006L89.8501 1.96374C85.8572 -0.333547 82.2472 -0.552407 79.6217 0.979118L71.5265 5.66487C68.901 7.17816 67.2783 10.4235 67.2783 15.0181V76.6985C67.2783 85.9059 73.7873 97.1918 81.7549 101.786L155.779 144.523C159.753 146.821 163.382 147.039 166.007 145.508C166.663 145.125 167.265 144.651 167.776 144.049C167.247 144.633 166.663 145.125 166.007 145.508L174.12 140.822C176.746 139.309 178.369 136.063 178.369 131.469V69.7884C178.369 60.581 171.841 49.3134 163.892 44.7006H163.874Z" fill="#DF8270"/>
<path opacity="0.91" d="M160.956 44.7006L86.9327 1.96374C82.9398 -0.333547 79.3298 -0.552407 76.7043 0.979118L68.6091 5.66487C65.9837 7.17816 64.361 10.4235 64.361 15.0181V76.6985C64.361 85.9059 70.8699 97.1918 78.8375 101.786L152.861 144.523C156.836 146.821 160.464 147.039 163.09 145.508C163.746 145.125 164.348 144.651 164.858 144.049C164.329 144.633 163.746 145.125 163.09 145.508L171.185 140.822C173.81 139.309 175.433 136.063 175.433 131.469V69.7884C175.433 60.581 168.906 49.3134 160.956 44.7006Z" fill="#DE7E6B"/>
<path opacity="0.94" d="M158.039 44.7006L84.0154 1.96374C80.0225 -0.333547 76.4124 -0.552407 73.787 0.979118L65.6918 5.66487C63.0663 7.17816 61.4436 10.4235 61.4436 15.0181V76.6985C61.4436 85.9059 67.9526 97.1918 75.9202 101.786L149.944 144.523C153.919 146.821 157.547 147.039 160.172 145.508C160.829 145.125 161.43 144.651 161.941 144.049C161.412 144.633 160.829 145.125 160.172 145.508L168.286 140.822C170.911 139.309 172.534 136.063 172.534 131.469V69.7884C172.534 60.581 166.007 49.3134 158.057 44.7006H158.039Z" fill="#DD7A66"/>
<path opacity="0.97" d="M155.104 44.7006L81.0802 1.96374C77.0873 -0.333547 73.4773 -0.552407 70.8518 0.979118L62.7566 5.66487C60.1311 7.17816 58.5084 10.4235 58.5084 15.0181V76.6985C58.5084 85.9059 65.0174 97.1918 72.985 101.786L147.009 144.523C150.983 146.821 154.612 147.039 157.237 145.508C157.893 145.125 158.495 144.651 159.006 144.049C158.477 144.633 157.893 145.125 157.237 145.508L165.351 140.822C167.976 139.309 169.599 136.063 169.599 131.469V69.7884C169.599 60.581 163.072 49.3134 155.122 44.7006H155.104Z" fill="#DC7561"/>
<path d="M152.187 44.7006L78.1629 1.96374C74.17 -0.333547 70.56 -0.552407 67.9345 0.979118L59.8393 5.66487C57.2139 7.17816 55.5912 10.4235 55.5912 15.0181V76.6985C55.5912 85.9059 62.1002 97.1918 70.0678 101.786L144.091 144.523C148.066 146.821 151.694 147.039 154.32 145.508C154.976 145.125 155.578 144.651 156.088 144.049C155.56 144.633 154.976 145.125 154.32 145.508L162.433 140.822C165.059 139.309 166.681 136.063 166.681 131.469V69.7884C166.681 60.581 160.154 49.3134 152.205 44.7006H152.187Z" fill="#DB715C"/>
</g>
</g>
<path d="M152.114 58.1926C149.871 56.8981 148.066 53.7621 148.066 51.1731C148.066 49.8786 148.522 48.967 149.251 48.5476L141.138 53.2334C140.409 53.6527 139.953 54.5644 139.953 55.8589C139.953 58.4479 141.776 61.5838 144 62.8783C145.131 63.5165 146.134 63.5895 146.863 63.1701L154.976 58.4844C154.247 58.9037 153.226 58.8489 152.114 58.1926Z" fill="url(#paint1_linear_3026_15535)"/>
<path d="M137.345 49.6781C135.103 48.3835 133.298 45.2476 133.298 42.6586C133.298 41.3641 133.754 40.4525 134.483 40.0331L126.369 44.7188C125.64 45.1381 125.184 46.0497 125.184 47.3442C125.184 49.9333 127.008 53.0693 129.232 54.3638C130.362 55.0202 131.365 55.0748 132.113 54.6555L140.226 49.9697C139.497 50.3891 138.476 50.3344 137.364 49.6781H137.345Z" fill="url(#paint2_linear_3026_15535)"/>
<path d="M122.595 41.1453C120.352 39.8508 118.547 36.7147 118.547 34.1257C118.547 32.8312 119.003 31.9196 119.732 31.5002L111.619 36.186C110.89 36.6053 110.434 37.517 110.434 38.8115C110.434 41.4005 112.257 44.5365 114.481 45.831C115.612 46.4874 116.615 46.542 117.344 46.1227L125.457 41.4369C124.728 41.8563 123.707 41.8016 122.595 41.1453Z" fill="url(#paint3_linear_3026_15535)"/>
<path d="M107.827 32.6308C105.585 31.3363 103.78 28.2002 103.78 25.6112C103.78 24.3167 104.235 23.4051 104.965 22.9857L96.8512 27.6715C96.1219 28.0908 95.6661 29.0025 95.6661 30.297C95.6661 32.886 97.4894 36.0219 99.7137 37.3164C100.826 37.9728 101.847 38.0275 102.576 37.6082L110.69 32.9224C109.96 33.3418 108.939 33.2871 107.827 32.6308Z" fill="url(#paint4_linear_3026_15535)"/>
<path d="M93.0587 24.0979C90.8162 22.8034 89.0111 19.6674 89.0111 17.0784C89.0111 15.7839 89.467 14.8723 90.1963 14.4529L82.0828 19.1387C81.3535 19.558 80.8977 20.4697 80.8977 21.7642C80.8977 24.3532 82.721 27.4891 84.9453 28.7836C86.0575 29.44 87.0785 29.4948 87.8078 29.0754L95.9213 24.3897C95.192 24.809 94.1709 24.7542 93.0587 24.0979Z" fill="url(#paint5_linear_3026_15535)"/>
<path d="M78.2901 15.5834C76.0475 14.2889 74.2425 11.1529 74.2425 8.56393C74.2425 7.26943 74.6983 6.3578 75.4276 5.93845L67.3141 10.6242C66.5848 11.0436 66.129 11.9552 66.129 13.2497C66.129 15.8387 67.934 18.9746 70.1766 20.2691C71.2888 20.9073 72.3098 20.9802 73.0391 20.5427L81.1526 15.8569C80.4233 16.2763 79.4022 16.2215 78.2901 15.5834Z" fill="url(#paint6_linear_3026_15535)"/>
<path d="M158.568 136.155V74.4741C158.568 65.2667 152.041 53.9992 144.091 49.3864L70.0676 6.64949C66.0747 4.35221 62.4647 4.13335 59.8392 5.66487C57.2138 7.17816 55.5911 10.4235 55.5911 15.0181V76.6985C55.5911 85.9059 62.1001 97.1918 70.0676 101.786L144.091 144.523C148.066 146.821 151.694 147.039 154.32 145.508C156.945 143.994 158.568 140.749 158.568 136.155ZM66.1294 13.2314C66.1294 11.9369 66.5852 11.0253 67.3145 10.6059C68.0438 10.1866 69.0648 10.2412 70.177 10.8976C72.4196 12.1921 74.2246 15.3281 74.2246 17.9171C74.2246 19.2116 73.7688 20.1233 73.0395 20.5426C72.3102 20.962 71.2892 20.9072 70.177 20.2508C67.9344 18.9563 66.1294 15.8204 66.1294 13.2314ZM80.8977 21.7642C80.8977 20.4696 81.3535 19.558 82.0828 19.1387C82.8121 18.7193 83.8331 18.7741 84.9453 19.4122C87.1879 20.7067 88.9929 23.8426 88.9929 26.4317C88.9929 27.7262 88.5371 28.6378 87.8078 29.0571C87.0785 29.4765 86.0575 29.4217 84.9453 28.7654C82.7027 27.4708 80.8977 24.3349 80.8977 21.7459V21.7642ZM95.666 30.2969C95.666 29.0024 96.1218 28.0908 96.8511 27.6714C97.5804 27.2521 98.6014 27.3068 99.7136 27.945C101.956 29.2395 103.761 32.3754 103.761 34.9644C103.761 36.2589 103.305 37.1706 102.576 37.5899C101.847 38.0093 100.826 37.9546 99.7136 37.2982C97.471 36.0037 95.666 32.8677 95.666 30.2787V30.2969ZM110.434 38.8114C110.434 37.5169 110.89 36.6053 111.619 36.186C112.349 35.7666 113.37 35.8214 114.482 36.4595C116.724 37.754 118.529 40.8899 118.529 43.4789C118.529 44.7735 118.074 45.6851 117.344 46.1044C116.615 46.5238 115.594 46.4691 114.482 45.8128C112.239 44.5182 110.434 41.3822 110.434 38.7932V38.8114ZM125.203 47.3442C125.203 46.0497 125.658 45.1381 126.388 44.7187C127.117 44.2994 128.138 44.3541 129.25 44.9923C131.493 46.2868 133.298 49.4409 133.298 52.0117C133.298 53.3062 132.842 54.2178 132.113 54.6372C131.383 55.0565 130.362 55.0019 129.25 54.3455C127.008 53.051 125.203 49.9151 125.203 47.3261V47.3442ZM139.953 55.8589C139.953 54.5643 140.408 53.6527 141.138 53.2334C141.867 52.814 142.888 52.8687 144 53.525C146.243 54.8195 148.048 57.9556 148.048 60.5446C148.048 61.8391 147.592 62.7507 146.863 63.1701C146.133 63.5894 145.112 63.5347 144 62.8783C141.758 61.5838 139.953 58.4479 139.953 55.8589Z" fill="#FAFAFA"/>
<path d="M73.1121 78.3942L132.386 112.617V117.047L73.1121 82.8247V78.3942Z" fill="#193640"/>
<path d="M73.1121 65.905L141.046 105.123V109.554L73.1121 70.3355V65.905Z" fill="#193640"/>
<path d="M73.1121 53.3975L141.046 92.6337V97.0642L73.1121 57.828V53.3975Z" fill="#193640"/>
<path d="M73.1121 40.9083L141.046 80.1263V84.575L73.1121 45.3388V40.9083Z" fill="#193640"/>
<path d="M152.186 44.7006L78.1625 1.96374C74.1696 -0.333547 70.5596 -0.552407 67.9341 0.979118L59.8207 5.66487C62.4462 4.15158 66.0744 4.35221 70.0491 6.64949L144.073 49.3864C152.04 53.9809 158.549 65.2667 158.549 74.4741V136.154C158.549 140.749 156.927 143.994 154.301 145.508L162.396 140.822C165.022 139.309 166.645 136.063 166.645 131.469V69.7883C166.645 60.581 160.117 49.3134 152.168 44.7006H152.186Z" fill="url(#paint7_linear_3026_15535)"/>
<defs>
<linearGradient id="paint0_linear_3026_15535" x1="0" y1="155.317" x2="232.044" y2="155.317" gradientUnits="userSpaceOnUse">
<stop stop-color="#FF682B"/>
<stop offset="0.07" stop-color="#FF6A2E"/>
<stop offset="0.3" stop-color="#FF6D31"/>
<stop offset="0.55" stop-color="#F65C20"/>
<stop offset="0.74" stop-color="#F3571B"/>
<stop offset="1" stop-color="#C93000"/>
</linearGradient>
<linearGradient id="paint1_linear_3026_15535" x1="139.953" y1="56.0047" x2="154.995" y2="56.0047" gradientUnits="userSpaceOnUse">
<stop stop-color="#D2D2D2"/>
<stop offset="0.33" stop-color="#E5E4E4"/>
<stop offset="0.68" stop-color="#F2F0F0"/>
<stop offset="1" stop-color="#F7F5F5"/>
</linearGradient>
<linearGradient id="paint2_linear_3026_15535" x1="125.203" y1="47.4719" x2="140.226" y2="47.4719" gradientUnits="userSpaceOnUse">
<stop stop-color="#D2D2D2"/>
<stop offset="0.33" stop-color="#E5E4E4"/>
<stop offset="0.68" stop-color="#F2F0F0"/>
<stop offset="1" stop-color="#F7F5F5"/>
</linearGradient>
<linearGradient id="paint3_linear_3026_15535" x1="110.434" y1="38.9391" x2="125.457" y2="38.9391" gradientUnits="userSpaceOnUse">
<stop stop-color="#D2D2D2"/>
<stop offset="0.33" stop-color="#E5E4E4"/>
<stop offset="0.68" stop-color="#F2F0F0"/>
<stop offset="1" stop-color="#F7F5F5"/>
</linearGradient>
<linearGradient id="paint4_linear_3026_15535" x1="95.6661" y1="30.4246" x2="110.69" y2="30.4246" gradientUnits="userSpaceOnUse">
<stop stop-color="#D2D2D2"/>
<stop offset="0.33" stop-color="#E5E4E4"/>
<stop offset="0.68" stop-color="#F2F0F0"/>
<stop offset="1" stop-color="#F7F5F5"/>
</linearGradient>
<linearGradient id="paint5_linear_3026_15535" x1="80.8977" y1="21.8918" x2="95.9213" y2="21.8918" gradientUnits="userSpaceOnUse">
<stop stop-color="#D2D2D2"/>
<stop offset="0.33" stop-color="#E5E4E4"/>
<stop offset="0.68" stop-color="#F2F0F0"/>
<stop offset="1" stop-color="#F7F5F5"/>
</linearGradient>
<linearGradient id="paint6_linear_3026_15535" x1="66.129" y1="13.3773" x2="81.1708" y2="13.3773" gradientUnits="userSpaceOnUse">
<stop stop-color="#D2D2D2"/>
<stop offset="0.33" stop-color="#E5E4E4"/>
<stop offset="0.68" stop-color="#F2F0F0"/>
<stop offset="1" stop-color="#F7F5F5"/>
</linearGradient>
<linearGradient id="paint7_linear_3026_15535" x1="59.8389" y1="72.7603" x2="166.663" y2="72.7603" gradientUnits="userSpaceOnUse">
<stop stop-color="#F7F5F5"/>
<stop offset="0.58" stop-color="#F2F0F0"/>
<stop offset="1" stop-color="#EBE9E9"/>
</linearGradient>
</defs>
</svg>
