<svg width="297" height="200" viewBox="0 0 297 200" fill="none" xmlns="http://www.w3.org/2000/svg">
<g style="mix-blend-mode:multiply">
<path opacity="0.03" d="M255.791 88.3031C204.64 58.7747 151.85 58.7747 100.681 88.3031C75.1053 103.076 62.3175 118.068 62.3175 133.078C62.3175 148.088 75.1053 163.08 100.681 177.854C151.832 207.382 204.622 207.382 255.791 177.854C281.367 163.08 294.155 148.088 294.155 133.078C294.155 118.068 281.367 103.076 255.791 88.3031Z" fill="#FCFCFC"/>
<path opacity="0.06" d="M253.842 88.3031C202.691 58.7747 149.901 58.7747 98.7316 88.3031C73.1561 103.076 60.3684 118.068 60.3684 133.078C60.3684 148.088 73.1561 163.08 98.7316 177.854C149.883 207.382 202.673 207.382 253.842 177.854C279.418 163.08 292.206 148.088 292.206 133.078C292.206 118.068 279.418 103.076 253.842 88.3031Z" fill="#F9F9F9"/>
<path opacity="0.09" d="M251.911 88.3031C200.76 58.7747 147.97 58.7747 96.8006 88.3031C71.2251 103.076 58.4374 118.068 58.4374 133.078C58.4374 148.088 71.2251 163.08 96.8006 177.854C147.952 207.382 200.742 207.382 251.911 177.854C277.487 163.08 290.274 148.088 290.274 133.078C290.274 118.068 277.487 103.076 251.911 88.3031Z" fill="#F5F5F5"/>
<path opacity="0.12" d="M249.962 88.3031C198.811 58.7747 146.021 58.7747 94.8515 88.3031C69.276 103.076 56.4883 118.068 56.4883 133.078C56.4883 148.088 69.276 163.08 94.8515 177.854C146.003 207.382 198.793 207.382 249.962 177.854C275.538 163.08 288.325 148.088 288.325 133.078C288.325 118.068 275.538 103.076 249.962 88.3031Z" fill="#F2F2F2"/>
<path opacity="0.15" d="M248.013 88.3031C196.862 58.7747 144.072 58.7747 92.9024 88.3031C67.3269 103.076 54.5392 118.068 54.5392 133.078C54.5392 148.088 67.3269 163.08 92.9024 177.854C144.053 207.382 196.844 207.382 248.013 177.854C273.589 163.08 286.376 148.088 286.376 133.078C286.376 118.068 273.589 103.076 248.013 88.3031Z" fill="#EFEFEF"/>
<path opacity="0.18" d="M246.064 88.3031C194.913 58.7747 142.123 58.7747 90.9533 88.3031C65.3778 103.076 52.5901 118.068 52.5901 133.078C52.5901 148.088 65.3778 163.08 90.9533 177.854C142.104 207.382 194.895 207.382 246.064 177.854C271.639 163.08 284.427 148.088 284.427 133.078C284.427 118.068 271.639 103.076 246.064 88.3031Z" fill="#ECECEC"/>
<path opacity="0.21" d="M244.115 88.3031C192.964 58.7747 140.173 58.7747 89.0041 88.3031C63.4286 103.076 50.6409 118.068 50.6409 133.078C50.6409 148.088 63.4286 163.08 89.0041 177.854C140.155 207.382 192.946 207.382 244.115 177.854C269.69 163.08 282.478 148.088 282.478 133.078C282.478 118.068 269.69 103.076 244.115 88.3031Z" fill="#E8E8E8"/>
<path opacity="0.24" d="M242.166 88.3031C191.015 58.7747 138.224 58.7747 87.055 88.3031C61.4795 103.076 48.6918 118.068 48.6918 133.078C48.6918 148.088 61.4795 163.08 87.055 177.854C138.206 207.382 190.996 207.382 242.166 177.854C267.741 163.08 280.529 148.088 280.529 133.078C280.529 118.068 267.741 103.076 242.166 88.3031Z" fill="#E5E5E5"/>
<path opacity="0.27" d="M240.217 88.3031C189.066 58.7747 136.275 58.7747 85.1059 88.3031C59.5304 103.076 46.7427 118.068 46.7427 133.078C46.7427 148.088 59.5304 163.08 85.1059 177.854C136.257 207.382 189.047 207.382 240.217 177.854C265.792 163.08 278.58 148.088 278.58 133.078C278.58 118.068 265.792 103.076 240.217 88.3031Z" fill="#E2E2E2"/>
<path opacity="0.3" d="M238.267 88.3031C187.116 58.7747 134.326 58.7747 83.1568 88.3031C57.5813 103.076 44.7936 118.068 44.7936 133.078C44.7936 148.088 57.5813 163.08 83.1568 177.854C134.308 207.382 187.098 207.382 238.267 177.854C263.843 163.08 276.631 148.088 276.631 133.078C276.631 118.068 263.843 103.076 238.267 88.3031Z" fill="#DFDFDF"/>
<path opacity="0.33" d="M236.318 88.3031C185.167 58.7747 132.377 58.7747 81.2076 88.3031C55.6321 103.076 42.8444 118.068 42.8444 133.078C42.8444 148.088 55.6321 163.08 81.2076 177.854C132.359 207.382 185.149 207.382 236.318 177.854C261.894 163.08 274.681 148.088 274.681 133.078C274.681 118.068 261.894 103.076 236.318 88.3031Z" fill="#DBDBDB"/>
<path opacity="0.36" d="M234.369 88.3031C183.218 58.7747 130.428 58.7747 79.2585 88.3031C53.683 103.076 40.8953 118.068 40.8953 133.078C40.8953 148.088 53.683 163.08 79.2585 177.854C130.409 207.382 183.2 207.382 234.369 177.854C259.945 163.08 272.732 148.088 272.732 133.078C272.732 118.068 259.945 103.076 234.369 88.3031Z" fill="#D8D8D8"/>
<path opacity="0.39" d="M232.42 88.3031C181.269 58.7747 128.479 58.7747 77.3094 88.3031C51.7339 103.076 38.9462 118.068 38.9462 133.078C38.9462 148.088 51.7339 163.08 77.3094 177.854C128.46 207.382 181.251 207.382 232.42 177.854C257.996 163.08 270.783 148.088 270.783 133.078C270.783 118.068 257.996 103.076 232.42 88.3031Z" fill="#D5D5D5"/>
<path opacity="0.42" d="M230.471 88.3031C179.32 58.7747 126.53 58.7747 75.3603 88.3031C49.7848 103.076 36.9971 118.068 36.9971 133.078C36.9971 148.088 49.7848 163.08 75.3603 177.854C126.511 207.382 179.302 207.382 230.471 177.854C256.046 163.08 268.834 148.088 268.834 133.078C268.834 118.068 256.046 103.076 230.471 88.3031Z" fill="#D2D2D2"/>
<path opacity="0.45" d="M228.522 88.3031C177.371 58.7747 124.58 58.7747 73.4111 88.3031C47.8356 103.076 35.0479 118.068 35.0479 133.078C35.0479 148.088 47.8356 163.08 73.4111 177.854C124.562 207.382 177.353 207.382 228.522 177.854C254.097 163.08 266.885 148.088 266.885 133.078C266.885 118.068 254.097 103.076 228.522 88.3031Z" fill="#CECECE"/>
<path opacity="0.48" d="M226.573 88.3031C175.422 58.7747 122.631 58.7747 71.462 88.3031C45.8865 103.076 33.0988 118.068 33.0988 133.078C33.0988 148.088 45.8865 163.08 71.462 177.854C122.613 207.382 175.403 207.382 226.573 177.854C252.148 163.08 264.936 148.088 264.936 133.078C264.936 118.068 252.148 103.076 226.573 88.3031Z" fill="#CBCBCB"/>
<path opacity="0.52" d="M224.642 88.3031C173.491 58.7747 120.7 58.7747 69.5311 88.3031C43.9556 103.076 31.1678 118.068 31.1678 133.078C31.1678 148.088 43.9556 163.08 69.5311 177.854C120.682 207.382 173.472 207.382 224.642 177.854C250.217 163.08 263.005 148.088 263.005 133.078C263.005 118.068 250.217 103.076 224.642 88.3031Z" fill="#C8C8C8"/>
<path opacity="0.55" d="M222.693 88.3031C171.542 58.7747 118.751 58.7747 67.582 88.3031C42.0065 103.076 29.2188 118.068 29.2188 133.078C29.2188 148.088 42.0065 163.08 67.582 177.854C118.733 207.382 171.523 207.382 222.693 177.854C248.268 163.08 261.056 148.088 261.056 133.078C261.056 118.068 248.268 103.076 222.693 88.3031Z" fill="#C5C5C5"/>
<path opacity="0.58" d="M220.743 88.3031C169.593 58.7747 116.802 58.7747 65.6329 88.3031C40.0574 103.076 27.2697 118.068 27.2697 133.078C27.2697 148.088 40.0574 163.08 65.6329 177.854C116.784 207.382 169.574 207.382 220.743 177.854C246.319 163.08 259.107 148.088 259.107 133.078C259.107 118.068 246.319 103.076 220.743 88.3031Z" fill="#C1C1C1"/>
<path opacity="0.61" d="M218.794 88.3031C167.643 58.7747 114.853 58.7747 63.6837 88.3031C38.1082 103.076 25.3204 118.068 25.3204 133.078C25.3204 148.088 38.1082 163.08 63.6837 177.854C114.835 207.382 167.625 207.382 218.794 177.854C244.37 163.08 257.158 148.088 257.158 133.078C257.158 118.068 244.37 103.076 218.794 88.3031Z" fill="#BEBEBE"/>
<path opacity="0.64" d="M216.845 88.3031C165.694 58.7747 112.904 58.7747 61.7346 88.3031C36.1591 103.076 23.3713 118.068 23.3713 133.078C23.3713 148.088 36.1591 163.08 61.7346 177.854C112.886 207.382 165.676 207.382 216.845 177.854C242.421 163.08 255.208 148.088 255.208 133.078C255.208 118.068 242.421 103.076 216.845 88.3031Z" fill="#BBBBBB"/>
<path opacity="0.67" d="M214.896 88.3031C163.745 58.7747 110.955 58.7747 59.7855 88.3031C34.21 103.076 21.4222 118.068 21.4222 133.078C21.4222 148.088 34.21 163.08 59.7855 177.854C110.936 207.382 163.727 207.382 214.896 177.854C240.472 163.08 253.259 148.088 253.259 133.078C253.259 118.068 240.472 103.076 214.896 88.3031Z" fill="#B8B8B8"/>
<path opacity="0.7" d="M212.947 88.3031C161.796 58.7747 109.005 58.7747 57.8363 88.3031C32.2608 103.076 19.473 118.068 19.473 133.078C19.473 148.088 32.2608 163.08 57.8363 177.854C108.987 207.382 161.778 207.382 212.947 177.854C238.522 163.08 251.31 148.088 251.31 133.078C251.31 118.068 238.522 103.076 212.947 88.3031Z" fill="#B4B4B4"/>
<path opacity="0.73" d="M210.998 88.3031C159.847 58.7747 107.056 58.7747 55.8872 88.3031C30.3117 103.076 17.5239 118.068 17.5239 133.078C17.5239 148.088 30.3117 163.08 55.8872 177.854C107.038 207.382 159.829 207.382 210.998 177.854C236.573 163.08 249.361 148.088 249.361 133.078C249.361 118.068 236.573 103.076 210.998 88.3031Z" fill="#B1B1B1"/>
<path opacity="0.76" d="M209.049 88.3031C157.898 58.7747 105.107 58.7747 53.9381 88.3031C28.3626 103.076 15.5748 118.068 15.5748 133.078C15.5748 148.088 28.3626 163.08 53.9381 177.854C105.089 207.382 157.879 207.382 209.049 177.854C234.624 163.08 247.412 148.088 247.412 133.078C247.412 118.068 234.624 103.076 209.049 88.3031Z" fill="#AEAEAE"/>
<path opacity="0.79" d="M207.099 88.3031C155.949 58.7747 103.158 58.7747 51.9889 88.3031C26.4134 103.076 13.6256 118.068 13.6256 133.078C13.6256 148.088 26.4134 163.08 51.9889 177.854C103.14 207.382 155.93 207.382 207.099 177.854C232.675 163.08 245.463 148.088 245.463 133.078C245.463 118.068 232.675 103.076 207.099 88.3031Z" fill="#ABABAB"/>
<path opacity="0.82" d="M205.15 88.3031C153.999 58.7747 101.209 58.7747 50.0398 88.3031C24.4643 103.076 11.6765 118.068 11.6765 133.078C11.6765 148.088 24.4643 163.08 50.0398 177.854C101.191 207.382 153.981 207.382 205.15 177.854C230.726 163.08 243.514 148.088 243.514 133.078C243.514 118.068 230.726 103.076 205.15 88.3031Z" fill="#A7A7A7"/>
<path opacity="0.85" d="M203.201 88.3031C152.05 58.7747 99.2599 58.7747 48.0907 88.3031C22.5152 103.076 9.72742 118.068 9.72742 133.078C9.72742 148.088 22.5152 163.08 48.0907 177.854C99.2416 207.382 152.032 207.382 203.201 177.854C228.777 163.08 241.565 148.088 241.565 133.078C241.565 118.068 228.777 103.076 203.201 88.3031Z" fill="#A4A4A4"/>
<path opacity="0.88" d="M201.252 88.3031C150.101 58.7747 97.3108 58.7747 46.1416 88.3031C20.5661 103.076 7.77832 118.068 7.77832 133.078C7.77832 148.088 20.5661 163.08 46.1416 177.854C97.2925 207.382 150.083 207.382 201.252 177.854C226.828 163.08 239.615 148.088 239.615 133.078C239.615 118.068 226.828 103.076 201.252 88.3031Z" fill="#A1A1A1"/>
<path opacity="0.91" d="M199.303 88.3031C148.152 58.7747 95.3617 58.7747 44.1925 88.3031C18.617 103.076 5.82922 118.068 5.82922 133.078C5.82922 148.088 18.617 163.08 44.1925 177.854C95.3434 207.382 148.134 207.382 199.303 177.854C224.879 163.08 237.666 148.088 237.666 133.078C237.666 118.068 224.879 103.076 199.303 88.3031Z" fill="#9E9E9E"/>
<path opacity="0.94" d="M197.372 88.3031C146.221 58.7747 93.4308 58.7747 42.2616 88.3031C16.6861 103.076 3.89832 118.068 3.89832 133.078C3.89832 148.088 16.6861 163.08 42.2616 177.854C93.4125 207.382 146.203 207.382 197.372 177.854C222.948 163.08 235.735 148.088 235.735 133.078C235.735 118.068 222.948 103.076 197.372 88.3031Z" fill="#9A9A9A"/>
<path opacity="0.97" d="M195.423 88.3031C144.272 58.7747 91.4815 58.7747 40.3123 88.3031C14.7368 103.076 1.9491 118.068 1.9491 133.078C1.9491 148.088 14.7368 163.08 40.3123 177.854C91.4633 207.382 144.254 207.382 195.423 177.854C220.998 163.08 233.786 148.088 233.786 133.078C233.786 118.068 220.998 103.076 195.423 88.3031Z" fill="#979797"/>
<path d="M193.474 88.3031C142.323 58.7747 89.5324 58.7747 38.3632 88.3031C12.7877 103.076 0 118.068 0 133.078C0 148.089 12.7877 163.08 38.3632 177.854C89.5142 207.382 142.305 207.382 193.474 177.854C219.049 163.08 231.837 148.089 231.837 133.078C231.837 118.068 219.049 103.076 193.474 88.3031Z" fill="#949494"/>
</g>
<path d="M193.474 155.503C142.323 185.031 89.5324 185.031 38.3632 155.503C12.7877 140.729 0 125.737 0 110.727V133.078C0 148.089 12.7877 163.08 38.3632 177.854C89.5142 207.382 142.305 207.382 193.474 177.854C219.049 163.08 231.837 148.089 231.837 133.078V110.727C231.837 125.737 219.049 140.729 193.474 155.503Z" fill="url(#paint0_linear_3026_15436)"/>
<path d="M193.474 65.9518C142.323 36.4234 89.5324 36.4234 38.3632 65.9518C12.7877 80.7251 0 95.7171 0 110.727C0 125.737 12.7877 140.729 38.3632 155.502C89.5142 185.031 142.305 185.031 193.474 155.502C219.049 140.729 231.837 125.737 231.837 110.727C231.837 95.7171 219.049 80.7251 193.474 65.9518Z" fill="#FFDB32"/>
<path d="M183 82.2006C144.746 60.1044 105.253 60.1044 66.9809 82.2006C47.8539 93.2396 38.2904 104.461 38.2904 115.682C38.2904 126.903 47.8539 138.124 66.9809 149.163C105.235 171.259 144.727 171.259 183 149.163C202.127 138.124 211.69 126.903 211.69 115.682C211.69 104.461 202.127 93.2396 183 82.2006Z" fill="#FFCC32"/>
<path d="M178.682 93.1486C149.81 76.4808 120.008 76.4808 91.1355 93.1486C76.69 101.492 69.4764 109.944 69.4764 118.414C69.4764 126.885 76.69 135.355 91.1355 143.68C120.008 160.348 149.81 160.348 178.682 143.68C193.128 135.337 200.341 126.885 200.341 118.414C200.341 109.944 193.128 101.473 178.682 93.1486Z" fill="#FFDB32"/>
<mask id="mask0_3026_15436" style="mask-type:luminance" maskUnits="userSpaceOnUse" x="0" y="43" width="232" height="135">
<path d="M193.474 65.9518C142.323 36.4234 89.5324 36.4234 38.3632 65.9518C12.7877 80.7251 0 95.7171 0 110.727C0 125.737 12.7877 140.729 38.3632 155.502C89.5142 185.031 142.305 185.031 193.474 155.502C219.049 140.729 231.837 125.737 231.837 110.727C231.837 95.7171 219.049 80.7251 193.474 65.9518Z" fill="white"/>
</mask>
<g mask="url(#mask0_3026_15436)">
<g style="mix-blend-mode:multiply">
<path opacity="0.03" d="M176.952 80.1786L202.09 94.6969L233.914 130.71L245.499 124.025L242.931 116.429C244.224 116.392 245.39 116.083 246.41 115.5L257.996 108.814C260.546 107.339 262.131 104.169 262.131 99.6699V60.7238C262.131 51.725 255.791 40.7589 248.013 36.2595L188.537 1.92199C184.639 -0.318595 181.123 -0.537204 178.555 0.938305L166.969 7.62366C164.419 9.09917 162.834 12.2688 162.834 16.7682V55.7143C162.834 64.7131 169.174 75.6792 176.952 80.1786Z" fill="#FDFCF7"/>
<path opacity="0.06" d="M174.037 80.1786L199.176 94.6969L230.999 130.71L242.585 124.025L240.016 116.429C241.31 116.392 242.475 116.083 243.496 115.5L255.081 108.814C257.631 107.339 259.216 104.169 259.216 99.6699V60.7238C259.216 51.725 252.877 40.7589 245.099 36.2595L185.623 1.92199C181.725 -0.318595 178.209 -0.537204 175.64 0.938305L164.055 7.62366C161.505 9.09917 159.92 12.2688 159.92 16.7682V55.7143C159.92 64.7131 166.259 75.6792 174.037 80.1786Z" fill="#FCF8F0"/>
<path opacity="0.09" d="M171.123 80.1786L196.261 94.6969L228.085 130.71L239.67 124.025L237.102 116.429C238.395 116.392 239.561 116.083 240.581 115.5L252.166 108.814C254.717 107.339 256.301 104.169 256.301 99.6699V60.7238C256.301 51.725 249.962 40.7589 242.184 36.2595L182.708 1.92199C178.81 -0.318595 175.294 -0.537204 172.726 0.938305L161.14 7.62366C158.59 9.09917 157.005 12.2688 157.005 16.7682V55.7143C157.005 64.7131 163.344 75.6792 171.123 80.1786Z" fill="#FAF5E8"/>
<path opacity="0.12" d="M168.19 80.1786L193.328 94.6969L225.152 130.71L236.737 124.025L234.169 116.429C235.462 116.392 236.628 116.083 237.648 115.5L249.234 108.814C251.784 107.339 253.369 104.169 253.369 99.6699V60.7238C253.369 51.725 247.029 40.7589 239.251 36.2595L179.775 1.92199C175.877 -0.318595 172.361 -0.537204 169.793 0.938305L158.207 7.62366C155.657 9.09917 154.072 12.2688 154.072 16.7682V55.7143C154.072 64.7131 160.412 75.6792 168.19 80.1786Z" fill="#F9F2E0"/>
<path opacity="0.15" d="M165.275 80.1786L190.414 94.6969L222.237 130.71L233.823 124.025L231.254 116.429C232.548 116.392 233.713 116.083 234.734 115.5L246.319 108.814C248.869 107.339 250.454 104.169 250.454 99.6699V60.7238C250.454 51.725 244.115 40.7589 236.337 36.2595L176.861 1.92199C172.963 -0.318595 169.447 -0.537204 166.878 0.938305L155.293 7.62366C152.743 9.09917 151.158 12.2688 151.158 16.7682V55.7143C151.158 64.7131 157.497 75.6792 165.275 80.1786Z" fill="#F7EED8"/>
<path opacity="0.18" d="M162.343 80.1786L187.481 94.6969L219.304 130.71L230.89 124.025L228.321 116.429C229.615 116.392 230.781 116.083 231.801 115.5L243.386 108.814C245.936 107.339 247.521 104.169 247.521 99.6699V60.7238C247.521 51.725 241.182 40.7589 233.404 36.2595L173.928 1.92199C170.03 -0.318595 166.514 -0.537204 163.946 0.938305L152.36 7.62366C149.81 9.09917 148.225 12.2688 148.225 16.7682V55.7143C148.225 64.7131 154.564 75.6792 162.343 80.1786Z" fill="#F6EBD1"/>
<path opacity="0.21" d="M159.428 80.1786L184.566 94.6969L216.39 130.71L227.975 124.025L225.407 116.429C226.7 116.392 227.866 116.083 228.886 115.5L240.472 108.814C243.022 107.339 244.607 104.169 244.607 99.6699V60.7238C244.607 51.725 238.267 40.7589 230.489 36.2595L171.013 1.92199C167.115 -0.318595 163.599 -0.537204 161.031 0.938305L149.445 7.62366C146.895 9.09917 145.31 12.2688 145.31 16.7682V55.7143C145.31 64.7131 151.65 75.6792 159.428 80.1786Z" fill="#F4E8C9"/>
<path opacity="0.24" d="M156.513 80.1786L181.652 94.6969L213.475 130.71L225.061 124.025L222.492 116.429C223.786 116.392 224.952 116.083 225.972 115.5L237.557 108.814C240.107 107.339 241.692 104.169 241.692 99.6699V60.7238C241.692 51.725 235.353 40.7589 227.575 36.2595L168.099 1.92199C164.201 -0.318595 160.685 -0.537204 158.116 0.938305L146.531 7.62366C143.981 9.09917 142.396 12.2688 142.396 16.7682V55.7143C142.396 64.7131 148.735 75.6792 156.513 80.1786Z" fill="#F3E5C1"/>
<path opacity="0.27" d="M153.581 80.1786L178.719 94.6969L210.542 130.71L222.128 124.025L219.559 116.429C220.853 116.392 222.019 116.083 223.039 115.5L234.624 108.814C237.175 107.339 238.759 104.169 238.759 99.6699V60.7238C238.759 51.725 232.42 40.7589 224.642 36.2595L165.166 1.92199C161.268 -0.318595 157.752 -0.537204 155.184 0.938305L143.598 7.62366C141.048 9.09917 139.463 12.2688 139.463 16.7682V55.7143C139.463 64.7131 145.802 75.6792 153.581 80.1786Z" fill="#F1E1B9"/>
<path opacity="0.3" d="M150.666 80.1786L175.804 94.6969L207.628 130.71L219.213 124.025L216.645 116.429C217.938 116.392 219.104 116.083 220.124 115.5L231.71 108.814C234.26 107.339 235.845 104.169 235.845 99.6699V60.7238C235.845 51.725 229.505 40.7589 221.727 36.2595L162.251 1.92199C158.353 -0.318595 154.837 -0.537204 152.269 0.938305L140.683 7.62366C138.133 9.09917 136.548 12.2688 136.548 16.7682V55.7143C136.548 64.7131 142.888 75.6792 150.666 80.1786Z" fill="#F0DEB2"/>
<path opacity="0.33" d="M147.733 80.1786L172.871 94.6969L204.695 130.71L216.281 124.025L213.712 116.429C215.005 116.392 216.171 116.083 217.191 115.5L228.777 108.814C231.327 107.339 232.912 104.169 232.912 99.6699V60.7238C232.912 51.725 226.573 40.7589 218.794 36.2595L159.319 1.92199C155.42 -0.318595 151.905 -0.537204 149.336 0.938305L137.751 7.62366C135.2 9.09917 133.616 12.2688 133.616 16.7682V55.7143C133.616 64.7131 139.955 75.6792 147.733 80.1786Z" fill="#EEDBAA"/>
<path opacity="0.36" d="M144.819 80.1786L169.957 94.6969L201.781 130.71L213.366 124.025L210.798 116.429C212.091 116.392 213.257 116.083 214.277 115.5L225.862 108.814C228.413 107.339 229.997 104.169 229.997 99.6699V60.7238C229.997 51.725 223.658 40.7589 215.88 36.2595L156.404 1.92199C152.506 -0.318595 148.99 -0.537204 146.422 0.938305L134.836 7.62366C132.286 9.09917 130.701 12.2688 130.701 16.7682V55.7143C130.701 64.7131 137.04 75.6792 144.819 80.1786Z" fill="#ECD7A2"/>
<path opacity="0.39" d="M141.904 80.1786L167.042 94.6969L198.866 130.71L210.451 124.025L207.883 116.429C209.176 116.392 210.342 116.083 211.362 115.5L222.948 108.814C225.498 107.339 227.083 104.169 227.083 99.6699V60.7238C227.083 51.725 220.743 40.7589 212.965 36.2595L153.489 1.92199C149.591 -0.318595 146.075 -0.537204 143.507 0.938305L131.921 7.62366C129.371 9.09917 127.786 12.2688 127.786 16.7682V55.7143C127.786 64.7131 134.126 75.6792 141.904 80.1786Z" fill="#EBD49B"/>
<path opacity="0.42" d="M138.971 80.1786L164.109 94.6969L195.933 130.71L207.519 124.025L204.95 116.429C206.243 116.392 207.409 116.083 208.429 115.5L220.015 108.814C222.565 107.339 224.15 104.169 224.15 99.6699V60.7238C224.15 51.725 217.811 40.7589 210.032 36.2595L150.557 1.92199C146.658 -0.318595 143.143 -0.537204 140.574 0.938305L128.989 7.62366C126.438 9.09917 124.854 12.2688 124.854 16.7682V55.7143C124.854 64.7131 131.193 75.6792 138.971 80.1786Z" fill="#E9D193"/>
<path opacity="0.45" d="M136.057 80.1786L161.195 94.6969L193.019 130.71L204.604 124.025L202.036 116.429C203.329 116.392 204.495 116.083 205.515 115.5L217.1 108.814C219.651 107.339 221.235 104.169 221.235 99.6699V60.7238C221.235 51.725 214.896 40.7589 207.118 36.2595L147.642 1.92199C143.744 -0.318595 140.228 -0.537204 137.66 0.938305L126.074 7.62366C123.524 9.09917 121.939 12.2688 121.939 16.7682V55.7143C121.939 64.7131 128.278 75.6792 136.057 80.1786Z" fill="#E8CD8B"/>
<path opacity="0.48" d="M133.124 80.1786L158.262 94.6969L190.086 130.71L201.671 124.025L199.103 116.429C200.396 116.392 201.562 116.083 202.582 115.5L214.167 108.814C216.718 107.339 218.303 104.169 218.303 99.6699V60.7238C218.303 51.725 211.963 40.7589 204.185 36.2595L144.709 1.92199C140.811 -0.318595 137.295 -0.537204 134.727 0.938305L123.141 7.62366C120.591 9.09917 119.006 12.2688 119.006 16.7682V55.7143C119.006 64.7131 125.345 75.6792 133.124 80.1786Z" fill="#E6CA83"/>
<path opacity="0.52" d="M130.209 80.1786L155.348 94.6969L187.171 130.71L198.757 124.025L196.188 116.429C197.481 116.392 198.647 116.083 199.667 115.5L211.253 108.814C213.803 107.339 215.388 104.169 215.388 99.6699V60.7238C215.388 51.725 209.049 40.7589 201.27 36.2595L141.795 1.92199C137.896 -0.318595 134.381 -0.537204 131.812 0.938305L120.227 7.62366C117.676 9.09917 116.092 12.2688 116.092 16.7682V55.7143C116.092 64.7131 122.431 75.6792 130.209 80.1786Z" fill="#E5C77C"/>
<path opacity="0.55" d="M127.295 80.1786L152.433 94.6969L184.257 130.71L195.842 124.025L193.274 116.429C194.567 116.392 195.733 116.083 196.753 115.5L208.338 108.814C210.889 107.339 212.473 104.169 212.473 99.6699V60.7238C212.473 51.725 206.134 40.7589 198.356 36.2595L138.88 1.92199C134.982 -0.318595 131.466 -0.537204 128.898 0.938305L117.312 7.62366C114.762 9.09917 113.177 12.2688 113.177 16.7682V55.7143C113.177 64.7131 119.516 75.6792 127.295 80.1786Z" fill="#E3C474"/>
<path opacity="0.58" d="M124.362 80.1786L149.5 94.6969L181.324 130.71L192.909 124.025L190.341 116.429C191.634 116.392 192.8 116.083 193.82 115.5L205.405 108.814C207.956 107.339 209.541 104.169 209.541 99.6699V60.7238C209.541 51.725 203.201 40.7589 195.423 36.2595L135.947 1.92199C132.049 -0.318595 128.533 -0.537204 125.965 0.938305L114.379 7.62366C111.829 9.09917 110.244 12.2688 110.244 16.7682V55.7143C110.244 64.7131 116.583 75.6792 124.362 80.1786Z" fill="#E2C06C"/>
<path opacity="0.61" d="M121.447 80.1786L146.586 94.6969L178.409 130.71L189.995 124.025L187.426 116.429C188.72 116.392 189.885 116.083 190.905 115.5L202.491 108.814C205.041 107.339 206.626 104.169 206.626 99.6699V60.7238C206.626 51.725 200.287 40.7589 192.508 36.2595L133.033 1.92199C129.134 -0.318595 125.619 -0.537204 123.05 0.938305L111.465 7.62366C108.915 9.09917 107.33 12.2688 107.33 16.7682V55.7143C107.33 64.7131 113.669 75.6792 121.447 80.1786Z" fill="#E0BD64"/>
<path opacity="0.64" d="M118.514 80.1786L143.653 94.6969L175.476 130.71L187.062 124.025L184.493 116.429C185.787 116.392 186.953 116.083 187.973 115.5L199.558 108.814C202.108 107.339 203.693 104.169 203.693 99.6699V60.7238C203.693 51.725 197.354 40.7589 189.576 36.2595L130.1 1.92199C126.202 -0.318595 122.686 -0.537204 120.117 0.938305L108.532 7.62366C105.982 9.09917 104.397 12.2688 104.397 16.7682V55.7143C104.397 64.7131 110.736 75.6792 118.514 80.1786Z" fill="#DFBA5D"/>
<path opacity="0.67" d="M115.6 80.1786L140.738 94.6969L172.562 130.71L184.147 124.025L181.579 116.429C182.872 116.392 184.038 116.083 185.058 115.5L196.644 108.814C199.194 107.339 200.779 104.169 200.779 99.6699V60.7238C200.779 51.725 194.439 40.7589 186.661 36.2595L127.185 1.92199C123.287 -0.318595 119.771 -0.537204 117.203 0.938305L105.617 7.62366C103.067 9.09917 101.482 12.2688 101.482 16.7682V55.7143C101.482 64.7131 107.822 75.6792 115.6 80.1786Z" fill="#DDB655"/>
<path opacity="0.7" d="M112.685 80.1786L137.824 94.6969L169.647 130.71L181.233 124.025L178.664 116.429C179.958 116.392 181.123 116.083 182.143 115.5L193.729 108.814C196.279 107.339 197.864 104.169 197.864 99.6699V60.7238C197.864 51.725 191.525 40.7589 183.747 36.2595L124.271 1.92199C120.372 -0.318595 116.857 -0.537204 114.288 0.938305L102.703 7.62366C100.153 9.09917 98.5677 12.2688 98.5677 16.7682V55.7143C98.5677 64.7131 104.907 75.6792 112.685 80.1786Z" fill="#DBB34D"/>
<path opacity="0.73" d="M109.752 80.1786L134.891 94.6969L166.714 130.71L178.3 124.025L175.731 116.429C177.025 116.392 178.191 116.083 179.211 115.5L190.796 108.814C193.346 107.339 194.931 104.169 194.931 99.6699V60.7238C194.931 51.725 188.592 40.7589 180.814 36.2595L121.338 1.92199C117.44 -0.318595 113.924 -0.537204 111.355 0.938305L99.77 7.62366C97.2197 9.09917 95.6349 12.2688 95.6349 16.7682V55.7143C95.6349 64.7131 101.974 75.6792 109.752 80.1786Z" fill="#DAB046"/>
<path opacity="0.76" d="M106.838 80.1786L131.976 94.6969L163.8 130.71L175.385 124.025L172.817 116.429C174.11 116.392 175.276 116.083 176.296 115.5L187.882 108.814C190.432 107.339 192.017 104.169 192.017 99.6699V60.7238C192.017 51.725 185.677 40.7589 177.899 36.2595L118.423 1.92199C114.525 -0.318595 111.009 -0.537204 108.441 0.938305L96.8554 7.62366C94.3052 9.09917 92.7203 12.2688 92.7203 16.7682V55.7143C92.7203 64.7131 99.0596 75.6792 106.838 80.1786Z" fill="#D8AC3E"/>
<path opacity="0.79" d="M103.905 80.1786L129.043 94.6969L160.867 130.71L172.453 124.025L169.884 116.429C171.177 116.392 172.343 116.083 173.363 115.5L184.949 108.814C187.499 107.339 189.084 104.169 189.084 99.6699V60.7238C189.084 51.725 182.745 40.7589 174.966 36.2595L115.491 1.92199C111.592 -0.318595 108.077 -0.537204 105.508 0.938305L93.9227 7.62366C91.3724 9.09917 89.7876 12.2688 89.7876 16.7682V55.7143C89.7876 64.7131 96.1268 75.6792 103.905 80.1786Z" fill="#D7A936"/>
<path opacity="0.82" d="M100.99 80.1786L126.129 94.6969L157.952 130.71L169.538 124.025L166.969 116.429C168.263 116.392 169.429 116.083 170.449 115.5L182.034 108.814C184.584 107.339 186.169 104.169 186.169 99.6699V60.7238C186.169 51.725 179.83 40.7589 172.052 36.2595L112.576 1.92199C108.678 -0.318595 105.162 -0.537204 102.593 0.938305L91.008 7.62366C88.4577 9.09917 86.8729 12.2688 86.8729 16.7682V55.7143C86.8729 64.7131 93.2121 75.6792 100.99 80.1786Z" fill="#D5A62E"/>
<path opacity="0.85" d="M98.0759 80.1786L123.214 94.6969L155.038 130.71L166.623 124.025L164.055 116.429C165.348 116.392 166.514 116.083 167.534 115.5L179.12 108.814C181.67 107.339 183.255 104.169 183.255 99.6699V60.7238C183.255 51.725 176.915 40.7589 169.137 36.2595L109.661 1.92199C105.763 -0.318595 102.247 -0.537204 99.6789 0.938305L88.0935 7.62366C85.5432 9.09917 83.9584 12.2688 83.9584 16.7682V55.7143C83.9584 64.7131 90.2976 75.6792 98.0759 80.1786Z" fill="#D4A327"/>
<path opacity="0.88" d="M95.143 80.1786L120.281 94.6969L152.105 130.71L163.69 124.025L161.122 116.429C162.415 116.392 163.581 116.083 164.601 115.5L176.187 108.814C178.737 107.339 180.322 104.169 180.322 99.6699V60.7238C180.322 51.725 173.983 40.7589 166.204 36.2595L106.729 1.92199C102.83 -0.318595 99.3145 -0.537204 96.7461 0.938305L85.1606 7.62366C82.6103 9.09917 81.0255 12.2688 81.0255 16.7682V55.7143C81.0255 64.7131 87.3647 75.6792 95.143 80.1786Z" fill="#D29F1F"/>
<path opacity="0.91" d="M92.2285 80.1786L117.367 94.6969L149.19 130.71L160.776 124.025L158.207 116.429C159.501 116.392 160.667 116.083 161.687 115.5L173.272 108.814C175.822 107.339 177.407 104.169 177.407 99.6699V60.7238C177.407 51.725 171.068 40.7589 163.29 36.2595L103.814 1.92199C99.9157 -0.318595 96.4 -0.537204 93.8315 0.938305L82.246 7.62366C79.6958 9.09917 78.111 12.2688 78.111 16.7682V55.7143C78.111 64.7131 84.4502 75.6792 92.2285 80.1786Z" fill="#D19C17"/>
<path opacity="0.94" d="M89.3139 80.1786L114.452 94.6969L146.276 130.71L157.861 124.025L155.293 116.429C156.586 116.392 157.752 116.083 158.772 115.5L170.358 108.814C172.908 107.339 174.493 104.169 174.493 99.6699V60.7238C174.493 51.725 168.153 40.7589 160.375 36.2595L100.899 1.92199C97.0012 -0.318595 93.4854 -0.537204 90.917 0.938305L79.3315 7.62366C76.7812 9.09917 75.1964 12.2688 75.1964 16.7682V55.7143C75.1964 64.7131 81.5356 75.6792 89.3139 80.1786Z" fill="#CF990F"/>
<path opacity="0.97" d="M86.3811 80.1786L111.519 94.6969L143.343 130.71L154.929 124.025L152.36 116.429C153.653 116.392 154.819 116.083 155.839 115.5L167.425 108.814C169.975 107.339 171.56 104.169 171.56 99.6699V60.7238C171.56 51.725 165.221 40.7589 157.442 36.2595L97.9666 1.92199C94.0683 -0.318595 90.5526 -0.537204 87.9841 0.938305L76.3986 7.62366C73.8483 9.09917 72.2635 12.2688 72.2635 16.7682V55.7143C72.2635 64.7131 78.6028 75.6792 86.3811 80.1786Z" fill="#CE9508"/>
<path d="M83.4665 80.1786L108.605 94.6969L140.428 130.71L152.014 124.025L149.445 116.429C150.739 116.392 151.905 116.083 152.925 115.5L164.51 108.814C167.06 107.339 168.645 104.169 168.645 99.6699V60.7238C168.645 51.725 162.306 40.7589 154.528 36.2595L95.052 1.92199C91.1537 -0.318595 87.638 -0.537204 85.0695 0.938305L73.4841 7.62366C70.9338 9.09917 69.349 12.2688 69.349 16.7682V55.7143C69.349 64.7131 75.6882 75.6792 83.4665 80.1786Z" fill="#CC9200"/>
</g>
</g>
<path d="M144.564 102.075L132.978 108.76L140.41 130.71L152.014 124.025L144.564 102.075Z" fill="#99C900"/>
<path d="M154.528 36.2595L95.0519 1.92202C91.1537 -0.318564 87.638 -0.537174 85.0695 0.938335L73.484 7.62369C76.0343 6.14818 79.5682 6.34858 83.4665 8.60738L142.942 42.9449C150.739 47.4443 157.06 58.4104 157.06 67.4091V106.355C157.06 110.855 155.475 114.024 152.925 115.5L164.51 108.814C167.06 107.339 168.645 104.169 168.645 99.67V60.7238C168.645 51.725 162.306 40.7589 154.528 36.2595Z" fill="url(#paint1_linear_3026_15436)"/>
<path d="M83.4665 8.60734L142.942 42.9448C150.739 47.4442 157.06 58.4103 157.06 67.4091V106.355C157.06 110.855 155.475 114.024 152.925 115.5C150.374 116.975 146.841 116.775 142.942 114.516L141.503 113.678L132.978 108.76L140.428 130.71L108.605 94.6969L83.4665 80.1786C75.6882 75.6792 69.349 64.7131 69.349 55.7143V16.7681C69.349 12.2688 70.9338 9.09916 73.4841 7.62366C76.0343 6.14815 79.5683 6.34854 83.4665 8.60734Z" fill="#B1D400"/>
<path d="M113.195 50.0673C110.463 48.4825 107.985 48.3368 106.182 49.3751L99.2235 53.3827C101.009 52.3443 103.504 52.4901 106.237 54.0749C111.702 57.2263 116.146 64.9135 116.146 71.2345C116.146 74.4042 115.035 76.6265 113.25 77.6466L120.209 73.639C121.994 72.6007 123.105 70.3784 123.105 67.227C123.105 60.906 118.66 53.2187 113.195 50.0673Z" fill="white"/>
<path d="M96.3271 59.813C96.3271 66.134 100.772 73.8213 106.237 76.9727C108.969 78.5575 111.447 78.7032 113.25 77.6649C115.035 76.6266 116.146 74.4042 116.146 71.2528C116.146 64.9317 111.702 57.2446 106.237 54.0932C103.504 52.5084 101.027 52.3626 99.2235 53.4009C97.4201 54.4393 96.3271 56.6616 96.3271 59.813Z" fill="#F0F0F0"/>
<path d="M87.3284 38.3178C85.3246 37.152 83.503 37.0427 82.1732 37.8078L77.0544 40.7588C78.366 39.9937 80.1876 40.103 82.2096 41.2689C86.2354 43.5823 89.4779 49.2293 89.4779 53.8745C89.4779 56.1879 88.6581 57.8274 87.3466 58.5924L92.4653 55.6414C93.7769 54.8764 94.5966 53.2551 94.5966 50.9234C94.5966 46.2783 91.3359 40.6495 87.3284 38.3178Z" fill="white"/>
<path d="M74.9414 45.4768C74.9414 50.1219 78.2021 55.7507 82.2279 58.0824C84.2316 59.2482 86.0533 59.3575 87.3648 58.5924C88.6764 57.8274 89.4961 56.2061 89.4961 53.8745C89.4961 49.2293 86.2354 43.6005 82.2279 41.2689C80.2241 40.103 78.4025 39.9937 77.0727 40.7588C75.7611 41.5239 74.9414 43.1451 74.9414 45.4768Z" fill="#F0F0F0"/>
<path d="M138.917 67.7917C136.913 66.6258 135.091 66.5165 133.761 67.2816L128.643 70.2326C129.954 69.4676 131.776 69.5769 133.798 70.7427C137.824 73.0561 141.066 78.7032 141.066 83.3483C141.066 85.6617 140.246 87.3012 138.935 88.0663L144.054 85.1153C145.365 84.3502 146.185 82.729 146.185 80.3973C146.185 75.7522 142.924 70.1233 138.917 67.7917Z" fill="white"/>
<path d="M126.53 74.9324C126.53 79.5775 129.79 85.2063 133.816 87.5379C135.82 88.7038 137.641 88.8131 138.953 88.048C140.265 87.2829 141.084 85.6617 141.084 83.33C141.084 78.6849 137.824 73.0561 133.816 70.7244C131.812 69.5586 129.991 69.4493 128.661 70.2144C127.349 70.9795 126.53 72.6007 126.53 74.9324Z" fill="#F0F0F0"/>
<defs>
<linearGradient id="paint0_linear_3026_15436" x1="0" y1="155.357" x2="231.837" y2="155.357" gradientUnits="userSpaceOnUse">
<stop stop-color="#FFED44"/>
<stop offset="0.07" stop-color="#FFEF47"/>
<stop offset="0.3" stop-color="#FFF24A"/>
<stop offset="0.55" stop-color="#FFE139"/>
<stop offset="0.74" stop-color="#FFDC34"/>
<stop offset="1" stop-color="#F9B519"/>
</linearGradient>
<linearGradient id="paint1_linear_3026_15436" x1="99.1324" y1="-7.16785" x2="165.694" y2="108.122" gradientUnits="userSpaceOnUse">
<stop stop-color="#99C900"/>
<stop offset="0.03" stop-color="#99C900"/>
<stop offset="0.3" stop-color="#99C900"/>
<stop offset="0.41" stop-color="#8AC500"/>
<stop offset="0.55" stop-color="#80C200"/>
<stop offset="0.74" stop-color="#7EC200"/>
<stop offset="1" stop-color="#7EC200"/>
</linearGradient>
</defs>
</svg>
