<svg width="288" height="182" viewBox="0 0 288 182" fill="none" xmlns="http://www.w3.org/2000/svg">
<g clip-path="url(#clip0_3918:54462)">
<path opacity="0.4" d="M85.8131 89.5116C95.2972 75.2235 129.772 46.0805 191.796 43.8136" stroke="url(#paint0_linear_3918:54462)" stroke-width="4.93761"/>
<path opacity="0.4" d="M81.3332 70.7188C90.5763 85.1914 124.557 115.009 186.533 118.497" stroke="url(#paint1_linear_3918:54462)" stroke-width="4.93761"/>
<g filter="url(#filter0_d_3918:54462)">
<rect x="21" y="31.2188" width="101.107" height="107.393" rx="6.45385" fill="white"/>
</g>
<mask id="mask0_3918:54462" style="mask-type:alpha" maskUnits="userSpaceOnUse" x="33" y="47" width="36" height="37">
<circle cx="51.2737" cy="65.6857" r="17.7013" fill="#C4C4C4"/>
</mask>
<g mask="url(#mask0_3918:54462)">
<circle cx="51.2737" cy="65.6857" r="17.4098" fill="white" stroke="#17E885" stroke-width="0.582934"/>
<path d="M57.036 68.1567C56.5762 67.6969 55.6393 67.2766 55.6393 66.8168V63.5977H48.2821V66.8168C48.2821 67.2766 46.7446 67.7451 46.7446 68.1567L45.5096 68.9801C45.0498 68.9801 45.1461 68.9801 44.6863 68.9801C45.6059 72.1988 48.7419 74.6335 51.9607 74.6335C55.1794 74.6335 58.5381 73.4338 59.9176 70.215C59.4578 69.7552 58.3191 69.4399 57.8593 68.9801L57.036 68.1567Z" fill="#F4A66E" stroke="#014793" stroke-width="0.411658" stroke-miterlimit="10" stroke-linecap="round" stroke-linejoin="round"/>
<path d="M57.0178 58.4881C57.0183 58.5215 57.0135 58.5547 57.0044 58.5868L56.7659 59.4249C56.728 59.5581 56.8921 59.6545 56.9901 59.5566C57.0191 59.5276 57.0329 59.4866 57.0358 59.4457C57.0407 59.3756 57.0644 59.2637 57.1583 59.186C57.3103 59.0602 57.5286 59.1758 57.647 59.3337C57.7322 59.4473 57.8258 59.5922 57.8862 59.745C57.9305 59.8569 57.938 59.9787 57.9377 60.099C57.9359 60.9583 57.9077 61.8176 57.478 62.6769C57.166 63.3008 56.9666 63.9805 56.6145 64.5827C56.0288 65.5846 54.7129 67.0455 51.9601 67.2752C49.8965 67.2752 48.6365 66.2567 47.9278 65.3625C47.2924 64.5607 46.8998 63.5919 46.4423 62.6769C45.9824 61.7573 45.9824 60.8377 45.9824 59.9181V59.8131C45.9824 59.6172 46.1412 59.4584 46.3372 59.4584H46.346C46.4088 59.4584 46.4703 59.4766 46.523 59.5109C46.7623 59.6663 47.0714 59.4601 47.0198 59.1795L46.9116 58.5906C46.9053 58.5559 46.902 58.5204 46.9023 58.4851C46.9211 56.7411 47.8577 55.1865 49.2447 54.2888C50.8495 53.25 53.0237 53.4731 54.6003 54.5542C56.0266 55.5324 56.9962 57.0074 57.0178 58.4881Z" fill="#F4A66E" stroke="#014793" stroke-width="0.411658" stroke-miterlimit="10" stroke-linecap="round" stroke-linejoin="round"/>
<path d="M55.6393 60.3786C57.0188 60.8384 57.4786 57.16 57.4786 55.3207C57.4786 53.0215 53.3402 52.1016 51.9607 52.1016C50.5812 52.1016 46.9027 52.5617 46.4428 55.3207C45.983 57.16 46.4428 59.9188 47.8222 60.3786C49.2017 60.8384 46.9027 54.4009 48.7419 55.7804C50.5812 56.7 54.2598 54.8607 55.1794 55.7804C56.5589 57.1598 54.7196 60.3786 55.6393 60.3786Z" fill="#C9C9C9" stroke="#014793" stroke-width="0.411658" stroke-miterlimit="10" stroke-linecap="round" stroke-linejoin="round"/>
<path d="M67.1494 75.6498C66.6933 74.6618 65.781 73.674 64.8686 72.686C64.8686 72.686 57.57 68.734 57.1138 68.24C56.6577 68.24 55.2892 73.6737 52.0961 73.6737C49.3591 73.6737 47.5345 67.7461 47.0783 67.7461C46.6221 67.7461 39.3236 72.1921 39.3236 72.1921C38.4112 72.6861 37.4989 73.674 37.0428 75.1559C36.1304 77.1319 35.6743 82.0718 35.2181 85.0357H68.9741C68.5179 82.5658 68.0618 77.6258 67.1494 75.6498Z" fill="#046BFF" stroke="#014793" stroke-width="0.411658" stroke-miterlimit="10" stroke-linecap="round" stroke-linejoin="round"/>
</g>
<mask id="mask1_3918:54462" style="mask-type:alpha" maskUnits="userSpaceOnUse" x="75" y="47" width="36" height="37">
<circle cx="93.263" cy="65.6857" r="17.7013" fill="#C4C4C4"/>
</mask>
<g mask="url(#mask1_3918:54462)">
<circle cx="93.263" cy="65.6857" r="17.4098" fill="white" stroke="#17E885" stroke-width="0.582934"/>
<path d="M103.054 65.7439C102.831 64.8508 101.938 64.4043 101.938 63.5112C101.938 62.6181 102.384 61.948 102.384 61.055C102.384 60.1619 101.714 59.7153 101.268 58.8222C100.821 58.1524 101.044 57.2593 100.598 56.5895C100.151 55.9197 99.4816 55.4732 98.5885 55.4732C98.1419 55.4732 97.6954 55.4732 97.2488 55.4732C96.8023 55.4732 96.3558 55.0268 95.9093 54.8035C95.0162 54.357 94.3463 53.9103 93.4533 54.1336C92.7834 54.3569 92.1136 54.5802 91.4438 55.0267C90.5507 55.0267 89.6576 55.2501 88.9878 55.9199C88.5413 56.3664 88.318 56.8129 88.0947 57.2595C87.4249 57.4827 86.9784 57.9292 86.7551 58.8222C86.5318 59.7153 86.9784 60.8318 86.9784 61.7249V61.9481C86.7551 61.9481 86.7551 62.1713 86.7551 62.1713C86.5318 62.3946 86.5318 62.618 86.5318 62.8412V63.0645C86.3085 63.511 86.0853 63.9575 85.862 64.404C85.6388 64.404 85.4155 64.6275 85.4155 64.8507C85.1922 65.074 85.1922 65.2973 85.1922 65.7439C85.1922 66.1904 85.4155 66.4137 85.4155 66.8602C85.4155 67.3068 85.1922 67.0834 84.7457 67.3067C84.5224 67.3067 84.2991 67.5298 84.0758 67.7531C83.6293 68.1997 83.8526 68.8696 83.6293 69.5394C83.406 70.2092 82.9595 70.4324 83.406 71.1022C83.6293 71.772 84.2991 71.9953 84.9689 71.9953C85.4154 71.9953 85.6388 71.7722 85.862 71.5489L86.0852 71.3257C86.3085 71.5489 86.5318 71.5489 86.9784 71.5489C87.4249 71.5489 87.6482 71.3257 88.0947 71.3257C88.5413 71.3257 88.9878 71.5489 89.4343 71.5489C90.3274 71.5489 90.9973 71.3256 91.4438 70.6558C91.6671 70.6558 91.6671 70.6557 91.8903 70.879C92.7834 71.1022 93.6765 71.1023 94.5696 70.6558C95.0162 70.4325 95.4627 70.2093 95.9093 70.4325C96.3558 70.4325 96.8023 70.879 97.2488 70.879C98.1419 71.1022 99.2583 71.3257 100.151 71.3257C102.161 71.1024 102.161 69.5395 102.831 67.9766C103.277 67.0835 103.277 66.4137 103.054 65.7439Z" fill="#666666" stroke="#014793" stroke-width="0.411658" stroke-miterlimit="10" stroke-linecap="round" stroke-linejoin="round"/>
<path d="M97.9171 69.3125C97.4706 69.0893 97.024 68.6428 97.024 67.973L96.8007 65.0703H90.3259L90.1026 67.973C90.1026 68.4195 89.6561 68.866 89.2095 69.3125L88.0932 69.9822C87.6466 70.2055 87.4233 70.4289 86.9768 70.4289C88.0932 73.1081 90.5492 77.3503 93.675 77.3503C96.8008 77.3503 99.2567 73.3314 100.373 70.6521C99.9266 70.4288 99.48 70.2055 99.0335 69.9822L97.9171 69.3125Z" fill="#C98A5C" stroke="#014793" stroke-width="0.411658" stroke-miterlimit="10" stroke-linecap="round" stroke-linejoin="round"/>
<path d="M98.1401 60.8299V61.9462L98.3633 61.723H98.5866L98.8099 61.9462C98.8099 62.8393 98.8099 63.5091 98.3633 64.4022C98.3633 64.6254 98.1401 64.8488 97.9168 65.0721C97.9168 65.2954 97.6935 65.2953 97.4703 65.2953C97.4703 65.5186 97.4703 65.742 97.4703 65.742C97.4703 66.6351 97.0237 67.5282 96.3539 67.9747L95.0143 69.0911C94.5677 69.5376 93.8979 69.5375 93.4514 69.5375C92.7816 69.5375 92.335 69.3143 91.8885 69.0911L90.5488 67.9747C89.879 67.3049 89.4325 66.6351 89.4325 65.742C89.4325 65.5187 89.4325 65.2953 89.4325 65.2953C89.2092 65.2953 89.2092 65.2954 88.986 65.0721C88.7627 64.8488 88.7627 64.6254 88.5394 64.4022C88.3161 63.7323 88.0929 62.8393 88.0929 61.9462C88.0929 61.723 88.0928 61.723 88.3161 61.723H88.5394L88.7627 61.9462V60.8299C88.7627 58.3739 90.7721 58.5971 93.2281 58.5971C96.1306 58.5971 94.5678 54.8015 98.1401 60.8299Z" fill="#C98A5C" stroke="#014793" stroke-width="0.411658" stroke-miterlimit="10" stroke-linecap="round" stroke-linejoin="round"/>
<path d="M105.061 73.1086C104.614 72.4388 103.944 71.9923 103.051 71.5458C103.051 71.5458 98.5859 69.5363 98.1394 69.3131C97.9161 69.3131 96.3532 75.788 93.6739 75.788C90.9947 75.788 89.4318 69.0898 89.2085 69.0898C88.762 69.0898 84.2965 71.5458 84.2965 71.5458C83.4034 71.9923 82.7336 72.4388 82.2871 73.1086C81.6173 74.2249 80.9474 81.8163 80.5009 83.6025H106.847C106.624 81.8163 105.954 74.2249 105.061 73.1086Z" fill="#8046F2" stroke="#014793" stroke-width="0.411658" stroke-miterlimit="10" stroke-linecap="round" stroke-linejoin="round"/>
<path d="M91.219 65.9685C92.3354 66.4151 93.675 65.5218 93.675 65.5218C92.5586 64.6287 91.219 65.9685 91.219 65.9685Z" fill="#666666" stroke="#014793" stroke-width="0.411658" stroke-miterlimit="10" stroke-linecap="round" stroke-linejoin="round"/>
<path d="M93.6746 65.5218C93.6746 65.5218 95.0141 66.6383 96.1305 65.9685C96.1305 65.9685 94.7909 64.6287 93.6746 65.5218Z" fill="#666666" stroke="#014793" stroke-width="0.411658" stroke-miterlimit="10" stroke-linecap="round" stroke-linejoin="round"/>
</g>
<mask id="mask2_3918:54462" style="mask-type:alpha" maskUnits="userSpaceOnUse" x="33" y="88" width="36" height="36">
<circle cx="51.2737" cy="105.717" r="17.7013" fill="#C4C4C4"/>
</mask>
<g mask="url(#mask2_3918:54462)">
<circle cx="51.2737" cy="105.717" r="17.4098" fill="white" stroke="#17E885" stroke-width="0.582934"/>
<path d="M55.9289 96.3138C53.8601 93.6242 52.205 95.0722 50.9637 95.0722C49.7223 95.0722 47.8604 93.4173 45.9984 96.3138C44.5502 98.5895 41.24 108.934 46.2053 108.313H56.1358C59.2391 109.554 58.4116 99.417 55.9289 96.3138Z" fill="#C9C9C9" stroke="#014793" stroke-width="0.411658" stroke-miterlimit="10" stroke-linecap="round" stroke-linejoin="round"/>
<path d="M51.1703 118.243C55.5149 118.243 55.308 110.588 55.308 110.588C54.4805 110.382 54.0667 109.761 54.0667 108.934V106.244V103.141H51.1703H48.2739V106.244V108.934C48.2739 109.761 47.8601 110.382 47.0326 110.588C47.0326 110.588 46.8257 118.243 51.1703 118.243Z" fill="#C98A5C" stroke="#014793" stroke-width="0.411658" stroke-miterlimit="10" stroke-linecap="round" stroke-linejoin="round"/>
<path d="M62.9629 115.348C61.3078 112.037 54.2737 109.762 54.2737 109.762C55.515 111.417 53.653 115.141 51.1704 115.141C48.6878 115.141 46.8258 111.417 48.0671 109.762C48.0671 109.762 40.8261 112.037 39.3779 115.348C38.3435 117.623 35.8298 123.83 37.278 123.83L51.1704 125.476L65.4456 122.589C66.48 122.795 63.9973 117.623 62.9629 115.348Z" fill="#BFB0FF" stroke="#014793" stroke-width="0.411658" stroke-miterlimit="10" stroke-linecap="round" stroke-linejoin="round"/>
<path d="M52.6191 97.1406C54.4811 97.1406 55.9293 101.278 55.9293 101.278L56.1362 101.072C56.1362 101.072 56.3431 100.865 56.5499 101.072C56.7568 101.072 56.7568 101.278 56.7568 101.278C56.7568 102.106 56.7568 102.934 56.3431 103.761C56.1362 103.968 56.1362 104.382 55.9293 104.589C55.9293 104.796 55.7224 104.796 55.5155 104.796C55.5155 105.002 55.3086 106.244 54.688 107.485C53.8604 108.933 52.6191 109.347 51.3778 109.347C50.1365 109.347 48.8952 109.14 48.0676 107.485C47.2401 105.83 47.2401 104.796 47.0332 104.796C46.8263 104.796 46.6194 104.796 46.6194 104.589C46.4125 104.382 46.2056 104.175 46.2056 103.761C45.9987 102.934 45.7919 102.106 45.7919 101.278C45.7919 101.071 45.7919 101.072 45.9988 101.072C46.2057 101.072 46.2056 101.072 46.4125 101.072L46.6194 101.278L46.8263 100.451C46.6194 98.1753 52.6191 97.1406 52.6191 97.1406Z" fill="#C98A5C" stroke="#014793" stroke-width="0.411658" stroke-miterlimit="10" stroke-linecap="round" stroke-linejoin="round"/>
<path d="M48.8952 117.83C46.4125 116.795 45.7919 110.589 45.7919 110.589L48.0676 108.934C48.2745 109.968 48.6883 115.14 50.964 115.14L48.8952 117.83Z" fill="#8046F2" stroke="#014793" stroke-width="0.411658" stroke-miterlimit="10" stroke-linecap="round" stroke-linejoin="round"/>
<path d="M53.2384 117.83C55.721 116.795 56.3417 110.589 56.3417 110.589L54.0659 108.934C53.8591 109.968 53.4453 115.14 51.1696 115.14L53.2384 117.83Z" fill="#8046F2" stroke="#014793" stroke-width="0.411658" stroke-miterlimit="10" stroke-linecap="round" stroke-linejoin="round"/>
</g>
<mask id="mask3_3918:54462" style="mask-type:alpha" maskUnits="userSpaceOnUse" x="75" y="88" width="36" height="36">
<circle cx="93.263" cy="105.717" r="17.7013" fill="#C4C4C4"/>
</mask>
<g mask="url(#mask3_3918:54462)">
<circle cx="93.263" cy="105.717" r="17.4098" fill="white" stroke="#17E885" stroke-width="0.582934"/>
<path d="M99.6502 98.9374C97.8941 95.8644 100.748 92.1328 93.5041 92.1328C86.2604 92.1328 89.1139 95.8644 87.3579 98.9374C86.0409 101.352 86.6994 109.254 86.4799 110.791H100.748C100.309 109.254 100.967 101.352 99.6502 98.9374Z" fill="#FFA302" stroke="#014793" stroke-width="0.439011" stroke-miterlimit="10" stroke-linecap="round" stroke-linejoin="round"/>
<path d="M93.5061 117.157C97.8962 117.157 97.6766 109.035 97.6766 109.035C97.0181 108.815 96.3596 108.157 96.3596 107.279V104.425V101.133H93.5061H90.6525V104.425V107.279C90.6525 108.157 90.2135 108.815 89.3354 109.035C89.3354 109.035 89.1159 117.157 93.5061 117.157Z" fill="#F4A66E" stroke="#014793" stroke-width="0.439011" stroke-miterlimit="10" stroke-linecap="round" stroke-linejoin="round"/>
<path d="M93.5068 114.741C90.8728 114.741 89.1167 109.912 90.4337 108.156L86.9217 109.912L83.8486 111.449C82.0925 112.327 80.3365 117.375 79.678 121.985L93.5068 124.653L107.555 121.985C106.897 117.375 105.141 112.327 103.385 111.449L100.311 109.912L96.7994 108.156C97.8969 109.912 96.1409 114.741 93.5068 114.741Z" fill="#0099FF" stroke="#014793" stroke-width="0.439011" stroke-miterlimit="10" stroke-linecap="round" stroke-linejoin="round"/>
<path d="M93.945 95.207C95.701 95.207 98.3351 99.158 98.3351 99.158L98.5545 98.9385C98.5545 98.9385 98.7741 98.719 98.7741 98.9385C98.9936 98.9385 98.9936 99.158 98.9936 99.158C98.9936 100.036 98.9936 100.914 98.5545 101.792C98.5545 102.012 98.335 102.451 98.1155 102.67C98.1155 102.89 97.896 102.89 97.6765 102.89C97.6765 103.109 97.6765 103.109 97.6765 103.329C97.6765 103.548 97.6765 103.768 97.6765 103.987C97.457 104.646 97.2375 105.304 96.579 105.743L96.3595 105.963L95.262 107.06C94.823 107.499 94.1644 107.719 93.7254 107.719C93.7254 107.719 93.7255 107.719 93.5059 107.719C92.8474 107.719 92.1889 107.499 91.7499 107.06L90.6524 105.963L90.4329 105.743C89.9938 105.304 89.5548 104.646 89.3353 103.987C89.3353 103.768 89.3353 103.548 89.3353 103.329C89.3353 103.109 89.3353 103.109 89.3353 102.89C89.1158 102.89 89.1158 102.89 88.8963 102.67C88.6768 102.451 88.6768 102.231 88.4573 101.792C88.2378 100.914 88.0183 100.036 88.0183 99.158C88.0183 98.9385 88.0183 98.9385 88.2378 98.9385C88.4573 98.9385 88.4573 98.9385 88.4573 98.9385L88.6768 99.158L88.8963 98.2802C88.8963 95.8656 93.945 95.207 93.945 95.207Z" fill="#F4A66E" stroke="#014793" stroke-width="0.439011" stroke-miterlimit="10" stroke-linecap="round" stroke-linejoin="round"/>
</g>
<g filter="url(#filter1_d_3918:54462)">
<rect x="146.292" y="9" width="120.708" height="163.479" fill="#F2F8FF"/>
</g>
<rect x="154.316" y="46.8516" width="41.352" height="26.9966" rx="3.76276" fill="white" stroke="#B2B2B2" stroke-width="0.632888"/>
<mask id="mask4_3918:54462" style="mask-type:alpha" maskUnits="userSpaceOnUse" x="154" y="41" width="42" height="29">
<rect x="154.317" y="41.7109" width="41.352" height="27.8537" rx="3.76276" fill="white" stroke="#006BFF" stroke-width="0.632888"/>
</mask>
<g mask="url(#mask4_3918:54462)">
<circle cx="179.914" cy="65.7584" r="1.8795" fill="#B2B2B2"/>
<circle cx="185.071" cy="65.7584" r="1.8795" fill="#DDDFE2"/>
<circle cx="190.228" cy="65.7584" r="1.8795" fill="#B2B2B2"/>
<circle cx="174.622" cy="65.7584" r="1.8795" fill="#DDDFE2"/>
<circle cx="179.914" cy="60.9498" r="1.8795" fill="#B2B2B2"/>
<circle cx="185.071" cy="60.9498" r="1.8795" fill="#DDDFE2"/>
<circle cx="185.071" cy="56.2311" r="1.8795" fill="#B2B2B2"/>
<circle cx="179.824" cy="56.2311" r="1.8795" fill="#DDDFE2"/>
<circle cx="174.622" cy="56.2311" r="1.8795" fill="#B2B2B2"/>
<circle cx="174.622" cy="60.9498" r="1.8795" fill="#DDDFE2"/>
<circle cx="190.228" cy="60.9498" r="1.8795" fill="#DDDFE2"/>
<circle cx="190.228" cy="56.2311" r="1.8795" fill="#B2B2B2"/>
</g>
<circle cx="163.958" cy="58.4225" r="4.07092" fill="#B2B2B2"/>
<path d="M162.932 56.4023C163.106 56.5825 163.314 56.7258 163.544 56.8236C163.774 56.9214 164.022 56.9718 164.272 56.9718C164.525 56.9719 164.776 56.9203 165.009 56.8201" stroke="white" stroke-width="0.452324" stroke-linecap="round" stroke-linejoin="round"/>
<path d="M162.777 56.973C162.777 57.2704 162.895 57.5556 163.105 57.7659C163.316 57.9762 163.601 58.0943 163.898 58.0943C164.196 58.0943 164.481 57.9762 164.691 57.7659C164.901 57.5556 165.02 57.2704 165.02 56.973C165.02 56.6755 164.901 56.3903 164.691 56.18C164.481 55.9697 164.196 55.8516 163.898 55.8516C163.601 55.8516 163.316 55.9697 163.105 56.18C162.895 56.3903 162.777 56.6755 162.777 56.973V56.973Z" stroke="white" stroke-width="0.452324" stroke-linecap="round" stroke-linejoin="round"/>
<path d="M161.815 60.6568C161.815 60.1045 162.035 59.5748 162.425 59.1842C162.816 58.7936 163.346 58.5742 163.898 58.5742C164.45 58.5742 164.98 58.7936 165.371 59.1842C165.761 59.5748 165.981 60.1045 165.981 60.6568" stroke="white" stroke-width="0.452324" stroke-linecap="round" stroke-linejoin="round"/>
<rect x="154.315" y="81.4141" width="41.352" height="26.9966" rx="3.76276" fill="white" stroke="#0099FF" stroke-width="0.632888"/>
<mask id="mask5_3918:54462" style="mask-type:alpha" maskUnits="userSpaceOnUse" x="153" y="75" width="43" height="30">
<rect x="154.315" y="76.2734" width="41.352" height="27.8537" rx="3.76276" fill="white" stroke="#006BFF" stroke-width="0.632888"/>
</mask>
<g mask="url(#mask5_3918:54462)">
<circle cx="179.913" cy="100.321" r="1.8795" fill="#0099FF"/>
<circle cx="185.07" cy="100.321" r="1.8795" fill="#DDDFE2"/>
<circle cx="190.226" cy="100.321" r="1.8795" fill="#0099FF"/>
<circle cx="174.62" cy="100.321" r="1.8795" fill="#DDDFE2"/>
<circle cx="179.913" cy="95.5123" r="1.8795" fill="#0099FF"/>
<circle cx="185.07" cy="95.5123" r="1.8795" fill="#DDDFE2"/>
<circle cx="185.07" cy="90.7936" r="1.8795" fill="#0099FF"/>
<circle cx="179.823" cy="90.7936" r="1.8795" fill="#DDDFE2"/>
<circle cx="174.62" cy="90.7936" r="1.8795" fill="#0099FF"/>
<circle cx="174.62" cy="95.5123" r="1.8795" fill="#DDDFE2"/>
<circle cx="190.226" cy="95.5123" r="1.8795" fill="#DDDFE2"/>
<circle cx="190.226" cy="90.7936" r="1.8795" fill="#0099FF"/>
</g>
<circle cx="163.956" cy="92.985" r="4.07092" fill="#0099FF"/>
<path d="M162.93 90.9648C163.103 91.145 163.311 91.2883 163.542 91.3861C163.772 91.4839 164.02 91.5343 164.27 91.5343C164.523 91.5344 164.774 91.4828 165.007 91.3826" stroke="white" stroke-width="0.452324" stroke-linecap="round" stroke-linejoin="round"/>
<path d="M162.775 91.5355C162.775 91.8329 162.893 92.1181 163.103 92.3284C163.313 92.5387 163.599 92.6568 163.896 92.6568C164.193 92.6568 164.479 92.5387 164.689 92.3284C164.899 92.1181 165.017 91.8329 165.017 91.5355C165.017 91.238 164.899 90.9528 164.689 90.7425C164.479 90.5322 164.193 90.4141 163.896 90.4141C163.599 90.4141 163.313 90.5322 163.103 90.7425C162.893 90.9528 162.775 91.238 162.775 91.5355V91.5355Z" stroke="white" stroke-width="0.452324" stroke-linecap="round" stroke-linejoin="round"/>
<path d="M161.813 95.2193C161.813 94.667 162.033 94.1373 162.423 93.7467C162.814 93.3561 163.343 93.1367 163.896 93.1367C164.448 93.1367 164.978 93.3561 165.368 93.7467C165.759 94.1373 165.978 94.667 165.978 95.2193" stroke="white" stroke-width="0.452324" stroke-linecap="round" stroke-linejoin="round"/>
<path d="M246.022 113.926H222.475V115.698H246.022V113.926Z" fill="#B2B2B2"/>
<path d="M254.919 143.487H213.567V119.586H254.908V143.487H254.919ZM214.001 143.064H254.473V120.021H214.001V143.064Z" fill="#0099FF"/>
<path d="M251.889 124.812C250.517 124.537 249.156 125.429 248.287 126.527C247.875 127.053 247.532 127.625 247.201 128.197C246.835 128.837 246.469 129.478 246.023 130.072C245.176 131.182 243.85 132.119 242.466 131.914C240.225 131.571 239.001 128.494 236.725 128.529C235.662 128.551 234.758 129.283 234.038 130.061C233.317 130.839 232.654 131.719 231.716 132.211C230.401 132.897 228.777 132.68 227.416 132.085C226.055 131.502 224.855 130.587 223.562 129.867C221.39 128.654 218.931 128.014 216.449 127.957V139.644H252.027V128.894V124.846C251.981 124.835 251.935 124.823 251.889 124.812Z" fill="#B2B2B2"/>
<path d="M227.416 132.086C228.777 132.669 230.401 132.898 231.716 132.212C232.654 131.72 233.317 130.839 234.038 130.062C234.758 129.284 235.673 128.552 236.725 128.529C238.989 128.495 240.224 131.571 242.466 131.914C243.85 132.12 245.165 131.194 246.022 130.073C246.468 129.49 246.834 128.838 247.2 128.198C245.817 128.266 244.444 128.335 243.243 127.694C242.054 127.065 241.277 125.83 240.087 125.179C237.96 124.023 235.364 125.121 233.248 126.288C231.979 126.985 230.572 127.729 229.166 127.386C227.576 126.997 226.65 125.384 225.335 124.424C222.807 122.583 219.011 123.475 216.849 125.739C216.586 126.013 216.46 126.356 216.46 126.711V127.935C218.942 128.003 221.401 128.644 223.574 129.844C224.866 130.599 226.055 131.503 227.416 132.086Z" fill="#004796"/>
<path d="M247.733 71.4661C246.413 66.5525 242.694 62.6258 237.895 61.0156L233.065 75.4136L247.733 71.4661Z" fill="#B2B2B2"/>
<path d="M233.074 75.4123L226.353 89.0312C228.378 90.0284 230.664 90.5998 233.074 90.5998C241.457 90.5998 248.261 83.8059 248.261 75.4123C248.261 74.0515 248.074 72.7218 247.742 71.4648L233.074 75.4123Z" fill="#0099FF"/>
<path d="M237.905 61.0161C236.389 60.507 234.768 60.2266 233.075 60.2266C224.692 60.2266 217.887 67.0204 217.887 75.414C217.887 81.3872 221.336 86.5501 226.354 89.0329L233.075 75.414L237.905 61.0161Z" fill="#004796"/>
<path d="M246.781 95.2422H219.122V97.5226H246.781V95.2422Z" fill="#828282"/>
<path d="M244.79 100.891H220.973V103.171H244.79V100.891Z" fill="#828282"/>
<rect x="213.567" y="15.7891" width="2.37836" height="20.9428" rx="0.846906" fill="#F2F2F2"/>
<rect x="213.567" y="26.2617" width="2.37836" height="10.4714" rx="0.846906" fill="#004796"/>
<rect x="232.087" y="15.7891" width="2.37836" height="20.9428" rx="0.846906" fill="#F2F2F2"/>
<rect x="232.085" y="26.2617" width="2.37836" height="10.4714" rx="0.846906" fill="#004796"/>
<rect x="219.74" y="15.7891" width="2.37836" height="20.9428" rx="0.846906" fill="#F2F2F2"/>
<rect x="219.739" y="17.6914" width="2.37836" height="19.0389" rx="0.846906" fill="#004796"/>
<rect x="238.257" y="15.7891" width="2.37836" height="20.9428" rx="0.846906" fill="#F2F2F2"/>
<rect x="238.258" y="21.5" width="2.37836" height="15.2311" rx="0.846906" fill="#004796"/>
<rect x="250.604" y="15.7891" width="2.37836" height="20.9428" rx="0.846906" fill="#F2F2F2"/>
<rect x="250.696" y="27.7148" width="2.16822" height="8.94392" rx="0.846906" fill="#004796"/>
<rect x="225.913" y="15.7891" width="2.37836" height="20.9428" rx="0.846906" fill="#F2F2F2"/>
<rect x="225.912" y="31.4961" width="2.37836" height="5.23569" rx="0.846906" fill="#004796"/>
<rect x="244.432" y="15.7891" width="2.37836" height="20.9428" rx="0.846906" fill="#F2F2F2"/>
<rect x="244.465" y="32.3203" width="2.43925" height="4.33644" rx="0.846906" fill="#004796"/>
<path d="M248.747 44.4062H213.567V46.513H248.747V44.4062Z" fill="#828282"/>
<path d="M243.86 49.625H213.567V51.7317H243.86V49.625Z" fill="#828282"/>
<rect x="154.933" y="116.598" width="41.352" height="26.9966" rx="3.76276" fill="white" stroke="#004796" stroke-width="0.632888"/>
<mask id="mask6_3918:54462" style="mask-type:alpha" maskUnits="userSpaceOnUse" x="154" y="111" width="43" height="29">
<rect x="154.933" y="111.457" width="41.352" height="27.8537" rx="3.76276" fill="white" stroke="#006BFF" stroke-width="0.632888"/>
</mask>
<g mask="url(#mask6_3918:54462)">
<circle cx="180.531" cy="135.505" r="1.8795" fill="#004796"/>
<circle cx="185.688" cy="135.505" r="1.8795" fill="#DDDFE2"/>
<circle cx="190.845" cy="135.505" r="1.8795" fill="#004796"/>
<circle cx="175.239" cy="135.505" r="1.8795" fill="#DDDFE2"/>
<circle cx="180.531" cy="130.696" r="1.8795" fill="#004796"/>
<circle cx="185.688" cy="130.696" r="1.8795" fill="#DDDFE2"/>
<circle cx="185.688" cy="125.977" r="1.8795" fill="#004796"/>
<circle cx="180.441" cy="125.977" r="1.8795" fill="#DDDFE2"/>
<circle cx="175.239" cy="125.977" r="1.8795" fill="#004796"/>
<circle cx="175.239" cy="130.696" r="1.8795" fill="#DDDFE2"/>
<circle cx="190.845" cy="130.696" r="1.8795" fill="#DDDFE2"/>
<circle cx="190.845" cy="125.977" r="1.8795" fill="#004796"/>
</g>
<circle cx="164.575" cy="128.169" r="4.07092" fill="#004796"/>
<path d="M163.549 126.148C163.723 126.329 163.931 126.472 164.161 126.57C164.391 126.668 164.639 126.718 164.889 126.718C165.143 126.718 165.393 126.666 165.626 126.566" stroke="white" stroke-width="0.452324" stroke-linecap="round" stroke-linejoin="round"/>
<path d="M163.394 126.719C163.394 127.016 163.512 127.302 163.722 127.512C163.933 127.722 164.218 127.84 164.515 127.84C164.813 127.84 165.098 127.722 165.308 127.512C165.519 127.302 165.637 127.016 165.637 126.719C165.637 126.422 165.519 126.136 165.308 125.926C165.098 125.716 164.813 125.598 164.515 125.598C164.218 125.598 163.933 125.716 163.722 125.926C163.512 126.136 163.394 126.422 163.394 126.719V126.719Z" stroke="white" stroke-width="0.452324" stroke-linecap="round" stroke-linejoin="round"/>
<path d="M162.433 130.403C162.433 129.851 162.652 129.321 163.043 128.93C163.433 128.54 163.963 128.32 164.515 128.32C165.068 128.32 165.597 128.54 165.988 128.93C166.378 129.321 166.598 129.851 166.598 130.403" stroke="white" stroke-width="0.452324" stroke-linecap="round" stroke-linejoin="round"/>
<path d="M166.084 40.4379C163.627 40.1941 161.416 39.3377 159.477 37.8796C156.54 35.6699 154.715 32.3897 154.36 28.679C154.277 27.8099 154.313 26.528 154.446 25.6162C155.089 21.2293 157.978 17.4414 162.05 15.6463C163.074 15.1949 164.282 14.846 165.377 14.6855C166.568 14.5111 167.992 14.5111 169.182 14.6855C173.569 15.3283 177.357 18.2172 179.152 22.2891C179.604 23.313 179.953 24.5212 180.113 25.6162C180.288 26.8068 180.288 28.2309 180.113 29.4215C179.619 32.7943 177.774 35.8779 175.027 37.9232C173.097 39.3598 170.886 40.2045 168.44 40.4388C167.902 40.4903 166.606 40.4898 166.084 40.4379ZM172.116 32.6643V31.3147H167.28H162.444V32.6643V34.0139H167.28H172.116V32.6643ZM173.156 25.1668C173.156 25.1274 171.26 23.217 171.221 23.217C171.21 23.217 170.935 23.4838 170.611 23.8099C170.286 24.1361 169.991 24.4302 169.955 24.4637C169.919 24.4971 169.628 24.7869 169.308 25.1078C168.989 25.4286 168.718 25.6911 168.707 25.6912C168.695 25.6912 168.686 24.4766 168.686 22.9921V20.2928H167.322H165.958V23.0538V25.8148L164.667 24.5237C163.957 23.8136 163.363 23.2282 163.347 23.2228C163.309 23.2103 161.403 25.1164 161.403 25.1663C161.403 25.211 164.182 27.9969 164.226 27.9969C164.243 27.9969 164.94 28.6793 165.774 29.5134L167.29 31.03L170.223 28.1181C171.836 26.5165 173.156 25.1884 173.156 25.1668Z" fill="#006BFF"/>
</g>
<defs>
<filter id="filter0_d_3918:54462" x="8.89902" y="20.7312" width="125.309" height="131.596" filterUnits="userSpaceOnUse" color-interpolation-filters="sRGB">
<feFlood flood-opacity="0" result="BackgroundImageFix"/>
<feColorMatrix in="SourceAlpha" type="matrix" values="0 0 0 0 0 0 0 0 0 0 0 0 0 0 0 0 0 0 127 0" result="hardAlpha"/>
<feOffset dy="1.61346"/>
<feGaussianBlur stdDeviation="6.05049"/>
<feColorMatrix type="matrix" values="0 0 0 0 0 0 0 0 0 0 0 0 0 0 0 0 0 0 0.1 0"/>
<feBlend mode="normal" in2="BackgroundImageFix" result="effect1_dropShadow_3918:54462"/>
<feBlend mode="normal" in="SourceGraphic" in2="effect1_dropShadow_3918:54462" result="shape"/>
</filter>
<filter id="filter1_d_3918:54462" x="132.035" y="-3.35598" width="149.222" height="191.994" filterUnits="userSpaceOnUse" color-interpolation-filters="sRGB">
<feFlood flood-opacity="0" result="BackgroundImageFix"/>
<feColorMatrix in="SourceAlpha" type="matrix" values="0 0 0 0 0 0 0 0 0 0 0 0 0 0 0 0 0 0 127 0" result="hardAlpha"/>
<feOffset dy="1.90092"/>
<feGaussianBlur stdDeviation="7.12845"/>
<feColorMatrix type="matrix" values="0 0 0 0 0 0 0 0 0 0 0 0 0 0 0 0 0 0 0.1 0"/>
<feBlend mode="normal" in2="BackgroundImageFix" result="effect1_dropShadow_3918:54462"/>
<feBlend mode="normal" in="SourceGraphic" in2="effect1_dropShadow_3918:54462" result="shape"/>
</filter>
<linearGradient id="paint0_linear_3918:54462" x1="191.157" y1="41.7681" x2="89.4285" y2="77.585" gradientUnits="userSpaceOnUse">
<stop offset="0.00853692" stop-color="#0198FF"/>
<stop offset="1" stop-color="white" stop-opacity="0.14"/>
</linearGradient>
<linearGradient id="paint1_linear_3918:54462" x1="185.86" y1="120.529" x2="84.6633" y2="82.9429" gradientUnits="userSpaceOnUse">
<stop offset="0.00853692" stop-color="#0198FF"/>
<stop offset="1" stop-color="white" stop-opacity="0.14"/>
</linearGradient>
<clipPath id="clip0_3918:54462">
<rect width="288" height="182" fill="white"/>
</clipPath>
</defs>
</svg>
