<svg width="308" height="200" viewBox="0 0 308 200" fill="none" xmlns="http://www.w3.org/2000/svg">
<g style="mix-blend-mode:multiply">
<path opacity="0.03" d="M266.016 83.8381C212.82 53.1294 157.92 53.1294 104.705 83.8381C78.1075 99.2019 64.8086 114.793 64.8086 130.403C64.8086 146.013 78.1075 161.605 104.705 176.968C157.901 207.677 212.802 207.677 266.016 176.968C292.614 161.605 305.913 146.013 305.913 130.403C305.913 114.793 292.614 99.2019 266.016 83.8381Z" fill="#FCFCFC"/>
<path opacity="0.06" d="M264.008 83.8381C210.812 53.1294 155.912 53.1294 102.697 83.8381C76.0992 99.2019 62.8003 114.793 62.8003 130.403C62.8003 146.013 76.0992 161.605 102.697 176.968C155.893 207.677 210.793 207.677 264.008 176.968C290.606 161.605 303.904 146.013 303.904 130.403C303.904 114.793 290.606 99.2019 264.008 83.8381Z" fill="#F9F9F9"/>
<path opacity="0.09" d="M261.981 83.8381C208.785 53.1294 153.885 53.1294 100.67 83.8381C74.0723 99.2019 60.7734 114.793 60.7734 130.403C60.7734 146.013 74.0723 161.605 100.67 176.968C153.866 207.677 208.766 207.677 261.981 176.968C288.579 161.605 301.878 146.013 301.878 130.403C301.878 114.793 288.579 99.2019 261.981 83.8381Z" fill="#F5F5F5"/>
<path opacity="0.12" d="M259.954 83.8381C206.758 53.1294 151.857 53.1294 98.6428 83.8381C72.045 99.2019 58.7461 114.793 58.7461 130.403C58.7461 146.013 72.045 161.605 98.6428 176.968C151.838 207.677 206.739 207.677 259.954 176.968C286.551 161.605 299.85 146.013 299.85 130.403C299.85 114.793 286.551 99.2019 259.954 83.8381Z" fill="#F2F2F2"/>
<path opacity="0.15" d="M257.927 83.8381C204.731 53.1294 149.83 53.1294 96.6159 83.8381C70.0181 99.2019 56.7192 114.793 56.7192 130.403C56.7192 146.013 70.0181 161.605 96.6159 176.968C149.812 207.677 204.712 207.677 257.927 176.968C284.524 161.605 297.823 146.013 297.823 130.403C297.823 114.793 284.524 99.2019 257.927 83.8381Z" fill="#EFEFEF"/>
<path opacity="0.18" d="M255.9 83.8381C202.704 53.1294 147.804 53.1294 94.5891 83.8381C67.9913 99.2019 54.6924 114.793 54.6924 130.403C54.6924 146.013 67.9913 161.605 94.5891 176.968C147.785 207.677 202.685 207.677 255.9 176.968C282.498 161.605 295.797 146.013 295.797 130.403C295.797 114.793 282.498 99.2019 255.9 83.8381Z" fill="#ECECEC"/>
<path opacity="0.21" d="M253.872 83.8381C200.677 53.1294 145.776 53.1294 92.5617 83.8381C65.9639 99.2019 52.665 114.793 52.665 130.403C52.665 146.013 65.9639 161.605 92.5617 176.968C145.757 207.677 200.658 207.677 253.872 176.968C280.47 161.605 293.769 146.013 293.769 130.403C293.769 114.793 280.47 99.2019 253.872 83.8381Z" fill="#E8E8E8"/>
<path opacity="0.24" d="M251.846 83.8381C198.65 53.1294 143.749 53.1294 90.5349 83.8381C63.9371 99.2019 50.6382 114.793 50.6382 130.403C50.6382 146.013 63.9371 161.605 90.5349 176.968C143.73 207.677 198.631 207.677 251.846 176.968C278.443 161.605 291.742 146.013 291.742 130.403C291.742 114.793 278.443 99.2019 251.846 83.8381Z" fill="#E5E5E5"/>
<path opacity="0.27" d="M249.819 83.8381C196.623 53.1294 141.723 53.1294 88.508 83.8381C61.9102 99.2019 48.6113 114.793 48.6113 130.403C48.6113 146.013 61.9102 161.605 88.508 176.968C141.704 207.677 196.604 207.677 249.819 176.968C276.417 161.605 289.715 146.013 289.715 130.403C289.715 114.793 276.417 99.2019 249.819 83.8381Z" fill="#E2E2E2"/>
<path opacity="0.3" d="M247.791 83.8381C194.596 53.1294 139.695 53.1294 86.4807 83.8381C59.8829 99.2019 46.584 114.793 46.584 130.403C46.584 146.013 59.8829 161.605 86.4807 176.968C139.676 207.677 194.577 207.677 247.791 176.968C274.389 161.605 287.688 146.013 287.688 130.403C287.688 114.793 274.389 99.2019 247.791 83.8381Z" fill="#DFDFDF"/>
<path opacity="0.33" d="M245.765 83.8381C192.569 53.1294 137.668 53.1294 84.4538 83.8381C57.856 99.2019 44.5571 114.793 44.5571 130.403C44.5571 146.013 57.856 161.605 84.4538 176.968C137.649 207.677 192.55 207.677 245.765 176.968C272.362 161.605 285.661 146.013 285.661 130.403C285.661 114.793 272.362 99.2019 245.765 83.8381Z" fill="#DBDBDB"/>
<path opacity="0.36" d="M243.737 83.8381C190.542 53.1294 135.641 53.1294 82.4265 83.8381C55.8287 99.2019 42.5298 114.793 42.5298 130.403C42.5298 146.013 55.8287 161.605 82.4265 176.968C135.622 207.677 190.523 207.677 243.737 176.968C270.335 161.605 283.634 146.013 283.634 130.403C283.634 114.793 270.335 99.2019 243.737 83.8381Z" fill="#D8D8D8"/>
<path opacity="0.39" d="M241.71 83.8381C188.515 53.1294 133.614 53.1294 80.3996 83.8381C53.8018 99.2019 40.5029 114.793 40.5029 130.403C40.5029 146.013 53.8018 161.605 80.3996 176.968C133.595 207.677 188.496 207.677 241.71 176.968C268.308 161.605 281.607 146.013 281.607 130.403C281.607 114.793 268.308 99.2019 241.71 83.8381Z" fill="#D5D5D5"/>
<path opacity="0.42" d="M239.684 83.8381C186.488 53.1294 131.587 53.1294 78.3728 83.8381C51.775 99.2019 38.4761 114.793 38.4761 130.403C38.4761 146.013 51.775 161.605 78.3728 176.968C131.568 207.677 186.469 207.677 239.684 176.968C266.281 161.605 279.58 146.013 279.58 130.403C279.58 114.793 266.281 99.2019 239.684 83.8381Z" fill="#D2D2D2"/>
<path opacity="0.45" d="M237.656 83.8381C184.461 53.1294 129.56 53.1294 76.3454 83.8381C49.7476 99.2019 36.4487 114.793 36.4487 130.403C36.4487 146.013 49.7476 161.605 76.3454 176.968C129.541 207.677 184.442 207.677 237.656 176.968C264.254 161.605 277.553 146.013 277.553 130.403C277.553 114.793 264.254 99.2019 237.656 83.8381Z" fill="#CECECE"/>
<path opacity="0.48" d="M235.648 83.8381C182.453 53.1294 127.552 53.1294 74.3377 83.8381C47.7399 99.2019 34.4409 114.793 34.4409 130.403C34.4409 146.013 47.7399 161.605 74.3377 176.968C127.533 207.677 182.434 207.677 235.648 176.968C262.246 161.605 275.545 146.013 275.545 130.403C275.545 114.793 262.246 99.2019 235.648 83.8381Z" fill="#CBCBCB"/>
<path opacity="0.52" d="M233.621 83.8381C180.425 53.1294 125.525 53.1294 72.3103 83.8381C45.7125 99.2019 32.4136 114.793 32.4136 130.403C32.4136 146.013 45.7125 161.605 72.3103 176.968C125.506 207.677 180.406 207.677 233.621 176.968C260.219 161.605 273.518 146.013 273.518 130.403C273.518 114.793 260.219 99.2019 233.621 83.8381Z" fill="#C8C8C8"/>
<path opacity="0.55" d="M231.594 83.8381C178.399 53.1294 123.498 53.1294 70.2834 83.8381C43.6856 99.2019 30.3867 114.793 30.3867 130.403C30.3867 146.013 43.6856 161.605 70.2834 176.968C123.479 207.677 178.38 207.677 231.594 176.968C258.192 161.605 271.491 146.013 271.491 130.403C271.491 114.793 258.192 99.2019 231.594 83.8381Z" fill="#C5C5C5"/>
<path opacity="0.58" d="M229.567 83.8381C176.372 53.1294 121.471 53.1294 68.2566 83.8381C41.6588 99.2019 28.3599 114.793 28.3599 130.403C28.3599 146.013 41.6588 161.605 68.2566 176.968C121.452 207.677 176.353 207.677 229.567 176.968C256.165 161.605 269.464 146.013 269.464 130.403C269.464 114.793 256.165 99.2019 229.567 83.8381Z" fill="#C1C1C1"/>
<path opacity="0.61" d="M227.54 83.8381C174.344 53.1294 119.444 53.1294 66.2292 83.8381C39.6314 99.2019 26.3325 114.793 26.3325 130.403C26.3325 146.013 39.6314 161.605 66.2292 176.968C119.425 207.677 174.325 207.677 227.54 176.968C254.138 161.605 267.437 146.013 267.437 130.403C267.437 114.793 254.138 99.2019 227.54 83.8381Z" fill="#BEBEBE"/>
<path opacity="0.64" d="M225.513 83.8381C172.317 53.1294 117.417 53.1294 64.2024 83.8381C37.6046 99.2019 24.3057 114.793 24.3057 130.403C24.3057 146.013 37.6046 161.605 64.2024 176.968C117.398 207.677 172.299 207.677 225.513 176.968C252.111 161.605 265.41 146.013 265.41 130.403C265.41 114.793 252.111 99.2019 225.513 83.8381Z" fill="#BBBBBB"/>
<path opacity="0.67" d="M223.486 83.8381C170.29 53.1294 115.39 53.1294 62.175 83.8381C35.5772 99.2019 22.2783 114.793 22.2783 130.403C22.2783 146.013 35.5772 161.605 62.175 176.968C115.371 207.677 170.271 207.677 223.486 176.968C250.084 161.605 263.382 146.013 263.382 130.403C263.382 114.793 250.084 99.2019 223.486 83.8381Z" fill="#B8B8B8"/>
<path opacity="0.7" d="M221.459 83.8381C168.263 53.1294 113.363 53.1294 60.1482 83.8381C33.5504 99.2019 20.2515 114.793 20.2515 130.403C20.2515 146.013 33.5504 161.605 60.1482 176.968C113.344 207.677 168.244 207.677 221.459 176.968C248.057 161.605 261.356 146.013 261.356 130.403C261.356 114.793 248.057 99.2019 221.459 83.8381Z" fill="#B4B4B4"/>
<path opacity="0.73" d="M219.432 83.8381C166.237 53.1294 111.336 53.1294 58.1213 83.8381C31.5235 99.2019 18.2246 114.793 18.2246 130.403C18.2246 146.013 31.5235 161.605 58.1213 176.968C111.317 207.677 166.218 207.677 219.432 176.968C246.03 161.605 259.329 146.013 259.329 130.403C259.329 114.793 246.03 99.2019 219.432 83.8381Z" fill="#B1B1B1"/>
<path opacity="0.76" d="M217.405 83.8381C164.209 53.1294 109.309 53.1294 56.094 83.8381C29.4962 99.2019 16.1973 114.793 16.1973 130.403C16.1973 146.013 29.4962 161.605 56.094 176.968C109.29 207.677 164.19 207.677 217.405 176.968C244.003 161.605 257.301 146.013 257.301 130.403C257.301 114.793 244.003 99.2019 217.405 83.8381Z" fill="#AEAEAE"/>
<path opacity="0.79" d="M215.378 83.8381C162.182 53.1294 107.282 53.1294 54.0671 83.8381C27.4693 99.2019 14.1704 114.793 14.1704 130.403C14.1704 146.013 27.4693 161.605 54.0671 176.968C107.263 207.677 162.163 207.677 215.378 176.968C241.976 161.605 255.275 146.013 255.275 130.403C255.275 114.793 241.976 99.2019 215.378 83.8381Z" fill="#ABABAB"/>
<path opacity="0.82" d="M213.351 83.8381C160.155 53.1294 105.254 53.1294 52.0398 83.8381C25.442 99.2019 12.1431 114.793 12.1431 130.403C12.1431 146.013 25.442 161.605 52.0398 176.968C105.235 207.677 160.136 207.677 213.351 176.968C239.948 161.605 253.247 146.013 253.247 130.403C253.247 114.793 239.948 99.2019 213.351 83.8381Z" fill="#A7A7A7"/>
<path opacity="0.85" d="M211.324 83.8381C158.128 53.1294 103.227 53.1294 50.0129 83.8381C23.4151 99.2019 10.1162 114.793 10.1162 130.403C10.1162 146.013 23.4151 161.605 50.0129 176.968C103.209 207.677 158.109 207.677 211.324 176.968C237.922 161.605 251.22 146.013 251.22 130.403C251.22 114.793 237.922 99.2019 211.324 83.8381Z" fill="#A4A4A4"/>
<path opacity="0.88" d="M209.296 83.8381C156.101 53.1294 101.2 53.1294 47.9856 83.8381C21.3878 99.2019 8.08887 114.793 8.08887 130.403C8.08887 146.013 21.3878 161.605 47.9856 176.968C101.181 207.677 156.082 207.677 209.296 176.968C235.894 161.605 249.193 146.013 249.193 130.403C249.193 114.793 235.894 99.2019 209.296 83.8381Z" fill="#A1A1A1"/>
<path opacity="0.91" d="M207.289 83.8381C154.093 53.1294 99.1924 53.1294 45.9778 83.8381C19.38 99.2019 6.08105 114.793 6.08105 130.403C6.08105 146.013 19.38 161.605 45.9778 176.968C99.1734 207.677 154.074 207.677 207.289 176.968C233.886 161.605 247.185 146.013 247.185 130.403C247.185 114.793 233.886 99.2019 207.289 83.8381Z" fill="#9E9E9E"/>
<path opacity="0.94" d="M205.261 83.8381C152.066 53.1294 97.165 53.1294 43.9504 83.8381C17.3526 99.2019 4.05371 114.793 4.05371 130.403C4.05371 146.013 17.3526 161.605 43.9504 176.968C97.146 207.677 152.047 207.677 205.261 176.968C231.859 161.605 245.158 146.013 245.158 130.403C245.158 114.793 231.859 99.2019 205.261 83.8381Z" fill="#9A9A9A"/>
<path opacity="0.97" d="M203.235 83.8381C150.039 53.1294 95.1386 53.1294 41.924 83.8381C15.3262 99.2019 2.02734 114.793 2.02734 130.403C2.02734 146.013 15.3262 161.605 41.924 176.968C95.1197 207.677 150.02 207.677 203.235 176.968C229.833 161.605 243.131 146.013 243.131 130.403C243.131 114.793 229.833 99.2019 203.235 83.8381Z" fill="#979797"/>
<path d="M201.207 83.8381C148.012 53.1294 93.1113 53.1294 39.8967 83.8381C13.2989 99.2019 0 114.793 0 130.403C0 146.013 13.2989 161.605 39.8967 176.968C93.0923 207.677 147.993 207.677 201.207 176.968C227.805 161.605 241.104 146.013 241.104 130.403C241.104 114.793 227.805 99.2019 201.207 83.8381Z" fill="#949494"/>
</g>
<path d="M201.17 153.856C147.917 184.489 93.0166 184.394 39.8589 153.591C13.28 138.189 5.727e-05 122.56 0.0379459 106.969L2.02684e-05 130.214C-0.018924 145.824 13.2421 161.434 39.821 176.836C92.9787 207.639 147.879 207.715 201.132 177.101C227.748 161.794 241.085 146.203 241.104 130.593L241.142 107.348C241.123 122.958 227.786 138.53 201.17 153.856Z" fill="url(#paint0_linear_3026_15328)"/>
<path d="M201.321 60.7259C148.164 29.9224 93.263 29.8467 40.0105 60.4607C13.3938 75.7677 0.0570505 91.3589 0.0381062 106.969C0.0191619 122.579 13.2802 138.189 39.859 153.591C93.0167 184.394 147.917 184.47 201.17 153.856C227.786 138.549 241.123 122.958 241.142 107.348C241.161 91.7378 227.9 76.1276 201.321 60.7259Z" fill="#612E00"/>
<mask id="mask0_3026_15328" style="mask-type:luminance" maskUnits="userSpaceOnUse" x="0" y="37" width="242" height="140">
<path d="M201.321 60.7259C148.164 29.9225 93.263 29.8468 40.0105 60.4608C13.3938 75.7678 0.0570505 91.3589 0.0381062 106.969C0.0191619 122.579 13.2802 138.189 39.859 153.591C93.0167 184.394 147.917 184.47 201.17 153.856C227.786 138.549 241.123 122.958 241.142 107.348C241.161 91.7378 227.9 76.1276 201.321 60.7259Z" fill="white"/>
</mask>
<g mask="url(#mask0_3026_15328)">
<g style="mix-blend-mode:multiply">
<path opacity="0.03" d="M218.106 153.269C225.968 157.816 238.812 157.834 246.693 153.307L299.472 122.939C303.412 120.685 305.382 117.692 305.382 114.698L305.42 86.9639V77.719V68.4742V59.2294C305.42 56.2362 303.469 53.243 299.528 50.9697L217.537 3.45735C209.676 -1.08928 196.812 -1.10816 188.95 3.40058L136.172 33.7682C132.231 36.0226 130.261 39.0158 130.261 42.009C130.261 42.009 130.261 42.1605 130.261 42.3879C130.261 42.6531 130.261 43.0321 130.261 43.5436C130.261 44.1308 130.261 44.8696 130.261 45.7221V46.7072V51.216V51.2538L130.223 69.7624C130.223 79.5945 130.185 88.2521 130.185 88.2521V97.4969C130.166 100.49 132.136 103.483 136.058 105.757L218.049 153.269H218.106Z" fill="#FBFBFB"/>
<path opacity="0.06" d="M215.074 153.269C222.936 157.816 235.781 157.834 243.661 153.307L296.44 122.939C300.381 120.685 302.351 117.692 302.351 114.698L302.389 86.9639V77.719V68.4742V59.2294C302.389 56.2362 300.438 53.243 296.497 50.9697L214.506 3.45735C206.644 -1.08928 193.781 -1.10816 185.919 3.40058L133.14 33.7682C129.2 36.0226 127.23 39.0158 127.23 42.009C127.23 42.009 127.23 42.1605 127.23 42.3879C127.23 42.6531 127.23 43.0321 127.23 43.5436C127.23 44.1308 127.23 44.8696 127.23 45.7221V46.7072V51.216V51.2538L127.192 69.7624C127.192 79.5945 127.154 88.2521 127.154 88.2521V97.4969C127.135 100.49 129.105 103.483 133.027 105.757L215.018 153.269H215.074Z" fill="#F7F7F7"/>
<path opacity="0.09" d="M212.044 153.269C219.906 157.816 232.75 157.834 240.631 153.307L293.409 122.939C297.35 120.685 299.32 117.692 299.32 114.698L299.358 86.9639V77.719V68.4742V59.2294C299.358 56.2362 297.407 53.243 293.466 50.9697L211.475 3.45735C203.613 -1.08928 190.75 -1.10816 182.888 3.40058L130.11 33.7682C126.169 36.0226 124.199 39.0158 124.199 42.009C124.199 42.009 124.199 42.1605 124.199 42.3879C124.199 42.6531 124.199 43.0321 124.199 43.5436C124.199 44.1308 124.199 44.8696 124.199 45.7221V46.7072V51.216V51.2538L124.161 69.7624C124.161 79.5945 124.123 88.2521 124.123 88.2521V97.4969C124.104 100.49 126.074 103.483 129.996 105.757L211.987 153.269H212.044Z" fill="#F2F2F2"/>
<path opacity="0.12" d="M208.993 153.269C216.855 157.816 229.7 157.834 237.58 153.307L290.359 122.939C294.3 120.685 296.27 117.692 296.27 114.698L296.308 86.9639V77.719V68.4742V59.2294C296.308 56.2362 294.356 53.243 290.416 50.9697L208.425 3.45735C200.563 -1.08928 187.7 -1.10816 179.838 3.40058L127.059 33.7682C123.119 36.0226 121.149 39.0158 121.149 42.009C121.149 42.009 121.149 42.1605 121.149 42.3879C121.149 42.6531 121.149 43.0321 121.149 43.5436C121.149 44.1308 121.149 44.8696 121.149 45.7221V46.7072V51.216V51.2538L121.111 69.7624C121.111 79.5945 121.073 88.2521 121.073 88.2521V97.4969C121.054 100.49 123.024 103.483 126.946 105.757L208.937 153.269H208.993Z" fill="#EEEEEE"/>
<path opacity="0.15" d="M205.963 153.269C213.825 157.816 226.669 157.834 234.55 153.307L287.328 122.939C291.269 120.685 293.239 117.692 293.239 114.698L293.277 86.9639V77.719V68.4742V59.2294C293.277 56.2362 291.326 53.243 287.385 50.9697L205.394 3.45735C197.532 -1.08928 184.669 -1.10816 176.807 3.40058L124.029 33.7682C120.088 36.0226 118.118 39.0158 118.118 42.009C118.118 42.009 118.118 42.1605 118.118 42.3879C118.118 42.6531 118.118 43.0321 118.118 43.5436C118.118 44.1308 118.118 44.8696 118.118 45.7221V46.7072V51.216V51.2538L118.08 69.7624C118.08 79.5945 118.042 88.2521 118.042 88.2521V97.4969C118.023 100.49 119.993 103.483 123.915 105.757L205.906 153.269H205.963Z" fill="#EAEAEA"/>
<path opacity="0.18" d="M202.931 153.269C210.793 157.816 223.638 157.834 231.518 153.307L284.297 122.939C288.238 120.685 290.208 117.692 290.208 114.698L290.246 86.9639V77.719V68.4742V59.2294C290.246 56.2362 288.294 53.243 284.354 50.9697L202.363 3.45735C194.501 -1.08928 181.638 -1.10816 173.776 3.40058L120.997 33.7682C117.057 36.0226 115.087 39.0158 115.087 42.009C115.087 42.009 115.087 42.1605 115.087 42.3879C115.087 42.6531 115.087 43.0321 115.087 43.5436C115.087 44.1308 115.087 44.8696 115.087 45.7221V46.7072V51.216V51.2538L115.049 69.7624C115.049 79.5945 115.011 88.2521 115.011 88.2521V97.4969C114.992 100.49 116.962 103.483 120.884 105.757L202.875 153.269H202.931Z" fill="#E6E6E6"/>
<path opacity="0.21" d="M199.881 153.269C207.743 157.816 220.587 157.834 228.468 153.307L281.247 122.939C285.187 120.685 287.158 117.692 287.158 114.698L287.195 86.9639V77.719V68.4742V59.2294C287.195 56.2362 285.244 53.243 281.304 50.9697L199.313 3.45735C191.451 -1.08928 178.588 -1.10816 170.726 3.40058L117.947 33.7682C114.007 36.0226 112.036 39.0158 112.036 42.009C112.036 42.009 112.036 42.1605 112.036 42.3879C112.036 42.6531 112.036 43.0321 112.036 43.5436C112.036 44.1308 112.036 44.8696 112.036 45.7221V46.7072V51.216V51.2538L111.998 69.7624C111.998 79.5945 111.961 88.2521 111.961 88.2521V97.4969C111.942 100.49 113.912 103.483 117.833 105.757L199.824 153.269H199.881Z" fill="#E1E1E1"/>
<path opacity="0.24" d="M196.85 153.269C204.712 157.816 217.556 157.834 225.437 153.307L278.216 122.939C282.157 120.685 284.127 117.692 284.127 114.698L284.165 86.9639V77.719V68.4742V59.2294C284.165 56.2362 282.213 53.243 278.273 50.9697L196.282 3.45735C188.42 -1.08928 175.557 -1.10816 167.695 3.40058L114.916 33.7682C110.976 36.0226 109.006 39.0158 109.006 42.009C109.006 42.009 109.006 42.1605 109.006 42.3879C109.006 42.6531 109.006 43.0321 109.006 43.5436C109.006 44.1308 109.006 44.8696 109.006 45.7221V46.7072V51.216V51.2538L108.968 69.7624C108.968 79.5945 108.93 88.2521 108.93 88.2521V97.4969C108.911 100.49 110.881 103.483 114.803 105.757L196.794 153.269H196.85Z" fill="#DDDDDD"/>
<path opacity="0.27" d="M193.8 153.269C201.662 157.816 214.506 157.834 222.387 153.307L275.166 122.939C279.106 120.685 281.076 117.692 281.076 114.698L281.114 86.9639V77.719V68.4742V59.2294C281.114 56.2362 279.163 53.243 275.223 50.9697L193.232 3.45735C185.37 -1.08928 172.507 -1.10816 164.645 3.40058L111.866 33.7682C107.926 36.0226 105.955 39.0158 105.955 42.009C105.955 42.009 105.955 42.1605 105.955 42.3879C105.955 42.6531 105.955 43.0321 105.955 43.5436C105.955 44.1308 105.955 44.8696 105.955 45.7221V46.7072V51.216V51.2538L105.917 69.7624C105.917 79.5945 105.88 88.2521 105.88 88.2521V97.4969C105.861 100.49 107.831 103.483 111.752 105.757L193.743 153.269H193.8Z" fill="#D9D9D9"/>
<path opacity="0.3" d="M190.769 153.269C198.631 157.816 211.475 157.834 219.356 153.307L272.135 122.939C276.075 120.685 278.046 117.692 278.046 114.698L278.084 86.9639V77.719V68.4742V59.2294C278.084 56.2362 276.132 53.243 272.192 50.9697L190.201 3.45735C182.339 -1.08928 169.476 -1.10816 161.614 3.40058L108.835 33.7682C104.895 36.0226 102.925 39.0158 102.925 42.009C102.925 42.009 102.925 42.1605 102.925 42.3879C102.925 42.6531 102.925 43.0321 102.925 43.5436C102.925 44.1308 102.925 44.8696 102.925 45.7221V46.7072V51.216V51.2538L102.887 69.7624C102.887 79.5945 102.849 88.2521 102.849 88.2521V97.4969C102.83 100.49 104.8 103.483 108.722 105.757L190.712 153.269H190.769Z" fill="#D5D5D5"/>
<path opacity="0.33" d="M187.738 153.269C195.6 157.816 208.444 157.834 216.325 153.307L269.104 122.939C273.044 120.685 275.014 117.692 275.014 114.698L275.052 86.9639V77.719V68.4742V59.2294C275.052 56.2362 273.101 53.243 269.161 50.9697L187.17 3.45735C179.308 -1.08928 166.445 -1.10816 158.583 3.40058L105.804 33.7682C101.864 36.0226 99.8933 39.0158 99.8933 42.009C99.8933 42.009 99.8933 42.1605 99.8933 42.3879C99.8933 42.6531 99.8933 43.0321 99.8933 43.5436C99.8933 44.1308 99.8933 44.8696 99.8933 45.7221V46.7072V51.216V51.2538L99.8554 69.7624C99.8554 79.5945 99.8175 88.2521 99.8175 88.2521V97.4969C99.7986 100.49 101.769 103.483 105.69 105.757L187.681 153.269H187.738Z" fill="#D0D0D0"/>
<path opacity="0.36" d="M184.688 153.269C192.55 157.816 205.394 157.834 213.275 153.307L266.054 122.939C269.994 120.685 271.965 117.692 271.965 114.698L272.003 86.9639V77.719V68.4742V59.2294C272.003 56.2362 270.051 53.243 266.111 50.9697L184.12 3.45735C176.258 -1.08928 163.395 -1.10816 155.533 3.40058L102.754 33.7682C98.8137 36.0226 96.8434 39.0158 96.8434 42.009C96.8434 42.009 96.8434 42.1605 96.8434 42.3879C96.8434 42.6531 96.8434 43.0321 96.8434 43.5436C96.8434 44.1308 96.8434 44.8696 96.8434 45.7221V46.7072V51.216V51.2538L96.8056 69.7624C96.8056 79.5945 96.7677 88.2521 96.7677 88.2521V97.4969C96.7488 100.49 98.7189 103.483 102.64 105.757L184.631 153.269H184.688Z" fill="#CCCCCC"/>
<path opacity="0.39" d="M181.657 153.269C189.519 157.816 202.363 157.834 210.244 153.307L263.023 122.939C266.963 120.685 268.933 117.692 268.933 114.698L268.971 86.9639V77.719V68.4742V59.2294C268.971 56.2362 267.02 53.243 263.08 50.9697L181.089 3.45735C173.227 -1.08928 160.364 -1.10816 152.502 3.40058L99.7229 33.7682C95.7825 36.0226 93.8123 39.0158 93.8123 42.009C93.8123 42.009 93.8123 42.1605 93.8123 42.3879C93.8123 42.6531 93.8123 43.0321 93.8123 43.5436C93.8123 44.1308 93.8123 44.8696 93.8123 45.7221V46.7072V51.216V51.2538L93.7743 69.7624C93.7743 79.5945 93.7365 88.2521 93.7365 88.2521V97.4969C93.7175 100.49 95.6877 103.483 99.6092 105.757L181.6 153.269H181.657Z" fill="#C8C8C8"/>
<path opacity="0.42" d="M178.607 153.269C186.469 157.816 199.313 157.834 207.194 153.307L259.972 122.939C263.913 120.685 265.883 117.692 265.883 114.698L265.921 86.9639V77.719V68.4742V59.2294C265.921 56.2362 263.97 53.243 260.029 50.9697L178.038 3.45735C170.176 -1.08928 157.313 -1.10816 149.451 3.40058L96.6726 33.7682C92.7322 36.0226 90.762 39.0158 90.762 42.009C90.762 42.009 90.762 42.1605 90.762 42.3879C90.762 42.6531 90.762 43.0321 90.762 43.5436C90.762 44.1308 90.762 44.8696 90.762 45.7221V46.7072V51.216V51.2538L90.7241 69.7624C90.7241 79.5945 90.6862 88.2521 90.6862 88.2521V97.4969C90.6672 100.49 92.6374 103.483 96.5589 105.757L178.55 153.269H178.607Z" fill="#C4C4C4"/>
<path opacity="0.45" d="M175.576 153.269C183.438 157.816 196.282 157.834 204.163 153.307L256.942 122.939C260.882 120.685 262.852 117.692 262.852 114.698L262.89 86.9639V77.719V68.4742V59.2294C262.89 56.2362 260.939 53.243 256.999 50.9697L175.008 3.45735C167.146 -1.08928 154.283 -1.10816 146.421 3.40058L93.6418 33.7682C89.7013 36.0226 87.7311 39.0158 87.7311 42.009C87.7311 42.009 87.7311 42.1605 87.7311 42.3879C87.7311 42.6531 87.7311 43.0321 87.7311 43.5436C87.7311 44.1308 87.7311 44.8696 87.7311 45.7221V46.7072V51.216V51.2538L87.6933 69.7624C87.6933 79.5945 87.6554 88.2521 87.6554 88.2521V97.4969C87.6365 100.49 89.6066 103.483 93.5281 105.757L175.519 153.269H175.576Z" fill="#BFBFBF"/>
<path opacity="0.48" d="M172.545 153.269C180.407 157.816 193.251 157.834 201.132 153.307L253.91 122.939C257.851 120.685 259.821 117.692 259.821 114.698L259.859 86.9639V77.719V68.4742V59.2294C259.859 56.2362 257.908 53.243 253.967 50.9697L171.976 3.45735C164.114 -1.08928 151.251 -1.10816 143.389 3.40058L90.6106 33.7682C86.6702 36.0226 84.6999 39.0158 84.6999 42.009C84.6999 42.009 84.6999 42.1605 84.6999 42.3879C84.6999 42.6531 84.6999 43.0321 84.6999 43.5436C84.6999 44.1308 84.6999 44.8696 84.6999 45.7221V46.7072V51.216V51.2538L84.662 69.7624C84.662 79.5945 84.6242 88.2521 84.6242 88.2521V97.4969C84.6052 100.49 86.5754 103.483 90.4969 105.757L172.488 153.269H172.545Z" fill="#BBBBBB"/>
<path opacity="0.52" d="M169.495 153.269C177.357 157.816 190.201 157.834 198.082 153.307L250.861 122.939C254.801 120.685 256.771 117.692 256.771 114.698L256.809 86.9639V77.719V68.4742V59.2294C256.809 56.2362 254.858 53.243 250.918 50.9697L168.927 3.45735C161.065 -1.08928 148.202 -1.10816 140.34 3.40058L87.5608 33.7682C83.6203 36.0226 81.6501 39.0158 81.6501 42.009C81.6501 42.009 81.6501 42.1605 81.6501 42.3879C81.6501 42.6531 81.6501 43.0321 81.6501 43.5436C81.6501 44.1308 81.6501 44.8696 81.6501 45.7221V46.7072V51.216V51.2538L81.6123 69.7624C81.6123 79.5945 81.5744 88.2521 81.5744 88.2521V97.4969C81.5554 100.49 83.5256 103.483 87.4471 105.757L169.438 153.269H169.495Z" fill="#B7B7B7"/>
<path opacity="0.55" d="M166.464 153.269C174.326 157.816 187.17 157.834 195.051 153.307L247.829 122.939C251.77 120.685 253.74 117.692 253.74 114.698L253.778 86.9639V77.719V68.4742V59.2294C253.778 56.2362 251.827 53.243 247.886 50.9697L165.895 3.45735C158.033 -1.08928 145.17 -1.10816 137.308 3.40058L84.5295 33.7682C80.5891 36.0226 78.6189 39.0158 78.6189 42.009C78.6189 42.009 78.6189 42.1605 78.6189 42.3879C78.6189 42.6531 78.6189 43.0321 78.6189 43.5436C78.6189 44.1308 78.6189 44.8696 78.6189 45.7221V46.7072V51.216V51.2538L78.581 69.7624C78.581 79.5945 78.5431 88.2521 78.5431 88.2521V97.4969C78.5242 100.49 80.4944 103.483 84.4159 105.757L166.407 153.269H166.464Z" fill="#B3B3B3"/>
<path opacity="0.58" d="M163.413 153.269C171.275 157.816 184.119 157.834 192 153.307L244.779 122.939C248.719 120.685 250.69 117.692 250.69 114.698L250.728 86.9639V77.719V68.4742V59.2294C250.728 56.2362 248.776 53.243 244.836 50.9697L162.845 3.45735C154.983 -1.08928 142.12 -1.10816 134.258 3.40058L81.4792 33.7682C77.5388 36.0226 75.5686 39.0158 75.5686 42.009C75.5686 42.009 75.5686 42.1605 75.5686 42.3879C75.5686 42.6531 75.5686 43.0321 75.5686 43.5436C75.5686 44.1308 75.5686 44.8696 75.5686 45.7221V46.7072V51.216V51.2538L75.5307 69.7624C75.5307 79.5945 75.4928 88.2521 75.4928 88.2521V97.4969C75.4739 100.49 77.4441 103.483 81.3656 105.757L163.357 153.269H163.413Z" fill="#AEAEAE"/>
<path opacity="0.61" d="M160.383 153.269C168.244 157.816 181.089 157.834 188.97 153.307L241.748 122.939C245.689 120.685 247.659 117.692 247.659 114.698L247.697 86.9639V77.719V68.4742V59.2294C247.697 56.2362 245.746 53.243 241.805 50.9697L159.814 3.45735C151.952 -1.08928 139.089 -1.10816 131.227 3.40058L78.4485 33.7682C74.508 36.0226 72.5378 39.0158 72.5378 42.009C72.5378 42.009 72.5378 42.1605 72.5378 42.3879C72.5378 42.6531 72.5378 43.0321 72.5378 43.5436C72.5378 44.1308 72.5378 44.8696 72.5378 45.7221V46.7072V51.216V51.2538L72.5 69.7624C72.5 79.5945 72.462 88.2521 72.462 88.2521V97.4969C72.4431 100.49 74.4133 103.483 78.3348 105.757L160.326 153.269H160.383Z" fill="#AAAAAA"/>
<path opacity="0.64" d="M157.351 153.269C165.213 157.816 178.057 157.834 185.938 153.307L238.717 122.939C242.658 120.685 244.628 117.692 244.628 114.698L244.666 86.9639V77.719V68.4742V59.2294C244.666 56.2362 242.714 53.243 238.774 50.9697L156.783 3.45735C148.921 -1.08928 136.058 -1.10816 128.196 3.40058L75.4172 33.7682C71.4768 36.0226 69.5066 39.0158 69.5066 42.009C69.5066 42.009 69.5066 42.1605 69.5066 42.3879C69.5066 42.6531 69.5066 43.0321 69.5066 43.5436C69.5066 44.1308 69.5066 44.8696 69.5066 45.7221V46.7072V51.216V51.2538L69.4687 69.7624C69.4687 79.5945 69.4308 88.2521 69.4308 88.2521V97.4969C69.4119 100.49 71.3821 103.483 75.3035 105.757L157.294 153.269H157.351Z" fill="#A6A6A6"/>
<path opacity="0.67" d="M154.302 153.269C162.163 157.816 175.008 157.834 182.888 153.307L235.667 122.939C239.608 120.685 241.578 117.692 241.578 114.698L241.616 86.9639V77.719V68.4742V59.2294C241.616 56.2362 239.665 53.243 235.724 50.9697L153.733 3.45735C145.871 -1.08928 133.008 -1.10816 125.146 3.40058L72.3674 33.7682C68.427 36.0226 66.4568 39.0158 66.4568 42.009C66.4568 42.009 66.4568 42.1605 66.4568 42.3879C66.4568 42.6531 66.4568 43.0321 66.4568 43.5436C66.4568 44.1308 66.4568 44.8696 66.4568 45.7221V46.7072V51.216V51.2538L66.4189 69.7624C66.4189 79.5945 66.381 88.2521 66.381 88.2521V97.4969C66.3621 100.49 68.3323 103.483 72.2537 105.757L154.245 153.269H154.302Z" fill="#A2A2A2"/>
<path opacity="0.7" d="M151.27 153.269C159.132 157.816 171.976 157.834 179.857 153.307L232.636 122.939C236.576 120.685 238.547 117.692 238.547 114.698L238.585 86.9639V77.719V68.4742V59.2294C238.585 56.2362 236.633 53.243 232.693 50.9697L150.702 3.45735C142.84 -1.08928 129.977 -1.10816 122.115 3.40058L69.3362 33.7682C65.3957 36.0226 63.4255 39.0158 63.4255 42.009C63.4255 42.009 63.4255 42.1605 63.4255 42.3879C63.4255 42.6531 63.4255 43.0321 63.4255 43.5436C63.4255 44.1308 63.4255 44.8696 63.4255 45.7221V46.7072V51.216V51.2538L63.3876 69.7624C63.3876 79.5945 63.3497 88.2521 63.3497 88.2521V97.4969C63.3308 100.49 65.301 103.483 69.2225 105.757L151.213 153.269H151.27Z" fill="#9D9D9D"/>
<path opacity="0.73" d="M148.22 153.269C156.082 157.816 168.927 157.834 176.807 153.307L229.586 122.939C233.527 120.685 235.497 117.692 235.497 114.698L235.535 86.9639V77.719V68.4742V59.2294C235.535 56.2362 233.583 53.243 229.643 50.9697L147.652 3.45735C139.79 -1.08928 126.927 -1.10816 119.065 3.40058L66.2863 33.7682C62.3459 36.0226 60.3757 39.0158 60.3757 42.009C60.3757 42.009 60.3757 42.1605 60.3757 42.3879C60.3757 42.6531 60.3757 43.0321 60.3757 43.5436C60.3757 44.1308 60.3757 44.8696 60.3757 45.7221V46.7072V51.216V51.2538L60.3378 69.7624C60.3378 79.5945 60.2999 88.2521 60.2999 88.2521V97.4969C60.281 100.49 62.2512 103.483 66.1726 105.757L148.164 153.269H148.22Z" fill="#999999"/>
<path opacity="0.76" d="M145.189 153.269C153.051 157.816 165.895 157.834 173.776 153.307L226.555 122.939C230.495 120.685 232.466 117.692 232.466 114.698L232.503 86.9639V77.719V68.4742V59.2294C232.503 56.2362 230.552 53.243 226.612 50.9697L144.621 3.45735C136.759 -1.08928 123.896 -1.10816 116.034 3.40058L63.2551 33.7682C59.3147 36.0226 57.3445 39.0158 57.3445 42.009C57.3445 42.009 57.3445 42.1605 57.3445 42.3879C57.3445 42.6531 57.3445 43.0321 57.3445 43.5436C57.3445 44.1308 57.3445 44.8696 57.3445 45.7221V46.7072V51.216V51.2538L57.3066 69.7624C57.3066 79.5945 57.2687 88.2521 57.2687 88.2521V97.4969C57.2497 100.49 59.22 103.483 63.1414 105.757L145.132 153.269H145.189Z" fill="#959595"/>
<path opacity="0.79" d="M142.158 153.269C150.02 157.816 162.864 157.834 170.745 153.307L223.524 122.939C227.464 120.685 229.434 117.692 229.434 114.698L229.472 86.9639V77.719V68.4742V59.2294C229.472 56.2362 227.521 53.243 223.581 50.9697L141.59 3.45735C133.728 -1.08928 120.865 -1.10816 113.003 3.40058L60.2238 33.7682C56.2834 36.0226 54.3132 39.0158 54.3132 42.009C54.3132 42.009 54.3132 42.1605 54.3132 42.3879C54.3132 42.6531 54.3132 43.0321 54.3132 43.5436C54.3132 44.1308 54.3132 44.8696 54.3132 45.7221V46.7072V51.216V51.2538L54.2753 69.7624C54.2753 79.5945 54.2374 88.2521 54.2374 88.2521V97.4969C54.2185 100.49 56.1887 103.483 60.1102 105.757L142.101 153.269H142.158Z" fill="#919191"/>
<path opacity="0.82" d="M139.108 153.269C146.97 157.816 159.814 157.834 167.695 153.307L220.474 122.939C224.414 120.685 226.385 117.692 226.385 114.698L226.422 86.9639V77.719V68.4742V59.2294C226.422 56.2362 224.471 53.243 220.531 50.9697L138.54 3.45735C130.678 -1.08928 117.815 -1.10816 109.953 3.40058L57.174 33.7682C53.2336 36.0226 51.2634 39.0158 51.2634 42.009C51.2634 42.009 51.2634 42.1605 51.2634 42.3879C51.2634 42.6531 51.2634 43.0321 51.2634 43.5436C51.2634 44.1308 51.2634 44.8696 51.2634 45.7221V46.7072V51.216V51.2538L51.2255 69.7624C51.2255 79.5945 51.1876 88.2521 51.1876 88.2521V97.4969C51.1687 100.49 53.1389 103.483 57.0603 105.757L139.051 153.269H139.108Z" fill="#8C8C8C"/>
<path opacity="0.85" d="M136.077 153.269C143.939 157.816 156.783 157.834 164.664 153.307L217.443 122.939C221.383 120.685 223.353 117.692 223.353 114.698L223.391 86.9639V77.719V68.4742V59.2294C223.391 56.2362 221.44 53.243 217.499 50.9697L135.509 3.45735C127.647 -1.08928 114.783 -1.10816 106.922 3.40058L54.1428 33.7682C50.2024 36.0226 48.2321 39.0158 48.2321 42.009C48.2321 42.009 48.2321 42.1605 48.2321 42.3879C48.2321 42.6531 48.2321 43.0321 48.2321 43.5436C48.2321 44.1308 48.2321 44.8696 48.2321 45.7221V46.7072V51.216V51.2538L48.1943 69.7624C48.1943 79.5945 48.1564 88.2521 48.1564 88.2521V97.4969C48.1374 100.49 50.1077 103.483 54.0291 105.757L136.02 153.269H136.077Z" fill="#888888"/>
<path opacity="0.88" d="M133.046 153.269C140.908 157.816 153.752 157.834 161.633 153.307L214.411 122.939C218.352 120.685 220.322 117.692 220.322 114.698L220.36 86.9639V77.719V68.4742V59.2294C220.36 56.2362 218.409 53.243 214.468 50.9697L132.477 3.45735C124.615 -1.08928 111.752 -1.10816 103.89 3.40058L51.1115 33.7682C47.1711 36.0226 45.2009 39.0158 45.2009 42.009C45.2009 42.009 45.2009 42.1605 45.2009 42.3879C45.2009 42.6531 45.2009 43.0321 45.2009 43.5436C45.2009 44.1308 45.2009 44.8696 45.2009 45.7221V46.7072V51.216V51.2538L45.163 69.7624C45.163 79.5945 45.1251 88.2521 45.1251 88.2521V97.4969C45.1062 100.49 47.0764 103.483 50.9979 105.757L132.989 153.269H133.046Z" fill="#848484"/>
<path opacity="0.91" d="M129.996 153.269C137.858 157.816 150.702 157.834 158.583 153.307L211.362 122.939C215.302 120.685 217.272 117.692 217.272 114.698L217.31 86.9639V77.719V68.4742V59.2294C217.31 56.2362 215.359 53.243 211.418 50.9697L129.428 3.45735C121.566 -1.08928 108.702 -1.10816 100.841 3.40058L48.0617 33.7682C44.1213 36.0226 42.1511 39.0158 42.1511 42.009C42.1511 42.009 42.1511 42.1605 42.1511 42.3879C42.1511 42.6531 42.1511 43.0321 42.1511 43.5436C42.1511 44.1308 42.1511 44.8696 42.1511 45.7221V46.7072V51.216V51.2538L42.1133 69.7624C42.1133 79.5945 42.0753 88.2521 42.0753 88.2521V97.4969C42.0564 100.49 44.0266 103.483 47.9481 105.757L129.939 153.269H129.996Z" fill="#808080"/>
<path opacity="0.94" d="M126.965 153.269C134.826 157.816 147.671 157.834 155.552 153.307L208.33 122.939C212.271 120.685 214.241 117.692 214.241 114.698L214.279 86.9639V77.719V68.4742V59.2294C214.279 56.2362 212.328 53.243 208.387 50.9697L126.396 3.45735C118.534 -1.08928 105.671 -1.10816 97.8093 3.40058L45.0305 33.7682C41.0901 36.0226 39.1198 39.0158 39.1198 42.009C39.1198 42.009 39.1198 42.1605 39.1198 42.3879C39.1198 42.6531 39.1198 43.0321 39.1198 43.5436C39.1198 44.1308 39.1198 44.8696 39.1198 45.7221V46.7072V51.216V51.2538L39.0819 69.7624C39.0819 79.5945 39.0441 88.2521 39.0441 88.2521V97.4969C39.0251 100.49 40.9953 103.483 44.9168 105.757L126.908 153.269H126.965Z" fill="#7B7B7B"/>
<path opacity="0.97" d="M123.915 153.269C131.777 157.816 144.621 157.834 152.502 153.307L205.281 122.939C209.221 120.685 211.191 117.692 211.191 114.698L211.229 86.9639V77.719V68.4742V59.2294C211.229 56.2362 209.278 53.243 205.337 50.9697L123.346 3.45735C115.485 -1.08928 102.621 -1.10816 94.7595 3.40058L41.9807 33.7682C38.0403 36.0226 36.0701 39.0158 36.0701 42.009C36.0701 42.009 36.0701 42.1605 36.0701 42.3879C36.0701 42.6531 36.0701 43.0321 36.0701 43.5436C36.0701 44.1308 36.0701 44.8696 36.0701 45.7221V46.7072V51.216V51.2538L36.0322 69.7624C36.0322 79.5945 35.9943 88.2521 35.9943 88.2521V97.4969C35.9753 100.49 37.9456 103.483 41.867 105.757L123.858 153.269H123.915Z" fill="#777777"/>
<path d="M120.884 153.269C128.745 157.816 141.59 157.834 149.47 153.307L202.249 122.939C206.19 120.685 208.16 117.692 208.16 114.698L208.198 86.9639V77.7191V68.4742V59.2294C208.198 56.2362 206.247 53.243 202.306 50.9697L120.315 3.45737C112.453 -1.08926 99.5902 -1.10815 91.7283 3.4006L38.9494 33.7683C35.009 36.0226 33.0388 39.0158 33.0388 42.009C33.0388 42.009 33.0388 42.1606 33.0388 42.3879C33.0388 42.6531 33.0388 43.0321 33.0388 43.5436C33.0388 44.1309 33.0388 44.8696 33.0388 45.7221V46.7072V51.216V51.2538L33.001 69.7624C33.001 79.5945 32.963 88.2521 32.963 88.2521V97.4969C32.9441 100.49 34.9143 103.483 38.8358 105.757L120.827 153.269H120.884Z" fill="#737373"/>
</g>
</g>
<path d="M38.9874 50.2498C35.0659 47.9765 33.0957 44.9833 33.0957 41.9902C33.0957 38.9969 35.0659 36.0037 39.0063 33.7493L91.7852 3.38165C99.6471 -1.14604 112.529 -1.12716 120.372 3.43842L202.363 50.9508C206.285 53.2241 208.255 56.2173 208.255 59.2105C208.255 62.2037 206.285 65.1969 202.344 67.4513L149.565 97.819C141.684 102.347 128.84 102.328 120.978 97.781L38.9874 50.2688V50.2498Z" fill="#8EE200"/>
<path d="M54.0483 48.8479C59.6937 45.5895 59.6559 39.1295 54.0673 35.909L95.4606 12.096C101.049 15.3354 112.624 15.146 117.872 12.1339L187.284 52.3526C181.184 55.8573 181.165 61.768 187.284 65.2916L145.89 89.1046C140.51 85.9788 128.897 85.9409 123.46 89.0667L54.0483 48.8479Z" fill="#C8EE00"/>
<path d="M142.613 63.3214C130.469 70.2929 110.824 70.274 98.6998 63.2456C86.5755 56.2173 86.6134 44.8696 98.7377 37.8981C110.881 30.9077 130.545 30.9456 142.651 37.974C154.775 45.0023 154.737 56.3499 142.613 63.3403V63.3214Z" fill="#8EE200"/>
<path d="M93.5846 34.9049C91.0272 36.3636 86.8973 36.3636 84.3588 34.9049C81.8013 33.4272 81.8202 31.0404 84.3588 29.5627C86.9162 28.085 91.0461 28.104 93.6036 29.5627C96.1421 31.0404 96.1421 33.4272 93.6036 34.9049H93.5846Z" fill="#8EE200"/>
<path d="M156.991 71.6569C154.434 73.1156 150.304 73.1156 147.746 71.6569C145.189 70.1792 145.208 67.7923 147.746 66.3335C150.304 64.8559 154.434 64.8748 156.991 66.3335C159.549 67.8112 159.53 70.1982 156.991 71.6758V71.6569Z" fill="#8EE200"/>
<path d="M109.233 8.15543C107.736 9.00792 105.33 9.00792 103.833 8.15543C102.337 7.28399 102.337 5.90113 103.833 5.02969C105.33 4.1772 107.755 4.1772 109.233 5.02969C110.729 5.90113 110.71 7.28399 109.233 8.15543Z" fill="#C8EE00"/>
<path d="M47.19 43.8276C45.6934 44.6801 43.2875 44.6801 41.7909 43.8276C40.2943 42.9561 40.2943 41.5733 41.7909 40.7018C43.2875 39.8494 45.7124 39.8494 47.19 40.7018C48.6866 41.5733 48.6677 42.9561 47.19 43.8276Z" fill="#C8EE00"/>
<path d="M199.559 60.4986C198.063 61.3511 195.638 61.3511 194.16 60.4986C192.663 59.6271 192.663 58.2443 194.16 57.3728C195.657 56.5203 198.081 56.5203 199.559 57.3728C201.056 58.2443 201.056 59.6271 199.559 60.4986Z" fill="#C8EE00"/>
<path d="M137.517 96.1707C136.02 97.0232 133.614 97.0232 132.118 96.1707C130.621 95.2993 130.621 93.9163 132.118 93.0449C133.614 92.1924 136.039 92.1924 137.517 93.0449C139.013 93.9163 139.013 95.2993 137.517 96.1707Z" fill="#C8EE00"/>
<path d="M202.344 67.4513L149.565 97.8189C141.685 102.347 128.84 102.328 120.978 97.781L38.9875 50.2688C35.0661 47.9955 33.0958 45.0022 33.0958 42.009V51.2538C33.0769 54.247 35.0471 57.2403 38.9686 59.5136L120.96 107.026C128.821 111.572 141.666 111.591 149.546 107.064L202.325 76.6961C206.266 74.4417 208.236 71.4485 208.236 68.4553V59.2104C208.236 62.2036 206.285 65.1969 202.344 67.4513Z" fill="url(#paint1_linear_3026_15328)"/>
<path d="M202.307 95.1856L149.528 125.553C141.647 130.081 128.803 130.062 120.941 125.515L38.9499 78.0032C35.0284 75.7298 33.0582 72.7367 33.0582 69.7435V78.9883C33.0393 81.9815 35.0095 84.9747 38.931 87.248L120.922 134.76C128.784 139.307 141.628 139.326 149.509 134.798L202.288 104.43C206.228 102.176 208.198 99.183 208.198 96.1898V86.9449C208.198 89.9381 206.247 92.9313 202.307 95.1856Z" fill="url(#paint2_linear_3026_15328)"/>
<path d="M202.325 76.6961L149.546 107.064C141.666 111.591 128.821 111.572 120.959 107.026L38.9685 59.5136C35.047 57.2403 33.0768 54.247 33.0768 51.2538V60.4986C33.0579 63.4918 35.0281 66.4851 38.9495 68.7584L120.94 116.271C128.802 120.817 141.647 120.836 149.527 116.309L202.306 85.9408C206.247 83.6864 208.217 80.6933 208.217 77.7001V68.4553C208.217 71.4485 206.266 74.4417 202.325 76.6961Z" fill="url(#paint3_linear_3026_15328)"/>
<path d="M202.288 104.449L149.509 134.817C141.628 139.345 128.784 139.326 120.922 134.779L38.9309 87.2669C35.0094 84.9936 33.0392 82.0004 33.0392 79.0072V88.2521C33.0203 91.2453 34.9905 94.2385 38.9119 96.5118L120.903 144.024C128.765 148.571 141.609 148.59 149.49 144.062L202.269 113.694C206.209 111.44 208.179 108.447 208.179 105.454V96.2087C208.179 99.2019 206.228 102.195 202.288 104.449Z" fill="url(#paint4_linear_3026_15328)"/>
<path d="M202.307 85.9408L149.528 116.309C141.647 120.836 128.803 120.817 120.941 116.271L38.9499 68.7584C35.0284 66.4851 33.0582 63.4918 33.0582 60.4986V69.7435C33.0393 72.7367 35.0095 75.7298 38.931 78.0032L120.922 125.515C128.784 130.062 141.628 130.081 149.509 125.553L202.288 95.1856C206.228 92.9313 208.198 89.9381 208.198 86.9449V77.7001C208.198 80.6933 206.247 83.6864 202.307 85.9408Z" fill="url(#paint5_linear_3026_15328)"/>
<path d="M202.269 113.694L149.49 144.062C141.609 148.59 128.765 148.571 120.903 144.024L38.9119 96.5118C34.9904 94.2385 33.0202 91.2453 33.0202 88.2521V97.4969C33.0012 100.49 34.9714 103.483 38.8929 105.757L120.884 153.269C128.746 157.816 141.59 157.834 149.471 153.307L202.25 122.939C206.19 120.685 208.16 117.692 208.16 114.698V105.454C208.16 108.447 206.209 111.44 202.269 113.694Z" fill="url(#paint6_linear_3026_15328)"/>
<defs>
<linearGradient id="paint0_linear_3026_15328" x1="0.00249626" y1="153.357" x2="241.106" y2="153.736" gradientUnits="userSpaceOnUse">
<stop stop-color="#734000"/>
<stop offset="0.1" stop-color="#784300"/>
<stop offset="0.3" stop-color="#7B4500"/>
<stop offset="0.55" stop-color="#6A3400"/>
<stop offset="0.74" stop-color="#652F00"/>
<stop offset="1" stop-color="#3B0800"/>
</linearGradient>
<linearGradient id="paint1_linear_3026_15328" x1="33.0871" y1="76.1162" x2="208.265" y2="76.3913" gradientUnits="userSpaceOnUse">
<stop stop-color="#66C300"/>
<stop offset="0.02" stop-color="#64C000"/>
<stop offset="0.14" stop-color="#5DB600"/>
<stop offset="0.3" stop-color="#5CB400"/>
<stop offset="0.45" stop-color="#54AF00"/>
<stop offset="0.67" stop-color="#3FA300"/>
<stop offset="0.74" stop-color="#389F00"/>
<stop offset="1" stop-color="#389F00"/>
</linearGradient>
<linearGradient id="paint2_linear_3026_15328" x1="33.0438" y1="103.87" x2="208.221" y2="104.145" gradientUnits="userSpaceOnUse">
<stop stop-color="#50B000"/>
<stop offset="0.06" stop-color="#4BA700"/>
<stop offset="0.16" stop-color="#469D00"/>
<stop offset="0.3" stop-color="#459B00"/>
<stop offset="0.49" stop-color="#3A9000"/>
<stop offset="0.74" stop-color="#287C00"/>
<stop offset="1" stop-color="#2B8900"/>
</linearGradient>
<linearGradient id="paint3_linear_3026_15328" x1="33.0725" y1="85.361" x2="208.25" y2="85.6361" gradientUnits="userSpaceOnUse">
<stop stop-color="#50B000"/>
<stop offset="0.06" stop-color="#4BA700"/>
<stop offset="0.16" stop-color="#469D00"/>
<stop offset="0.3" stop-color="#459B00"/>
<stop offset="0.49" stop-color="#3A9000"/>
<stop offset="0.74" stop-color="#287C00"/>
<stop offset="1" stop-color="#2B8900"/>
</linearGradient>
<linearGradient id="paint4_linear_3026_15328" x1="33.0292" y1="113.114" x2="208.207" y2="113.39" gradientUnits="userSpaceOnUse">
<stop stop-color="#66C300"/>
<stop offset="0.02" stop-color="#64C000"/>
<stop offset="0.14" stop-color="#5DB600"/>
<stop offset="0.3" stop-color="#5CB400"/>
<stop offset="0.45" stop-color="#54AF00"/>
<stop offset="0.67" stop-color="#3FA300"/>
<stop offset="0.74" stop-color="#389F00"/>
<stop offset="1" stop-color="#389F00"/>
</linearGradient>
<linearGradient id="paint5_linear_3026_15328" x1="33.0583" y1="94.6058" x2="208.236" y2="94.881" gradientUnits="userSpaceOnUse">
<stop stop-color="#66C300"/>
<stop offset="0.02" stop-color="#64C000"/>
<stop offset="0.14" stop-color="#5DB600"/>
<stop offset="0.3" stop-color="#5CB400"/>
<stop offset="0.45" stop-color="#54AF00"/>
<stop offset="0.67" stop-color="#3FA300"/>
<stop offset="0.74" stop-color="#389F00"/>
<stop offset="1" stop-color="#389F00"/>
</linearGradient>
<linearGradient id="paint6_linear_3026_15328" x1="33.0145" y1="122.359" x2="208.192" y2="122.634" gradientUnits="userSpaceOnUse">
<stop stop-color="#50B000"/>
<stop offset="0.06" stop-color="#4BA700"/>
<stop offset="0.16" stop-color="#469D00"/>
<stop offset="0.3" stop-color="#459B00"/>
<stop offset="0.49" stop-color="#3A9000"/>
<stop offset="0.74" stop-color="#287C00"/>
<stop offset="1" stop-color="#2B8900"/>
</linearGradient>
</defs>
</svg>
